<svg enable-background="new 0 0 341.61 98.98" viewBox="0 0 341.61 98.98" xmlns="http://www.w3.org/2000/svg"><path d="m326.17 83.54c.05-.14.16-.5.28-.93-.01.08-.01.16-.02.25-.01.23-.06.75-.09 1.27-.08-.21-.14-.41-.17-.59m-18.83-5.34c.11.17-.04.27.04.38.07.11.23.2.33.2.1.01.1.13.19.14s.59.01.68-.1.05-.22.14-.28c.08-.06.48-.33.62-.35s.48-.27.55-.32.08-.11.13-.11.61.07.82-.19c.06-.07.38 0 .63.25.24.25 1.87 3.02 1.96 3.83.09.89.57 1.54.85 1.84.03.27.1.63.23 1.07.21.71.39 1.74.42 2.34s.15.81.15 1.11.09 1.49-.03 1.83-.55.53-.6.79c-.15.1-.36.3-.39.33-.02.03-.09.09.08.11s.72.07.79.07c.07-.01.33 0 .43-.2s-.09-.26-.13-.31.14-.23.18-.28.18-.29.29-.33c.12-.04.23-.1.22-.33s-.16-1.56-.17-1.73c-.01-.16-.04-.67.01-.83s.02-.33.07-.78c.03-.27.04-.24.07-.31.09.08.21.47.24.85.05.6.18.81.2 1.11.01.3.16 1.48.05 1.83s-.52.55-.56.81c-.15.11-.35.32-.37.35s-.09.09.09.11c.17.02.73.04.79.03s.33-.01.42-.22-.11-.26-.15-.31.13-.24.17-.29.17-.29.28-.34.23-.11.21-.34-.22-1.56-.24-1.72-.07-.66-.03-.83.1-.33.04-.79c-.07-.46-.09-1.18-.07-1.53.01-.17.02-.45.02-.71.14.04.6.03 1.64.11 1.13.1 2.15-.14 2.8-.34.32-.1.77-.29 1.16-.46.36-.16.78.03.91.4.16.5.33.94.42 1.1.21.35.65 1.73.79 2.08s.07 1.67.07 1.82-.04.54-.03.65c.01.12-.04.62-.09.79-.05.18-.36.29-.55.52s-.33.52-.24.57c.09.06.6.03.93.05s.52-.09.48-.19-.16-.68.01-.9.48-.51.37-.85c-.16-.49-.02-1.5-.05-1.84-.03-.33.02-1.14.14-1.61.21.43.42.87.52 1.04.18.33.27 1.64.29 1.79s.02.54.04.65.03.62.01.8-.32.33-.48.58-.27.43-.18.48.61.08.94.06.5-.15.46-.25c-.05-.1-.24-.65-.1-.89s.43-.57.26-.89c-.23-.45-.15-.92-.21-1.39.1-.08.19-.21.27-.41.32-.78.33-1.81.3-2.32-.03-.52-.44-2.88-.64-3.98-.16-.89-.25-1.15-.48-1.51-.12-.2-.29-.36-.49-.49-.25-.16-.61-.38-.85-.45-.4-.12-1.39-.39-1.75-.41-.35-.02-1.04.06-1.7.17-.66.12-2.31.27-3.33.08-.67-.13-2.91-1.54-3.14-1.73s-1.56-.94-1.82-1.11c-.27-.16-1.33-.59-1.53-.69s-1.05-.41-1.26-.45c-.02-.01-.05-.01-.07-.01-.07-.13-.12-.24-.17-.32-.1-.16-.22-.27-.28-.39s-.08-.28-.09-.34-.06-.07-.07 0c-.01.08 0 .26-.03.38-.01.07 0 .17.01.26-.09-.12-.18-.21-.22-.31-.06-.11-.08-.28-.09-.34s-.06-.07-.07 0c-.01.08 0 .26-.03.38-.02.11.02.34.06.43.03.09.01.21-.02.3-.01.02 0 .06.02.11-.12.06-.25.14-.35.24-.2.19-.69.74-.82.9s-.76.9-.89 1.1c-.13.19-.44.58-.49.72-.06.17-.05.3.06.46" fill="#808285"/><path d="m326.17 17.57c.05-.14.16-.5.28-.93-.01.08-.01.16-.02.25-.01.23-.06.75-.09 1.27-.08-.21-.14-.41-.17-.59m-18.83-5.34c.11.17-.04.27.04.38.07.11.23.2.33.2.1.01.1.13.19.14s.59.01.68-.1.05-.22.14-.28c.08-.06.48-.33.62-.35s.48-.27.55-.32.08-.11.13-.11.61.07.82-.19c.06-.07.38 0 .63.25.24.25 1.87 3.02 1.96 3.83.09.89.57 1.54.85 1.84.03.27.1.63.23 1.07.21.71.39 1.74.42 2.34s.15.81.15 1.11.09 1.49-.03 1.83-.55.53-.6.79c-.15.1-.36.3-.39.33-.02.03-.09.09.08.11s.72.07.79.07c.07-.01.33 0 .43-.2s-.09-.26-.13-.31.14-.23.18-.28.18-.29.29-.33c.12-.04.23-.1.22-.33s-.16-1.56-.17-1.73c-.01-.16-.04-.67.01-.83s.02-.33.07-.78c.03-.27.04-.24.07-.31.09.08.21.47.24.85.05.6.18.81.2 1.11.01.3.16 1.48.05 1.83s-.52.55-.56.81c-.15.11-.35.32-.37.35s-.09.09.09.11c.17.02.73.04.79.03s.33-.01.42-.22-.11-.26-.15-.31.13-.24.17-.29.17-.29.28-.34.23-.11.21-.34-.22-1.56-.24-1.72-.07-.66-.03-.83.1-.33.04-.79c-.07-.46-.09-1.18-.07-1.53.01-.17.02-.45.02-.71.14.04.6.03 1.64.11 1.13.1 2.15-.14 2.8-.34.32-.1.77-.29 1.16-.46.36-.16.78.03.91.4.16.5.33.94.42 1.1.21.35.65 1.73.79 2.08s.07 1.67.07 1.82-.04.54-.03.65c.01.12-.04.62-.09.79-.05.18-.36.29-.55.52s-.33.52-.24.57c.09.06.6.03.93.05s.52-.09.48-.19c-.03-.11-.16-.68.01-.9s.48-.51.37-.85c-.16-.49-.02-1.5-.05-1.84-.03-.33.02-1.14.14-1.61.21.43.42.87.52 1.04.18.33.27 1.64.29 1.79s.02.54.04.65.03.62.01.8-.32.33-.48.58-.27.43-.18.48.61.08.94.06.5-.15.46-.25c-.05-.1-.24-.65-.1-.89s.43-.57.26-.89c-.23-.45-.15-.92-.21-1.39.1-.08.19-.21.27-.41.32-.78.33-1.81.3-2.32-.03-.52-.44-2.88-.64-3.98-.16-.89-.25-1.15-.48-1.51-.12-.2-.29-.36-.49-.49-.25-.16-.61-.38-.85-.45-.4-.12-1.39-.39-1.75-.41-.35-.02-1.04.06-1.7.17-.66.12-2.31.27-3.33.08-.67-.13-2.91-1.54-3.14-1.73-.23-.18-1.56-.94-1.82-1.11-.27-.16-1.33-.59-1.53-.69s-1.05-.41-1.26-.45c-.02-.01-.05-.01-.07-.01-.07-.13-.12-.24-.17-.32-.1-.16-.22-.27-.28-.39s-.08-.28-.09-.34-.06-.07-.07 0c-.01.08 0 .26-.03.38-.01.07 0 .17.01.26-.09-.12-.18-.21-.22-.31-.06-.11-.08-.28-.09-.34s-.06-.07-.07 0c-.01.08 0 .26-.03.38-.02.11.02.34.06.43.03.09.01.21-.02.3-.01.02 0 .06.02.11-.12.06-.25.14-.35.24-.2.19-.69.74-.82.9s-.76.9-.89 1.1c-.13.19-.44.58-.49.72s-.05.3.06.46" fill="#808285"/><path d="m326.17 39.56c.05-.14.16-.5.28-.93-.01.08-.01.16-.02.25-.01.23-.06.75-.09 1.27-.08-.21-.14-.41-.17-.59m-18.83-5.34c.11.17-.04.27.04.38.07.11.23.2.33.2.1.01.1.13.19.14s.59.01.68-.1.05-.22.14-.28c.08-.06.48-.33.62-.35s.48-.27.55-.32.08-.11.13-.11.61.07.82-.19c.06-.07.38 0 .63.25.24.25 1.87 3.02 1.96 3.83.09.89.57 1.54.85 1.84.03.27.1.63.23 1.07.21.71.39 1.74.42 2.34s.15.81.15 1.11.09 1.49-.03 1.83-.55.53-.6.79c-.15.1-.36.3-.39.33-.02.03-.09.09.08.11s.72.07.79.07c.07-.01.33 0 .43-.2s-.09-.26-.13-.31.14-.23.18-.28.18-.29.29-.33c.12-.04.23-.1.22-.33s-.16-1.56-.17-1.73c-.01-.16-.04-.67.01-.83s.02-.33.07-.78c.03-.27.04-.24.07-.31.09.08.21.47.24.85.05.6.18.81.2 1.11.01.3.16 1.48.05 1.83s-.52.55-.56.81c-.15.11-.35.32-.37.35s-.09.09.09.11c.17.02.73.04.79.03s.33-.01.42-.22-.11-.26-.15-.31.13-.24.17-.29.17-.29.28-.34.23-.11.21-.34-.22-1.56-.24-1.72-.07-.66-.03-.83.1-.33.04-.79c-.07-.46-.09-1.18-.07-1.53.01-.17.02-.45.02-.71.14.04.6.03 1.64.11 1.13.1 2.15-.14 2.8-.34.32-.1.77-.29 1.16-.46.36-.16.78.03.91.4.16.5.33.94.42 1.1.21.35.65 1.73.79 2.08s.07 1.67.07 1.82-.04.54-.03.65c.01.12-.04.62-.09.79-.05.18-.36.29-.55.52s-.33.52-.24.57c.09.06.6.03.93.05s.52-.09.48-.19-.16-.68.01-.9.48-.51.37-.85c-.16-.49-.02-1.5-.05-1.84-.03-.33.02-1.14.14-1.61.21.43.42.87.52 1.04.18.33.27 1.64.29 1.79s.02.54.04.65.03.62.01.8-.32.33-.48.58-.27.43-.18.48.61.08.94.06.5-.15.46-.25c-.05-.1-.24-.65-.1-.89s.43-.57.26-.89c-.23-.45-.15-.92-.21-1.39.1-.08.19-.21.27-.41.32-.78.33-1.81.3-2.32-.03-.52-.44-2.88-.64-3.98-.16-.89-.25-1.15-.48-1.51-.12-.2-.29-.36-.49-.49-.25-.16-.61-.38-.85-.45-.4-.12-1.39-.39-1.75-.41-.35-.02-1.04.06-1.7.17-.66.12-2.31.27-3.33.08-.67-.13-2.91-1.54-3.14-1.73-.23-.18-1.56-.94-1.82-1.11-.27-.16-1.33-.59-1.53-.69s-1.05-.41-1.26-.45c-.02-.01-.05-.01-.07-.01-.07-.13-.12-.24-.17-.32-.1-.16-.22-.27-.28-.39s-.08-.28-.09-.34-.06-.07-.07 0c-.01.08 0 .26-.03.38-.01.07 0 .17.01.26-.09-.12-.18-.21-.22-.31-.06-.11-.08-.28-.09-.34s-.06-.07-.07 0c-.01.08 0 .26-.03.38-.02.11.02.34.06.43.03.09.01.21-.02.3-.01.02 0 .06.02.11-.12.06-.25.14-.35.24-.2.19-.69.74-.82.9s-.76.9-.89 1.1c-.13.19-.44.58-.49.72-.06.17-.05.3.06.46" fill="#808285"/><path d="m326.17 61.55c.05-.14.16-.5.28-.93-.01.08-.01.16-.02.25-.01.23-.06.75-.09 1.27-.08-.21-.14-.41-.17-.59m-18.83-5.34c.11.17-.04.27.04.38.07.11.23.2.33.2.1.01.1.13.19.14s.59.01.68-.1.05-.22.14-.28c.08-.06.48-.33.62-.35s.48-.27.55-.32.08-.11.13-.11.61.07.82-.19c.06-.07.38 0 .63.25.24.25 1.87 3.02 1.96 3.83.09.89.57 1.54.85 1.84.03.27.1.63.23 1.07.21.71.39 1.74.42 2.34s.15.81.15 1.11.09 1.49-.03 1.83-.55.53-.6.79c-.15.1-.36.3-.39.33-.02.03-.09.09.08.11s.72.07.79.07c.07-.01.33 0 .43-.2s-.09-.26-.13-.31.14-.23.18-.28.18-.29.29-.33c.12-.04.23-.1.22-.33s-.16-1.56-.17-1.73c-.01-.16-.04-.67.01-.83s.02-.33.07-.78c.03-.27.04-.24.07-.31.09.08.21.47.24.85.05.6.18.81.2 1.11.01.3.16 1.48.05 1.83s-.52.55-.56.81c-.15.11-.35.32-.37.35s-.09.09.09.11c.17.02.73.04.79.03s.33-.01.42-.22-.11-.26-.15-.31.13-.24.17-.29.17-.29.28-.34.23-.11.21-.34-.22-1.56-.24-1.72-.07-.66-.03-.83.1-.33.04-.79c-.07-.46-.09-1.18-.07-1.53.01-.17.02-.45.02-.71.14.04.6.03 1.64.11 1.13.1 2.15-.14 2.8-.34.32-.1.77-.29 1.16-.46.36-.16.78.03.91.4.16.5.33.94.42 1.1.21.35.65 1.73.79 2.08s.07 1.67.07 1.82-.04.54-.03.65c.01.12-.04.62-.09.79-.05.18-.36.29-.55.52s-.33.52-.24.57c.09.06.6.03.93.05s.52-.09.48-.19c-.03-.11-.16-.68.01-.9s.48-.51.37-.85c-.16-.49-.02-1.5-.05-1.84-.03-.33.02-1.14.14-1.61.21.43.42.87.52 1.04.18.33.27 1.64.29 1.79s.02.54.04.65.03.62.01.8-.32.33-.48.58-.27.43-.18.48.61.08.94.06.5-.15.46-.25c-.05-.1-.24-.65-.1-.89s.43-.57.26-.89c-.23-.45-.15-.92-.21-1.39.1-.08.19-.21.27-.41.32-.78.33-1.81.3-2.32-.03-.52-.44-2.88-.64-3.98-.16-.89-.25-1.15-.48-1.51-.12-.2-.29-.36-.49-.49-.25-.16-.61-.38-.85-.45-.4-.12-1.39-.39-1.75-.41-.35-.02-1.04.06-1.7.17-.66.12-2.31.27-3.33.08-.67-.13-2.91-1.54-3.14-1.73-.23-.18-1.56-.94-1.82-1.11-.27-.16-1.33-.59-1.53-.69s-1.05-.41-1.26-.45c-.02-.01-.05-.01-.07-.01-.07-.13-.12-.24-.17-.32-.1-.16-.22-.27-.28-.39s-.08-.28-.09-.34-.06-.07-.07 0c-.01.08 0 .26-.03.38-.01.07 0 .17.01.26-.09-.12-.18-.21-.22-.31-.06-.11-.08-.28-.09-.34s-.06-.07-.07 0c-.01.08 0 .26-.03.38-.02.11.02.34.06.43.03.09.01.21-.02.3-.01.02 0 .06.02.11-.12.06-.25.14-.35.24-.2.19-.69.74-.82.9s-.76.9-.89 1.1c-.13.19-.44.58-.49.72s-.05.3.06.46" fill="#808285"/><path d="m91.27 83.54c.05-.14.16-.5.28-.93-.01.08-.01.16-.02.25-.01.23-.06.75-.09 1.27-.08-.21-.14-.41-.17-.59m-18.83-5.34c.11.17-.04.27.04.38.07.11.23.2.33.2.1.01.1.13.19.14s.59.01.68-.1.05-.22.14-.28c.08-.06.48-.33.62-.35s.48-.27.55-.32.08-.11.13-.11.61.07.82-.19c.06-.07.38 0 .63.25.24.25 1.87 3.02 1.96 3.83.09.89.57 1.54.85 1.84.03.27.1.63.23 1.07.21.71.39 1.74.42 2.34s.15.81.15 1.11.09 1.49-.03 1.83-.55.53-.6.79c-.15.1-.36.3-.39.33-.02.03-.09.09.08.11s.72.07.79.07c.07-.01.33 0 .43-.2s-.09-.26-.13-.31.14-.23.18-.28.18-.29.29-.33c.12-.04.23-.1.22-.33s-.16-1.56-.17-1.73c-.01-.16-.04-.67.01-.83s.02-.33.07-.78c.03-.27.04-.24.07-.31.09.08.21.47.24.85.05.6.18.81.2 1.11.01.3.16 1.48.05 1.83s-.52.55-.56.81c-.15.11-.35.32-.37.35s-.09.09.09.11c.17.02.73.04.79.03s.33-.01.42-.22-.11-.26-.15-.31.13-.24.17-.29.17-.29.28-.34.23-.11.21-.34-.22-1.56-.24-1.72-.07-.66-.03-.83.1-.33.04-.79c-.07-.46-.09-1.18-.07-1.53.01-.17.02-.45.02-.71.14.04.6.03 1.64.11 1.13.1 2.15-.14 2.8-.34.32-.1.77-.29 1.16-.46.36-.16.78.03.91.4.16.5.33.94.42 1.1.21.35.65 1.73.79 2.08s.07 1.67.07 1.82-.04.54-.03.65c.01.12-.04.62-.09.79-.05.18-.36.29-.55.52s-.33.52-.24.57c.09.06.6.03.93.05s.52-.09.48-.19c-.03-.11-.16-.68.01-.9s.48-.51.37-.85c-.16-.49-.02-1.5-.05-1.84-.03-.33.02-1.14.14-1.61.21.43.42.87.52 1.04.18.33.27 1.64.29 1.79s.02.54.04.65.03.62.01.8-.32.33-.48.58-.27.43-.18.48.61.08.94.06.5-.15.46-.25c-.05-.1-.24-.65-.1-.89s.43-.57.26-.89c-.23-.45-.15-.92-.21-1.39.1-.08.19-.21.27-.41.32-.78.33-1.81.3-2.32-.03-.52-.44-2.88-.64-3.98-.16-.89-.25-1.15-.48-1.51-.12-.2-.29-.36-.49-.49-.25-.16-.61-.38-.85-.45-.4-.12-1.39-.39-1.75-.41-.35-.02-1.04.06-1.7.17-.66.12-2.31.27-3.33.08-.67-.13-2.91-1.54-3.14-1.73s-1.56-.94-1.82-1.11c-.27-.16-1.33-.59-1.53-.69s-1.05-.41-1.26-.45c-.02-.01-.05-.01-.07-.01-.07-.13-.12-.24-.17-.32-.1-.16-.22-.27-.28-.39s-.08-.28-.09-.34-.06-.07-.07 0c-.01.08 0 .26-.03.38-.01.07 0 .17.01.26-.09-.12-.18-.21-.22-.31-.06-.11-.08-.28-.09-.34s-.06-.07-.07 0c-.01.08 0 .26-.03.38-.02.11.02.34.06.43.03.09.01.21-.02.3-.01.02 0 .06.02.11-.12.06-.25.14-.35.24-.2.19-.69.74-.82.9s-.76.9-.89 1.1c-.13.19-.44.58-.49.72-.06.17-.05.3.06.46"/><path d="m117.34 83.54c.05-.14.16-.5.28-.93-.01.08-.01.16-.02.25-.01.23-.06.75-.09 1.27-.08-.21-.14-.41-.17-.59m-18.83-5.34c.11.17-.04.27.04.38.07.11.23.2.33.2.1.01.1.13.19.14s.59.01.68-.1.05-.22.14-.28c.08-.06.48-.33.62-.35s.48-.27.55-.32.08-.11.13-.11.61.07.82-.19c.06-.07.38 0 .63.25.24.25 1.87 3.02 1.96 3.83.09.89.57 1.54.85 1.84.03.27.1.63.23 1.07.21.71.39 1.74.42 2.34s.15.81.15 1.11.09 1.49-.03 1.83-.55.53-.6.79c-.15.1-.36.3-.39.33-.02.03-.09.09.08.11s.72.07.79.07c.07-.01.33 0 .43-.2s-.09-.26-.13-.31.14-.23.18-.28.18-.29.29-.33c.12-.04.23-.1.22-.33s-.16-1.56-.17-1.73c-.01-.16-.04-.67.01-.83s.02-.33.07-.78c.03-.27.04-.24.07-.31.09.08.21.47.24.85.05.6.18.81.2 1.11.01.3.16 1.48.05 1.83s-.52.55-.56.81c-.15.11-.35.32-.37.35s-.09.09.09.11c.17.02.73.04.79.03s.33-.01.42-.22-.11-.26-.15-.31.13-.24.17-.29.17-.29.28-.34.23-.11.21-.34-.22-1.56-.24-1.72-.07-.66-.03-.83.1-.33.04-.79c-.07-.46-.09-1.18-.07-1.53.01-.17.02-.45.02-.71.14.04.6.03 1.64.11 1.13.1 2.15-.14 2.8-.34.32-.1.77-.29 1.16-.46.36-.16.78.03.91.4.16.5.33.94.42 1.1.21.35.65 1.73.79 2.08s.07 1.67.07 1.82-.04.54-.03.65c.01.12-.04.62-.09.79-.05.18-.36.29-.55.52s-.33.52-.24.57c.09.06.6.03.93.05s.52-.09.48-.19c-.03-.11-.16-.68.01-.9s.48-.51.37-.85c-.16-.49-.02-1.5-.05-1.84-.03-.33.02-1.14.14-1.61.21.43.42.87.52 1.04.18.33.27 1.64.29 1.79s.02.54.04.65.03.62.01.8-.32.33-.48.58-.27.43-.18.48.61.08.94.06.5-.15.46-.25c-.05-.1-.24-.65-.1-.89s.43-.57.26-.89c-.23-.45-.15-.92-.21-1.39.1-.08.19-.21.27-.41.32-.78.33-1.81.3-2.32-.03-.52-.44-2.88-.64-3.98-.16-.89-.25-1.15-.48-1.51-.12-.2-.29-.36-.49-.49-.25-.16-.61-.38-.85-.45-.4-.12-1.39-.39-1.75-.41-.35-.02-1.04.06-1.7.17-.66.12-2.31.27-3.33.08-.67-.13-2.91-1.54-3.14-1.73-.23-.18-1.56-.94-1.82-1.11-.27-.16-1.33-.59-1.53-.69s-1.05-.41-1.26-.45c-.02-.01-.05-.01-.07-.01-.07-.13-.12-.24-.17-.32-.1-.16-.22-.27-.28-.39s-.08-.28-.09-.34-.06-.07-.07 0c-.01.08 0 .26-.03.38-.01.07 0 .17.01.26-.09-.12-.18-.21-.22-.31-.06-.11-.08-.28-.09-.34s-.06-.07-.07 0c-.01.08 0 .26-.03.38s.02.34.06.43c.03.09.01.21-.02.3-.01.02 0 .06.02.11-.12.06-.25.14-.35.24-.2.19-.69.74-.82.9s-.76.9-.89 1.1c-.13.19-.44.58-.49.72-.06.17-.04.3.06.46"/><path d="m143.41 83.54c.05-.14.16-.5.28-.93-.01.08-.01.16-.02.25-.01.23-.06.75-.09 1.27-.07-.21-.13-.41-.17-.59m-18.83-5.34c.11.17-.04.27.04.38.07.11.23.2.33.2.1.01.1.13.19.14s.59.01.68-.1.05-.22.14-.28c.08-.06.48-.33.62-.35s.48-.27.55-.32.08-.11.13-.11.61.07.82-.19c.06-.07.38 0 .63.25.24.25 1.87 3.02 1.96 3.83.09.89.57 1.54.85 1.84.03.27.1.63.23 1.07.21.71.39 1.74.42 2.34s.15.81.15 1.11.09 1.49-.03 1.83-.55.53-.6.79c-.15.1-.36.3-.39.33-.02.03-.09.09.08.11s.72.07.79.07c.07-.01.33 0 .43-.2s-.09-.26-.13-.31.14-.23.18-.28.18-.29.29-.33c.12-.04.23-.1.22-.33s-.16-1.56-.17-1.73c-.01-.16-.04-.67.01-.83s.02-.33.07-.78c.03-.27.04-.24.07-.31.09.08.21.47.24.85.05.6.18.81.2 1.11.01.3.16 1.48.05 1.83s-.52.55-.56.81c-.15.11-.35.32-.37.35s-.09.09.09.11c.17.02.73.04.79.03s.33-.01.42-.22-.11-.26-.15-.31.13-.24.17-.29.17-.29.28-.34.23-.11.21-.34-.22-1.56-.24-1.72-.07-.66-.03-.83.1-.33.04-.79c-.07-.46-.09-1.18-.07-1.53.01-.17.02-.45.02-.71.14.04.6.03 1.64.11 1.13.1 2.15-.14 2.8-.34.32-.1.77-.29 1.16-.46.36-.16.78.03.91.4.16.5.33.94.42 1.1.21.35.65 1.73.79 2.08s.07 1.67.07 1.82-.04.54-.03.65c.01.12-.04.62-.09.79-.05.18-.36.29-.55.52s-.33.52-.24.57c.09.06.6.03.93.05s.52-.09.48-.19-.16-.68.01-.9.48-.51.37-.85c-.16-.49-.02-1.5-.05-1.84-.03-.33.02-1.14.14-1.61.21.43.42.87.52 1.04.18.33.27 1.64.29 1.79s.02.54.04.65.03.62.01.8-.32.33-.48.58-.27.43-.18.48.61.08.94.06.5-.15.46-.25c-.05-.1-.24-.65-.1-.89s.43-.57.26-.89c-.23-.45-.15-.92-.21-1.39.1-.08.19-.21.27-.41.32-.78.33-1.81.3-2.32-.03-.52-.44-2.88-.64-3.98-.16-.89-.25-1.15-.48-1.51-.12-.2-.29-.36-.49-.49-.25-.16-.61-.38-.85-.45-.4-.12-1.39-.39-1.75-.41-.35-.02-1.04.06-1.7.17-.66.12-2.31.27-3.33.08-.67-.13-2.91-1.54-3.14-1.73-.23-.18-1.56-.94-1.82-1.11-.27-.16-1.33-.59-1.53-.69s-1.05-.41-1.26-.45c-.02-.01-.05-.01-.07-.01-.07-.13-.12-.24-.17-.32-.1-.16-.22-.27-.28-.39s-.08-.28-.09-.34-.06-.07-.07 0c-.01.08 0 .26-.03.38-.01.07 0 .17.01.26-.09-.12-.18-.21-.22-.31-.06-.11-.08-.28-.09-.34s-.06-.07-.07 0c-.01.08 0 .26-.03.38s.02.34.06.43c.03.09.01.21-.02.3-.01.02 0 .06.02.11-.12.06-.25.14-.35.24-.2.19-.69.74-.82.9s-.76.9-.89 1.1c-.13.19-.44.58-.49.72-.06.17-.04.3.06.46"/><path d="m169.49 83.54c.05-.14.16-.5.28-.93-.01.08-.01.16-.02.25-.01.23-.06.75-.09 1.27-.08-.21-.14-.41-.17-.59m-18.83-5.34c.11.17-.04.27.04.38.07.11.23.2.33.2.1.01.1.13.19.14s.59.01.68-.1.05-.22.14-.28c.08-.06.48-.33.62-.35s.48-.27.55-.32.08-.11.13-.11.61.07.82-.19c.06-.07.38 0 .63.25.24.25 1.87 3.02 1.96 3.83.09.89.57 1.54.85 1.84.03.27.1.63.23 1.07.21.71.39 1.74.42 2.34s.15.81.15 1.11.09 1.49-.03 1.83-.55.53-.6.79c-.15.1-.36.3-.39.33-.02.03-.09.09.08.11s.72.07.79.07c.07-.01.33 0 .43-.2s-.09-.26-.13-.31.14-.23.18-.28.18-.29.29-.33c.12-.04.23-.1.22-.33s-.16-1.56-.17-1.73c-.01-.16-.04-.67.01-.83s.02-.33.07-.78c.03-.27.04-.24.07-.31.09.08.21.47.24.85.05.6.18.81.2 1.11.01.3.16 1.48.05 1.83s-.52.55-.56.81c-.15.11-.35.32-.37.35s-.09.09.09.11c.17.02.73.04.79.03s.33-.01.42-.22-.11-.26-.15-.31.13-.24.17-.29.17-.29.28-.34.23-.11.21-.34-.22-1.56-.24-1.72-.07-.66-.03-.83.1-.33.04-.79c-.07-.46-.09-1.18-.07-1.53.01-.17.02-.45.02-.71.14.04.6.03 1.64.11 1.13.1 2.15-.14 2.8-.34.32-.1.77-.29 1.16-.46.36-.16.78.03.91.4.16.5.33.94.42 1.1.21.35.65 1.73.79 2.08s.07 1.67.07 1.82-.04.54-.03.65c.01.12-.04.62-.09.79-.05.18-.36.29-.55.52s-.33.52-.24.57c.09.06.6.03.93.05s.52-.09.48-.19-.16-.68.01-.9.48-.51.37-.85c-.16-.49-.02-1.5-.05-1.84-.03-.33.02-1.14.14-1.61.21.43.42.87.52 1.04.18.33.27 1.64.29 1.79s.02.54.04.65.03.62.01.8-.32.33-.48.58-.27.43-.18.48.61.08.94.06.5-.15.46-.25c-.05-.1-.24-.65-.1-.89s.43-.57.26-.89c-.23-.45-.15-.92-.21-1.39.1-.08.19-.21.27-.41.32-.78.33-1.81.3-2.32-.03-.52-.44-2.88-.64-3.98-.16-.89-.25-1.15-.48-1.51-.12-.2-.29-.36-.49-.49-.25-.16-.61-.38-.85-.45-.4-.12-1.39-.39-1.75-.41-.35-.02-1.04.06-1.7.17-.66.12-2.31.27-3.33.08-.67-.13-2.91-1.54-3.14-1.73-.23-.18-1.56-.94-1.82-1.11-.27-.16-1.33-.59-1.53-.69s-1.05-.41-1.26-.45c-.02-.01-.05-.01-.07-.01-.07-.13-.12-.24-.17-.32-.1-.16-.22-.27-.28-.39s-.08-.28-.09-.34-.06-.07-.07 0c-.01.08 0 .26-.03.38-.01.07 0 .17.01.26-.09-.12-.18-.21-.22-.31-.06-.11-.08-.28-.09-.34s-.06-.07-.07 0c-.01.08 0 .26-.03.38s.02.34.06.43c.03.09.01.21-.02.3-.01.02 0 .06.02.11-.12.06-.25.14-.35.24-.2.19-.69.74-.82.9s-.76.9-.89 1.1c-.13.19-.44.58-.49.72-.06.17-.05.3.06.46"/><path d="m91.27 17.57c.05-.14.16-.5.28-.93-.01.08-.01.16-.02.25-.01.23-.06.75-.09 1.27-.08-.21-.14-.41-.17-.59m-18.83-5.34c.11.17-.04.27.04.38.07.11.23.2.33.2.1.01.1.13.19.14s.59.01.68-.1.05-.22.14-.28c.08-.06.48-.33.62-.35s.48-.27.55-.32.08-.11.13-.11.61.07.82-.19c.06-.07.38 0 .63.25.24.25 1.87 3.02 1.96 3.83.09.89.57 1.54.85 1.84.03.27.1.63.23 1.07.21.71.39 1.74.42 2.34s.15.81.15 1.11.09 1.49-.03 1.83-.55.53-.6.79c-.15.1-.36.3-.39.33-.02.03-.09.09.08.11s.72.07.79.07c.07-.01.33 0 .43-.2s-.09-.26-.13-.31.14-.23.18-.28.18-.29.29-.33c.12-.04.23-.1.22-.33-.02-.22-.16-1.56-.17-1.72s-.04-.67.01-.83.02-.33.07-.78c.03-.27.04-.24.07-.31.09.08.21.47.24.85.05.6.18.81.2 1.11.01.3.16 1.48.05 1.83s-.52.55-.56.81c-.15.11-.35.32-.37.35s-.09.09.09.11c.17.02.73.04.79.03s.33-.01.42-.22-.11-.26-.15-.31.13-.24.17-.29.17-.29.28-.34.23-.11.21-.34-.22-1.56-.24-1.72-.07-.66-.03-.83.1-.33.04-.79c-.07-.46-.09-1.18-.07-1.53.01-.17.02-.45.02-.71.14.04.6.03 1.64.11 1.13.1 2.15-.14 2.8-.34.32-.1.77-.29 1.16-.46.36-.16.78.03.91.4.16.5.33.94.42 1.1.21.35.65 1.73.79 2.08s.07 1.67.07 1.82-.04.54-.03.65c.01.12-.04.62-.09.79-.05.18-.36.29-.55.52s-.33.52-.24.57c.09.06.6.03.93.05s.52-.09.48-.19c-.03-.11-.16-.68.01-.9s.48-.51.37-.85c-.16-.49-.02-1.5-.05-1.84-.03-.33.02-1.14.14-1.61.21.43.42.87.52 1.04.18.33.27 1.64.29 1.79s.02.54.04.65.03.62.01.8-.32.33-.48.58-.27.43-.18.48.61.08.94.06.5-.15.46-.25c-.05-.1-.24-.65-.1-.89s.43-.57.26-.89c-.23-.45-.15-.92-.21-1.39.1-.08.19-.21.27-.41.32-.78.33-1.81.3-2.32-.03-.52-.44-2.88-.64-3.98-.16-.89-.25-1.15-.48-1.51-.12-.2-.29-.36-.49-.49-.25-.16-.61-.38-.85-.45-.4-.12-1.39-.39-1.75-.41-.35-.02-1.04.06-1.7.17-.66.12-2.31.27-3.33.08-.67-.13-2.91-1.54-3.14-1.73-.23-.18-1.56-.94-1.82-1.11-.27-.16-1.33-.59-1.53-.69s-1.05-.41-1.26-.45c-.02-.01-.05-.01-.07-.01-.07-.13-.12-.24-.17-.32-.1-.16-.22-.27-.28-.39s-.08-.28-.09-.34-.06-.07-.07 0c-.01.08 0 .26-.03.38-.01.07 0 .17.01.26-.09-.12-.18-.21-.22-.31-.06-.08-.09-.24-.1-.3s-.06-.07-.07 0c-.01.08 0 .26-.03.38-.02.11.02.34.06.43.03.09.01.21-.02.3-.01.02 0 .06.02.11-.12.06-.24.14-.34.23-.2.19-.69.74-.82.9s-.76.9-.89 1.1c-.13.19-.44.58-.49.72-.06.13-.05.26.06.42"/><path d="m117.34 17.57c.05-.14.16-.5.28-.93-.01.08-.01.16-.02.25-.01.23-.06.75-.09 1.27-.08-.21-.14-.41-.17-.59m-18.83-5.34c.11.17-.04.27.04.38.07.11.23.2.33.2.1.01.1.13.19.14s.59.01.68-.1.05-.22.14-.28c.08-.06.48-.33.62-.35s.48-.27.55-.32.08-.11.13-.11.61.07.82-.19c.06-.07.38 0 .63.25.24.25 1.87 3.02 1.96 3.83.09.89.57 1.54.85 1.84.03.27.1.63.23 1.07.21.71.39 1.74.42 2.34s.15.81.15 1.11.09 1.49-.03 1.83-.55.53-.6.79c-.15.1-.36.3-.39.33-.02.03-.09.09.08.11s.72.07.79.07c.07-.01.33 0 .43-.2s-.09-.26-.13-.31.14-.23.18-.28.18-.29.29-.33c.12-.04.23-.1.22-.33s-.16-1.56-.17-1.73c-.01-.16-.04-.67.01-.83s.02-.33.07-.78c.03-.27.04-.24.07-.31.09.08.21.47.24.85.05.6.18.81.2 1.11.01.3.16 1.48.05 1.83s-.52.55-.56.81c-.15.11-.35.32-.37.35s-.09.09.09.11c.17.02.73.04.79.03s.33-.01.42-.22-.11-.26-.15-.31.13-.24.17-.29.17-.29.28-.34.23-.11.21-.34-.22-1.56-.24-1.72-.07-.66-.03-.83.1-.33.04-.79c-.07-.46-.09-1.18-.07-1.53.01-.17.02-.45.02-.71.14.04.6.03 1.64.11 1.13.1 2.15-.14 2.8-.34.32-.1.77-.29 1.16-.46.36-.16.78.03.91.4.16.5.33.94.42 1.1.21.35.65 1.73.79 2.08s.07 1.67.07 1.82-.04.54-.03.65c.01.12-.04.62-.09.79-.05.18-.36.29-.55.52s-.33.52-.24.57c.09.06.6.03.93.05s.52-.09.48-.19c-.03-.11-.16-.68.01-.9s.48-.51.37-.85c-.16-.49-.02-1.5-.05-1.84-.03-.33.02-1.14.14-1.61.21.43.42.87.52 1.04.18.33.27 1.64.29 1.79s.02.54.04.65.03.62.01.8-.32.33-.48.58-.27.43-.18.48.61.08.94.06.5-.15.46-.25c-.05-.1-.24-.65-.1-.89s.43-.57.26-.89c-.23-.45-.15-.92-.21-1.39.1-.08.19-.21.27-.41.32-.78.33-1.81.3-2.32-.03-.52-.44-2.88-.64-3.98-.16-.89-.25-1.15-.48-1.51-.12-.2-.29-.36-.49-.49-.25-.16-.61-.38-.85-.45-.4-.12-1.39-.39-1.75-.41-.35-.02-1.04.06-1.7.17-.66.12-2.31.27-3.33.08-.67-.13-2.91-1.54-3.14-1.73-.23-.18-1.56-.94-1.82-1.11-.27-.16-1.33-.59-1.53-.69s-1.05-.41-1.26-.45c-.02-.01-.05-.01-.07-.01-.07-.13-.12-.24-.17-.32-.1-.16-.22-.27-.28-.39s-.08-.28-.09-.34-.06-.07-.07 0c-.01.08 0 .26-.03.38-.01.07 0 .17.01.26-.09-.12-.18-.21-.22-.31-.06-.11-.08-.28-.09-.34s-.06-.07-.07 0c-.01.08 0 .26-.03.38-.02.11.02.34.06.43.03.09.01.21-.02.3-.01.02 0 .06.02.11-.12.06-.25.14-.35.24-.2.19-.69.74-.82.9s-.76.9-.89 1.1c-.13.19-.44.58-.49.72-.06.17-.04.3.06.46"/><path d="m143.41 17.57c.05-.14.16-.5.28-.93-.01.08-.01.16-.02.25-.01.23-.06.75-.09 1.27-.07-.21-.13-.41-.17-.59m-18.83-5.34c.11.17-.04.27.04.38.07.11.23.2.33.2.1.01.1.13.19.14s.59.01.68-.1.05-.22.14-.28c.08-.06.48-.33.62-.35s.48-.27.55-.32.08-.11.13-.11.61.07.82-.19c.06-.07.38 0 .63.25.24.25 1.87 3.02 1.96 3.83.09.89.57 1.54.85 1.84.03.27.1.63.23 1.07.21.71.39 1.74.42 2.34s.15.81.15 1.11.09 1.49-.03 1.83-.55.53-.6.79c-.15.1-.36.3-.39.33-.02.03-.09.09.08.11s.72.07.79.07c.07-.01.33 0 .43-.2s-.09-.26-.13-.31.14-.23.18-.28.18-.29.29-.33c.12-.04.23-.1.22-.33s-.16-1.56-.17-1.73c-.01-.16-.04-.67.01-.83s.02-.33.07-.78c.03-.27.04-.24.07-.31.09.08.21.47.24.85.05.6.18.81.2 1.11.01.3.16 1.48.05 1.83s-.52.55-.56.81c-.15.11-.35.32-.37.35s-.09.09.09.11c.17.02.73.04.79.03s.33-.01.42-.22-.11-.26-.15-.31.13-.24.17-.29.17-.29.28-.34.23-.11.21-.34-.22-1.56-.24-1.72-.07-.66-.03-.83.1-.33.04-.79c-.07-.46-.09-1.18-.07-1.53.01-.17.02-.45.02-.71.14.04.6.03 1.64.11 1.13.1 2.15-.14 2.8-.34.32-.1.77-.29 1.16-.46.36-.16.78.03.91.4.16.5.33.94.42 1.1.21.35.65 1.73.79 2.08s.07 1.67.07 1.82-.04.54-.03.65c.01.12-.04.62-.09.79-.05.18-.36.29-.55.52s-.33.52-.24.57c.09.06.6.03.93.05s.52-.09.48-.19c-.03-.11-.16-.68.01-.9s.48-.51.37-.85c-.16-.49-.02-1.5-.05-1.84-.03-.33.02-1.14.14-1.61.21.43.42.87.52 1.04.18.33.27 1.64.29 1.79s.02.54.04.65.03.62.01.8-.32.33-.48.58-.27.43-.18.48.61.08.94.06.5-.15.46-.25c-.05-.1-.24-.65-.1-.89s.43-.57.26-.89c-.23-.45-.15-.92-.21-1.39.1-.08.19-.21.27-.41.32-.78.33-1.81.3-2.32-.03-.52-.44-2.88-.64-3.98-.16-.89-.25-1.15-.48-1.51-.12-.2-.29-.36-.49-.49-.25-.16-.61-.38-.85-.45-.4-.12-1.39-.39-1.75-.41-.35-.02-1.04.06-1.7.17-.66.12-2.31.27-3.33.08-.67-.13-2.91-1.54-3.14-1.73-.23-.18-1.56-.94-1.82-1.11-.27-.16-1.33-.59-1.53-.69s-1.05-.41-1.26-.45c-.02-.01-.05-.01-.07-.01-.07-.13-.12-.24-.17-.32-.1-.16-.22-.27-.28-.39s-.08-.28-.09-.34-.06-.07-.07 0c-.01.08 0 .26-.03.38-.01.07 0 .17.01.26-.09-.12-.18-.21-.22-.31-.06-.11-.08-.28-.09-.34s-.06-.07-.07 0c-.01.08 0 .26-.03.38-.02.11.02.34.06.43.03.09.01.21-.02.3-.01.02 0 .06.02.11-.12.06-.25.14-.35.24-.2.19-.69.74-.82.9s-.76.9-.89 1.1c-.13.19-.44.58-.49.72-.06.17-.04.3.06.46"/><path d="m169.49 17.57c.05-.14.16-.5.28-.93-.01.08-.01.16-.02.25-.01.23-.06.75-.09 1.27-.08-.21-.14-.41-.17-.59m-18.83-5.34c.11.17-.04.27.04.38.07.11.23.2.33.2.1.01.1.13.19.14s.59.01.68-.1.05-.22.14-.28c.08-.06.48-.33.62-.35s.48-.27.55-.32.08-.11.13-.11.61.07.82-.19c.06-.07.38 0 .63.25.24.25 1.87 3.02 1.96 3.83.09.89.57 1.54.85 1.84.03.27.1.63.23 1.07.21.71.39 1.74.42 2.34s.15.81.15 1.11.09 1.49-.03 1.83-.55.53-.6.79c-.15.1-.36.3-.39.33-.02.03-.09.09.08.11s.72.07.79.07c.07-.01.33 0 .43-.2s-.09-.26-.13-.31.14-.23.18-.28.18-.29.29-.33c.12-.04.23-.1.22-.33s-.16-1.56-.17-1.73c-.01-.16-.04-.67.01-.83s.02-.33.07-.78c.03-.27.04-.24.07-.31.09.08.21.47.24.85.05.6.18.81.2 1.11.01.3.16 1.48.05 1.83s-.52.55-.56.81c-.15.11-.35.32-.37.35s-.09.09.09.11c.17.02.73.04.79.03s.33-.01.42-.22-.11-.26-.15-.31.13-.24.17-.29.17-.29.28-.34.23-.11.21-.34-.22-1.56-.24-1.72-.07-.66-.03-.83.1-.33.04-.79c-.07-.46-.09-1.18-.07-1.53.01-.17.02-.45.02-.71.14.04.6.03 1.64.11 1.13.1 2.15-.14 2.8-.34.32-.1.77-.29 1.16-.46.36-.16.78.03.91.4.16.5.33.94.42 1.1.21.35.65 1.73.79 2.08s.07 1.67.07 1.82-.04.54-.03.65c.01.12-.04.62-.09.79-.05.18-.36.29-.55.52s-.33.52-.24.57c.09.06.6.03.93.05s.52-.09.48-.19c-.03-.11-.16-.68.01-.9s.48-.51.37-.85c-.16-.49-.02-1.5-.05-1.84-.03-.33.02-1.14.14-1.61.21.43.42.87.52 1.04.18.33.27 1.64.29 1.79s.02.54.04.65.03.62.01.8-.32.33-.48.58-.27.43-.18.48.61.08.94.06.5-.15.46-.25c-.05-.1-.24-.65-.1-.89s.43-.57.26-.89c-.23-.45-.15-.92-.21-1.39.1-.08.19-.21.27-.41.32-.78.33-1.81.3-2.32-.03-.52-.44-2.88-.64-3.98-.16-.89-.25-1.15-.48-1.51-.12-.2-.29-.36-.49-.49-.25-.16-.61-.38-.85-.45-.4-.12-1.39-.39-1.75-.41-.35-.02-1.04.06-1.7.17-.66.12-2.31.27-3.33.08-.67-.13-2.91-1.54-3.14-1.73-.23-.18-1.56-.94-1.82-1.11-.27-.16-1.33-.59-1.53-.69s-1.05-.41-1.26-.45c-.02-.01-.05-.01-.07-.01-.07-.13-.12-.24-.17-.32-.1-.16-.22-.27-.28-.39s-.08-.28-.09-.34-.06-.07-.07 0c-.01.08 0 .26-.03.38-.01.07 0 .17.01.26-.09-.12-.18-.21-.22-.31-.06-.11-.08-.28-.09-.34s-.06-.07-.07 0c-.01.08 0 .26-.03.38-.02.11.02.34.06.43.03.09.01.21-.02.3-.01.02 0 .06.02.11-.12.06-.25.14-.35.24-.2.19-.69.74-.82.9s-.76.9-.89 1.1c-.13.19-.44.58-.49.72-.06.17-.05.3.06.46"/><path d="m195.56 17.57c.05-.14.16-.5.28-.93-.01.08-.01.16-.02.25-.01.23-.06.75-.09 1.27-.08-.21-.14-.41-.17-.59m-18.83-5.34c.11.17-.04.27.04.38.07.11.23.2.33.2.1.01.1.13.19.14s.59.01.68-.1.05-.22.14-.28c.08-.06.48-.33.62-.35s.48-.27.55-.32.08-.11.13-.11.61.07.82-.19c.06-.07.38 0 .63.25.24.25 1.87 3.02 1.96 3.83.09.89.57 1.54.85 1.84.03.27.1.63.23 1.07.21.71.39 1.74.42 2.34s.15.81.15 1.11.09 1.49-.03 1.83-.55.53-.6.79c-.15.1-.36.3-.39.33-.02.03-.09.09.08.11s.72.07.79.07c.07-.01.33 0 .43-.2s-.09-.26-.13-.31.14-.23.18-.28.18-.29.29-.33c.12-.04.23-.1.22-.33s-.16-1.56-.17-1.73c-.01-.16-.04-.67.01-.83s.02-.33.07-.78c.03-.27.04-.24.07-.31.09.08.21.47.24.85.05.6.18.81.2 1.11.01.3.16 1.48.05 1.83s-.52.55-.56.81c-.15.11-.35.32-.37.35s-.09.09.09.11c.17.02.73.04.79.03s.33-.01.42-.22-.11-.26-.15-.31.13-.24.17-.29.17-.29.28-.34.23-.11.21-.34-.22-1.56-.24-1.72-.07-.66-.03-.83.1-.33.04-.79c-.07-.46-.09-1.18-.07-1.53.01-.17.02-.45.02-.71.14.04.6.03 1.64.11 1.13.1 2.15-.14 2.8-.34.32-.1.77-.29 1.16-.46.36-.16.78.03.91.4.16.5.33.94.42 1.1.21.35.65 1.73.79 2.08s.07 1.67.07 1.82-.04.54-.03.65c.01.12-.04.62-.09.79-.05.18-.36.29-.55.52s-.33.52-.24.57c.09.06.6.03.93.05s.52-.09.48-.19c-.03-.11-.16-.68.01-.9s.48-.51.37-.85c-.16-.49-.02-1.5-.05-1.84-.03-.33.02-1.14.14-1.61.21.43.42.87.52 1.04.18.33.27 1.64.29 1.79s.02.54.04.65.03.62.01.8-.32.33-.48.58-.27.43-.18.48.61.08.94.06.5-.15.46-.25c-.05-.1-.24-.65-.1-.89s.43-.57.26-.89c-.23-.45-.15-.92-.21-1.39.1-.08.19-.21.27-.41.32-.78.33-1.81.3-2.32-.03-.52-.44-2.88-.64-3.98-.16-.89-.25-1.15-.48-1.51-.12-.2-.29-.36-.49-.49-.25-.16-.61-.38-.85-.45-.4-.12-1.39-.39-1.75-.41-.35-.02-1.04.06-1.7.17-.66.12-2.31.27-3.33.08-.67-.13-2.91-1.54-3.14-1.73-.23-.18-1.56-.94-1.82-1.11-.27-.16-1.33-.59-1.53-.69s-1.05-.41-1.26-.45c-.02-.01-.05-.01-.07-.01-.07-.13-.12-.24-.17-.32-.1-.16-.22-.27-.28-.39s-.08-.28-.09-.34-.06-.07-.07 0c-.01.08 0 .26-.03.38-.01.07 0 .17.01.26-.09-.12-.18-.21-.22-.31-.06-.11-.08-.28-.09-.34s-.06-.07-.07 0c-.01.08 0 .26-.03.38-.02.11.02.34.06.43.03.09.01.21-.02.3-.01.02 0 .06.02.11-.12.06-.25.14-.35.24-.2.19-.69.74-.82.9s-.76.9-.89 1.1c-.13.19-.44.58-.49.72-.06.17-.04.3.06.46"/><path d="m221.64 17.57c.05-.14.16-.5.28-.93-.01.08-.01.16-.02.25-.01.23-.06.75-.09 1.27-.08-.21-.14-.41-.17-.59m-18.83-5.34c.11.17-.04.27.04.38s.23.2.33.2c.1.01.1.13.19.14s.59.01.68-.1.05-.22.14-.28c.08-.06.48-.33.62-.35s.48-.27.55-.32.08-.11.13-.11.61.07.82-.19c.06-.07.38 0 .63.25.24.25 1.87 3.02 1.96 3.83.09.89.57 1.54.85 1.84.03.27.1.63.23 1.07.21.71.39 1.74.42 2.34s.15.81.15 1.11.09 1.49-.03 1.83-.55.53-.6.79c-.15.1-.36.3-.39.33-.02.03-.09.09.08.11s.72.07.79.07c.07-.01.33 0 .43-.2s-.09-.26-.13-.31.14-.23.18-.28.18-.29.29-.33c.12-.04.23-.1.22-.33s-.16-1.56-.17-1.73c-.01-.16-.04-.67.01-.83s.02-.33.07-.78c.03-.27.04-.24.07-.31.09.08.21.47.24.85.05.6.18.81.2 1.11.01.3.16 1.48.05 1.83s-.52.55-.56.81c-.15.11-.35.32-.37.35s-.09.09.09.11c.17.02.73.04.79.03s.33-.01.42-.22-.11-.26-.15-.31.13-.24.17-.29.17-.29.28-.34.23-.11.21-.34-.22-1.56-.24-1.72-.07-.66-.03-.83.1-.33.04-.79c-.07-.46-.09-1.18-.07-1.53.01-.17.02-.45.02-.71.14.04.6.03 1.64.11 1.13.1 2.15-.14 2.8-.34.32-.1.77-.29 1.16-.46.36-.16.78.03.91.4.16.5.33.94.42 1.1.21.35.65 1.73.79 2.08s.07 1.67.07 1.82-.04.54-.03.65c.01.12-.04.62-.09.79-.05.18-.36.29-.55.52s-.33.52-.24.57c.09.06.6.03.93.05s.52-.09.48-.19c-.03-.11-.16-.68.01-.9s.48-.51.37-.85c-.16-.49-.02-1.5-.05-1.84-.03-.33.02-1.14.14-1.61.21.43.42.87.52 1.04.18.33.27 1.64.29 1.79s.02.54.04.65.03.62.01.8-.32.33-.48.58-.27.43-.18.48.61.08.94.06.5-.15.46-.25c-.05-.1-.24-.65-.1-.89s.43-.57.26-.89c-.23-.45-.15-.92-.21-1.39.1-.08.19-.21.27-.41.32-.78.33-1.81.3-2.32-.03-.52-.44-2.88-.64-3.98-.16-.89-.25-1.15-.48-1.51-.12-.2-.29-.36-.49-.49-.25-.16-.61-.38-.85-.45-.4-.12-1.39-.39-1.75-.41-.35-.02-1.04.06-1.7.17-.66.12-2.31.27-3.33.08-.67-.13-2.91-1.54-3.14-1.73-.23-.18-1.56-.94-1.82-1.11-.27-.16-1.33-.59-1.53-.69s-1.05-.41-1.26-.45c-.02-.01-.05-.01-.07-.01-.07-.13-.12-.24-.17-.32-.1-.16-.22-.27-.28-.39s-.08-.28-.09-.34-.06-.07-.07 0c-.01.08 0 .26-.03.38-.01.07 0 .17.01.26-.09-.12-.18-.21-.22-.31-.06-.11-.08-.28-.09-.34s-.06-.07-.07 0c-.01.08 0 .26-.03.38-.02.11.02.34.06.43.03.09.01.21-.02.3-.01.02 0 .06.02.11-.12.06-.25.14-.35.24-.2.19-.69.74-.82.9s-.76.9-.89 1.1c-.13.19-.44.58-.49.72-.07.17-.05.3.06.46"/><path d="m91.27 39.56c.05-.14.16-.5.28-.93-.01.08-.01.16-.02.25-.01.23-.06.75-.09 1.27-.08-.21-.14-.41-.17-.59m-18.83-5.34c.11.17-.04.27.04.38.07.11.23.2.33.2.1.01.1.13.19.14s.59.01.68-.1.05-.22.14-.28c.08-.06.48-.33.62-.35s.48-.27.55-.32.08-.11.13-.11.61.07.82-.19c.06-.07.38 0 .63.25.24.25 1.87 3.02 1.96 3.83.09.89.57 1.54.85 1.84.03.27.1.63.23 1.07.21.71.39 1.74.42 2.34s.15.81.15 1.11.09 1.49-.03 1.83-.55.53-.6.79c-.15.1-.36.3-.39.33-.02.03-.09.09.08.11s.72.07.79.07c.07-.01.33 0 .43-.2s-.09-.26-.13-.31.14-.23.18-.28.18-.29.29-.33c.12-.04.23-.1.22-.33s-.16-1.56-.17-1.73c-.01-.16-.04-.67.01-.83s.02-.33.07-.78c.03-.27.04-.24.07-.31.09.08.21.47.24.85.05.6.18.81.2 1.11.01.3.16 1.48.05 1.83s-.52.55-.56.81c-.15.11-.35.32-.37.35s-.09.09.09.11c.17.02.73.04.79.03s.33-.01.42-.22-.11-.26-.15-.31.13-.24.17-.29.17-.29.28-.34.23-.11.21-.34-.22-1.56-.24-1.72-.07-.66-.03-.83.1-.33.04-.79c-.07-.46-.09-1.18-.07-1.53.01-.17.02-.45.02-.71.14.04.6.03 1.64.11 1.13.1 2.15-.14 2.8-.34.32-.1.77-.29 1.16-.46.36-.16.78.03.91.4.16.5.33.94.42 1.1.21.35.65 1.73.79 2.08s.07 1.67.07 1.82-.04.54-.03.65c.01.12-.04.62-.09.79-.05.18-.36.29-.55.52s-.33.52-.24.57c.09.06.6.03.93.05s.52-.09.48-.19c-.03-.11-.16-.68.01-.9s.48-.51.37-.85c-.16-.49-.02-1.5-.05-1.84-.03-.33.02-1.14.14-1.61.21.43.42.87.52 1.04.18.33.27 1.64.29 1.79s.02.54.04.65.03.62.01.8-.32.33-.48.58-.27.43-.18.48.61.08.94.06.5-.15.46-.25c-.05-.1-.24-.65-.1-.89s.43-.57.26-.89c-.23-.45-.15-.92-.21-1.39.1-.08.19-.21.27-.41.32-.78.33-1.81.3-2.32-.03-.52-.44-2.88-.64-3.98-.16-.89-.25-1.15-.48-1.51-.12-.2-.29-.36-.49-.49-.25-.16-.61-.38-.85-.45-.4-.12-1.39-.39-1.75-.41-.35-.02-1.04.06-1.7.17-.66.12-2.31.27-3.33.08-.67-.13-2.91-1.54-3.14-1.73-.23-.18-1.56-.94-1.82-1.11-.27-.16-1.33-.59-1.53-.69s-1.05-.41-1.26-.45c-.02-.01-.05-.01-.07-.01-.07-.13-.12-.24-.17-.32-.1-.16-.22-.27-.28-.39s-.08-.28-.09-.34-.06-.07-.07 0c-.01.08 0 .26-.03.38-.01.07 0 .17.01.26-.09-.12-.18-.21-.22-.31-.06-.11-.08-.28-.09-.34s-.06-.07-.07 0c-.01.08 0 .26-.03.38-.02.11.02.34.06.43.03.09.01.21-.02.3-.01.02 0 .06.02.11-.12.06-.25.14-.35.24-.2.19-.69.74-.82.9s-.76.9-.89 1.1c-.13.19-.44.58-.49.72-.06.17-.05.3.06.46"/><path d="m117.34 39.56c.05-.14.16-.5.28-.93-.01.08-.01.16-.02.25-.01.23-.06.75-.09 1.27-.08-.21-.14-.41-.17-.59m-18.83-5.34c.11.17-.04.27.04.38.07.11.23.2.33.2.1.01.1.13.19.14s.59.01.68-.1.05-.22.14-.28c.08-.06.48-.33.62-.35s.48-.27.55-.32.08-.11.13-.11.61.07.82-.19c.06-.07.38 0 .63.25.24.25 1.87 3.02 1.96 3.83.09.89.57 1.54.85 1.84.03.27.1.63.23 1.07.21.71.39 1.74.42 2.34s.15.81.15 1.11.09 1.49-.03 1.83-.55.53-.6.79c-.15.1-.36.3-.39.33-.02.03-.09.09.08.11s.72.07.79.07c.07-.01.33 0 .43-.2s-.09-.26-.13-.31.14-.23.18-.28.18-.29.29-.33c.12-.04.23-.1.22-.33s-.16-1.56-.17-1.73c-.01-.16-.04-.67.01-.83s.02-.33.07-.78c.03-.27.04-.24.07-.31.09.08.21.47.24.85.05.6.18.81.2 1.11.01.3.16 1.48.05 1.83s-.52.55-.56.81c-.15.11-.35.32-.37.35s-.09.09.09.11c.17.02.73.04.79.03s.33-.01.42-.22-.11-.26-.15-.31.13-.24.17-.29.17-.29.28-.34.23-.11.21-.34-.22-1.56-.24-1.72-.07-.66-.03-.83.1-.33.04-.79c-.07-.46-.09-1.18-.07-1.53.01-.17.02-.45.02-.71.14.04.6.03 1.64.11 1.13.1 2.15-.14 2.8-.34.32-.1.77-.29 1.16-.46.36-.16.78.03.91.4.16.5.33.94.42 1.1.21.35.65 1.73.79 2.08s.07 1.67.07 1.82-.04.54-.03.65c.01.12-.04.62-.09.79-.05.18-.36.29-.55.52s-.33.52-.24.57c.09.06.6.03.93.05s.52-.09.48-.19c-.03-.11-.16-.68.01-.9s.48-.51.37-.85c-.16-.49-.02-1.5-.05-1.84-.03-.33.02-1.14.14-1.61.21.43.42.87.52 1.04.18.33.27 1.64.29 1.79s.02.54.04.65.03.62.01.8-.32.33-.48.58-.27.43-.18.48.61.08.94.06.5-.15.46-.25c-.05-.1-.24-.65-.1-.89s.43-.57.26-.89c-.23-.45-.15-.92-.21-1.39.1-.08.19-.21.27-.41.32-.78.33-1.81.3-2.32-.03-.52-.44-2.88-.64-3.98-.16-.89-.25-1.15-.48-1.51-.12-.2-.29-.36-.49-.49-.25-.16-.61-.38-.85-.45-.4-.12-1.39-.39-1.75-.41-.35-.02-1.04.06-1.7.17-.66.12-2.31.27-3.33.08-.67-.13-2.91-1.54-3.14-1.73-.23-.18-1.56-.94-1.82-1.11-.27-.16-1.33-.59-1.53-.69s-1.05-.41-1.26-.45c-.02-.01-.05-.01-.07-.01-.07-.13-.12-.24-.17-.32-.1-.16-.22-.27-.28-.39s-.08-.28-.09-.34-.06-.07-.07 0c-.01.08 0 .26-.03.38-.01.07 0 .17.01.26-.09-.12-.18-.21-.22-.31-.06-.11-.08-.28-.09-.34s-.06-.07-.07 0c-.01.08 0 .26-.03.38-.02.11.02.34.06.43.03.09.01.21-.02.3-.01.02 0 .06.02.11-.12.06-.25.14-.35.24-.2.19-.69.74-.82.9s-.76.9-.89 1.1c-.13.19-.44.58-.49.72-.06.17-.04.3.06.46"/><path d="m143.41 39.56c.05-.14.16-.5.28-.93-.01.08-.01.16-.02.25-.01.23-.06.75-.09 1.27-.07-.21-.13-.41-.17-.59m-18.83-5.34c.11.17-.04.27.04.38.07.11.23.2.33.2.1.01.1.13.19.14s.59.01.68-.1.05-.22.14-.28c.08-.06.48-.33.62-.35s.48-.27.55-.32.08-.11.13-.11.61.07.82-.19c.06-.07.38 0 .63.25.24.25 1.87 3.02 1.96 3.83.09.89.57 1.54.85 1.84.03.27.1.63.23 1.07.21.71.39 1.74.42 2.34s.15.81.15 1.11.09 1.49-.03 1.83-.55.53-.6.79c-.15.1-.36.3-.39.33-.02.03-.09.09.08.11s.72.07.79.07c.07-.01.33 0 .43-.2s-.09-.26-.13-.31.14-.23.18-.28.18-.29.29-.33c.12-.04.23-.1.22-.33s-.16-1.56-.17-1.73c-.01-.16-.04-.67.01-.83s.02-.33.07-.78c.03-.27.04-.24.07-.31.09.08.21.47.24.85.05.6.18.81.2 1.11.01.3.16 1.48.05 1.83s-.52.55-.56.81c-.15.11-.35.32-.37.35s-.09.09.09.11c.17.02.73.04.79.03s.33-.01.42-.22-.11-.26-.15-.31.13-.24.17-.29.17-.29.28-.34.23-.11.21-.34-.22-1.56-.24-1.72-.07-.66-.03-.83.1-.33.04-.79c-.07-.46-.09-1.18-.07-1.53.01-.17.02-.45.02-.71.14.04.6.03 1.64.11 1.13.1 2.15-.14 2.8-.34.32-.1.77-.29 1.16-.46.36-.16.78.03.91.4.16.5.33.94.42 1.1.21.35.65 1.73.79 2.08s.07 1.67.07 1.82-.04.54-.03.65c.01.12-.04.62-.09.79-.05.18-.36.29-.55.52s-.33.52-.24.57c.09.06.6.03.93.05s.52-.09.48-.19-.16-.68.01-.9.48-.51.37-.85c-.16-.49-.02-1.5-.05-1.84-.03-.33.02-1.14.14-1.61.21.43.42.87.52 1.04.18.33.27 1.64.29 1.79s.02.54.04.65.03.62.01.8-.32.33-.48.58-.27.43-.18.48.61.08.94.06.5-.15.46-.25c-.05-.1-.24-.65-.1-.89s.43-.57.26-.89c-.23-.45-.15-.92-.21-1.39.1-.08.19-.21.27-.41.32-.78.33-1.81.3-2.32-.03-.52-.44-2.88-.64-3.98-.16-.89-.25-1.15-.48-1.51-.12-.2-.29-.36-.49-.49-.25-.16-.61-.38-.85-.45-.4-.12-1.39-.39-1.75-.41-.35-.02-1.04.06-1.7.17-.66.12-2.31.27-3.33.08-.67-.13-2.91-1.54-3.14-1.73-.23-.18-1.56-.94-1.82-1.11-.27-.16-1.33-.59-1.53-.69s-1.05-.41-1.26-.45c-.02-.01-.05-.01-.07-.01-.07-.13-.12-.24-.17-.32-.1-.16-.22-.27-.28-.39s-.08-.28-.09-.34-.06-.07-.07 0c-.01.08 0 .26-.03.38-.01.07 0 .17.01.26-.09-.12-.18-.21-.22-.31-.06-.11-.08-.28-.09-.34s-.06-.07-.07 0c-.01.08 0 .26-.03.38-.02.11.02.34.06.43.03.09.01.21-.02.3-.01.02 0 .06.02.11-.12.06-.25.14-.35.24-.2.19-.69.74-.82.9s-.76.9-.89 1.1c-.13.19-.44.58-.49.72-.06.17-.04.3.06.46"/><path d="m169.49 39.56c.05-.14.16-.5.28-.93-.01.08-.01.16-.02.25-.01.23-.06.75-.09 1.27-.08-.21-.14-.41-.17-.59m-18.83-5.34c.11.17-.04.27.04.38.07.11.23.2.33.2.1.01.1.13.19.14s.59.01.68-.1.05-.22.14-.28c.08-.06.48-.33.62-.35s.48-.27.55-.32.08-.11.13-.11.61.07.82-.19c.06-.07.38 0 .63.25.24.25 1.87 3.02 1.96 3.83.09.89.57 1.54.85 1.84.03.27.1.63.23 1.07.21.71.39 1.74.42 2.34s.15.81.15 1.11.09 1.49-.03 1.83-.55.53-.6.79c-.15.1-.36.3-.39.33-.02.03-.09.09.08.11s.72.07.79.07c.07-.01.33 0 .43-.2s-.09-.26-.13-.31.14-.23.18-.28.18-.29.29-.33c.12-.04.23-.1.22-.33s-.16-1.56-.17-1.73c-.01-.16-.04-.67.01-.83s.02-.33.07-.78c.03-.27.04-.24.07-.31.09.08.21.47.24.85.05.6.18.81.2 1.11.01.3.16 1.48.05 1.83s-.52.55-.56.81c-.15.11-.35.32-.37.35s-.09.09.09.11c.17.02.73.04.79.03s.33-.01.42-.22-.11-.26-.15-.31.13-.24.17-.29.17-.29.28-.34.23-.11.21-.34-.22-1.56-.24-1.72-.07-.66-.03-.83.1-.33.04-.79c-.07-.46-.09-1.18-.07-1.53.01-.17.02-.45.02-.71.14.04.6.03 1.64.11 1.13.1 2.15-.14 2.8-.34.32-.1.77-.29 1.16-.46.36-.16.78.03.91.4.16.5.33.94.42 1.1.21.35.65 1.73.79 2.08s.07 1.67.07 1.82-.04.54-.03.65c.01.12-.04.62-.09.79-.05.18-.36.29-.55.52s-.33.52-.24.57c.09.06.6.03.93.05s.52-.09.48-.19-.16-.68.01-.9.48-.51.37-.85c-.16-.49-.02-1.5-.05-1.84-.03-.33.02-1.14.14-1.61.21.43.42.87.52 1.04.18.33.27 1.64.29 1.79s.02.54.04.65.03.62.01.8-.32.33-.48.58-.27.43-.18.48.61.08.94.06.5-.15.46-.25c-.05-.1-.24-.65-.1-.89s.43-.57.26-.89c-.23-.45-.15-.92-.21-1.39.1-.08.19-.21.27-.41.32-.78.33-1.81.3-2.32-.03-.52-.44-2.88-.64-3.98-.16-.89-.25-1.15-.48-1.51-.12-.2-.29-.36-.49-.49-.25-.16-.61-.38-.85-.45-.4-.12-1.39-.39-1.75-.41-.35-.02-1.04.06-1.7.17-.66.12-2.31.27-3.33.08-.67-.13-2.91-1.54-3.14-1.73-.23-.18-1.56-.94-1.82-1.11-.27-.16-1.33-.59-1.53-.69s-1.05-.41-1.26-.45c-.02-.01-.05-.01-.07-.01-.07-.13-.12-.24-.17-.32-.1-.16-.22-.27-.28-.39s-.08-.28-.09-.34-.06-.07-.07 0c-.01.08 0 .26-.03.38-.01.07 0 .17.01.26-.09-.12-.18-.21-.22-.31-.06-.11-.08-.28-.09-.34s-.06-.07-.07 0c-.01.08 0 .26-.03.38-.02.11.02.34.06.43.03.09.01.21-.02.3-.01.02 0 .06.02.11-.12.06-.25.14-.35.24-.2.19-.69.74-.82.9s-.76.9-.89 1.1c-.13.19-.44.58-.49.72-.06.17-.05.3.06.46"/><path d="m195.56 39.56c.05-.14.16-.5.28-.93-.01.08-.01.16-.02.25-.01.23-.06.75-.09 1.27-.08-.21-.14-.41-.17-.59m-18.83-5.34c.11.17-.04.27.04.38.07.11.23.2.33.2.1.01.1.13.19.14s.59.01.68-.1.05-.22.14-.28c.08-.06.48-.33.62-.35s.48-.27.55-.32.08-.11.13-.11.61.07.82-.19c.06-.07.38 0 .63.25.24.25 1.87 3.02 1.96 3.83.09.89.57 1.54.85 1.84.03.27.1.63.23 1.07.21.71.39 1.74.42 2.34s.15.81.15 1.11.09 1.49-.03 1.83-.55.53-.6.79c-.15.1-.36.3-.39.33-.02.03-.09.09.08.11s.72.07.79.07c.07-.01.33 0 .43-.2s-.09-.26-.13-.31.14-.23.18-.28.18-.29.29-.33c.12-.04.23-.1.22-.33s-.16-1.56-.17-1.73c-.01-.16-.04-.67.01-.83s.02-.33.07-.78c.03-.27.04-.24.07-.31.09.08.21.47.24.85.05.6.18.81.2 1.11.01.3.16 1.48.05 1.83s-.52.55-.56.81c-.15.11-.35.32-.37.35s-.09.09.09.11c.17.02.73.04.79.03s.33-.01.42-.22-.11-.26-.15-.31.13-.24.17-.29.17-.29.28-.34.23-.11.21-.34-.22-1.56-.24-1.72-.07-.66-.03-.83.1-.33.04-.79c-.07-.46-.09-1.18-.07-1.53.01-.17.02-.45.02-.71.14.04.6.03 1.64.11 1.13.1 2.15-.14 2.8-.34.32-.1.77-.29 1.16-.46.36-.16.78.03.91.4.16.5.33.94.42 1.1.21.35.65 1.73.79 2.08s.07 1.67.07 1.82-.04.54-.03.65c.01.12-.04.62-.09.79-.05.18-.36.29-.55.52s-.33.52-.24.57c.09.06.6.03.93.05s.52-.09.48-.19-.16-.68.01-.9.48-.51.37-.85c-.16-.49-.02-1.5-.05-1.84-.03-.33.02-1.14.14-1.61.21.43.42.87.52 1.04.18.33.27 1.64.29 1.79s.02.54.04.65.03.62.01.8-.32.33-.48.58-.27.43-.18.48.61.08.94.06.5-.15.46-.25c-.05-.1-.24-.65-.1-.89s.43-.57.26-.89c-.23-.45-.15-.92-.21-1.39.1-.08.19-.21.27-.41.32-.78.33-1.81.3-2.32-.03-.52-.44-2.88-.64-3.98-.16-.89-.25-1.15-.48-1.51-.12-.2-.29-.36-.49-.49-.25-.16-.61-.38-.85-.45-.4-.12-1.39-.39-1.75-.41-.35-.02-1.04.06-1.7.17-.66.12-2.31.27-3.33.08-.67-.13-2.91-1.54-3.14-1.73-.23-.18-1.56-.94-1.82-1.11-.27-.16-1.33-.59-1.53-.69s-1.05-.41-1.26-.45c-.02-.01-.05-.01-.07-.01-.07-.13-.12-.24-.17-.32-.1-.16-.22-.27-.28-.39s-.08-.28-.09-.34-.06-.07-.07 0c-.01.08 0 .26-.03.38-.01.07 0 .17.01.26-.09-.12-.18-.21-.22-.31-.06-.11-.08-.28-.09-.34s-.06-.07-.07 0c-.01.08 0 .26-.03.38-.02.11.02.34.06.43.03.09.01.21-.02.3-.01.02 0 .06.02.11-.12.06-.25.14-.35.24-.2.19-.69.74-.82.9s-.76.9-.89 1.1c-.13.19-.44.58-.49.72-.06.17-.04.3.06.46"/><path d="m221.64 39.56c.05-.14.16-.5.28-.93-.01.08-.01.16-.02.25-.01.23-.06.75-.09 1.27-.08-.21-.14-.41-.17-.59m-18.83-5.34c.11.17-.04.27.04.38.07.11.23.2.33.2.1.01.1.13.19.14s.59.01.68-.1.05-.22.14-.28c.08-.06.48-.33.62-.35s.48-.27.55-.32.08-.11.13-.11.61.07.82-.19c.06-.07.38 0 .63.25.24.25 1.87 3.02 1.96 3.83.09.89.57 1.54.85 1.84.03.27.1.63.23 1.07.21.71.39 1.74.42 2.34s.15.81.15 1.11.09 1.49-.03 1.83-.55.53-.6.79c-.15.1-.36.3-.39.33-.02.03-.09.09.08.11s.72.07.79.07c.07-.01.33 0 .43-.2s-.09-.26-.13-.31.14-.23.18-.28.18-.29.29-.33c.12-.04.23-.1.22-.33s-.16-1.56-.17-1.73c-.01-.16-.04-.67.01-.83s.02-.33.07-.78c.03-.27.04-.24.07-.31.09.08.21.47.24.85.05.6.18.81.2 1.11.01.3.16 1.48.05 1.83s-.52.55-.56.81c-.15.11-.35.32-.37.35s-.09.09.09.11c.17.02.73.04.79.03s.33-.01.42-.22-.11-.26-.15-.31.13-.24.17-.29.17-.29.28-.34.23-.11.21-.34-.22-1.56-.24-1.72-.07-.66-.03-.83.1-.33.04-.79c-.07-.46-.09-1.18-.07-1.53.01-.17.02-.45.02-.71.14.04.6.03 1.64.11 1.13.1 2.15-.14 2.8-.34.32-.1.77-.29 1.16-.46.36-.16.78.03.91.4.16.5.33.94.42 1.1.21.35.65 1.73.79 2.08s.07 1.67.07 1.82-.04.54-.03.65c.01.12-.04.62-.09.79-.05.18-.36.29-.55.52s-.33.52-.24.57c.09.06.6.03.93.05s.52-.09.48-.19-.16-.68.01-.9.48-.51.37-.85c-.16-.49-.02-1.5-.05-1.84-.03-.33.02-1.14.14-1.61.21.43.42.87.52 1.04.18.33.27 1.64.29 1.79s.02.54.04.65.03.62.01.8-.32.33-.48.58-.27.43-.18.48.61.08.94.06.5-.15.46-.25c-.05-.1-.24-.65-.1-.89s.43-.57.26-.89c-.23-.45-.15-.92-.21-1.39.1-.08.19-.21.27-.41.32-.78.33-1.81.3-2.32-.03-.52-.44-2.88-.64-3.98-.16-.89-.25-1.15-.48-1.51-.12-.2-.29-.36-.49-.49-.25-.16-.61-.38-.85-.45-.4-.12-1.39-.39-1.75-.41-.35-.02-1.04.06-1.7.17-.66.12-2.31.27-3.33.08-.67-.13-2.91-1.54-3.14-1.73-.23-.18-1.56-.94-1.82-1.11-.27-.16-1.33-.59-1.53-.69s-1.05-.41-1.26-.45c-.02-.01-.05-.01-.07-.01-.07-.13-.12-.24-.17-.32-.1-.16-.22-.27-.28-.39s-.08-.28-.09-.34-.06-.07-.07 0c-.01.08 0 .26-.03.38-.01.07 0 .17.01.26-.09-.12-.18-.21-.22-.31-.06-.11-.08-.28-.09-.34s-.06-.07-.07 0c-.01.08 0 .26-.03.38-.02.11.02.34.06.43.03.09.01.21-.02.3-.01.02 0 .06.02.11-.12.06-.25.14-.35.24-.2.19-.69.74-.82.9s-.76.9-.89 1.1c-.13.19-.44.58-.49.72-.07.17-.05.3.06.46"/><path d="m91.27 61.55c.05-.14.16-.5.28-.93-.01.08-.01.16-.02.25-.01.23-.06.75-.09 1.27-.08-.21-.14-.41-.17-.59m-18.83-5.34c.11.17-.04.27.04.38.07.11.23.2.33.2.1.01.1.13.19.14s.59.01.68-.1.05-.22.14-.28c.08-.06.48-.33.62-.35s.48-.27.55-.32.08-.11.13-.11.61.07.82-.19c.06-.07.38 0 .63.25.24.25 1.87 3.02 1.96 3.83.09.89.57 1.54.85 1.84.03.27.1.63.23 1.07.21.71.39 1.74.42 2.34s.15.81.15 1.11.09 1.49-.03 1.83-.55.53-.6.79c-.15.1-.36.3-.39.33-.02.03-.09.09.08.11s.72.07.79.07c.07-.01.33 0 .43-.2s-.09-.26-.13-.31.14-.23.18-.28.18-.29.29-.33c.12-.04.23-.1.22-.33s-.16-1.56-.17-1.73c-.01-.16-.04-.67.01-.83s.02-.33.07-.78c.03-.27.04-.24.07-.31.09.08.21.47.24.85.05.6.18.81.2 1.11.01.3.16 1.48.05 1.83s-.52.55-.56.81c-.15.11-.35.32-.37.35s-.09.09.09.11c.17.02.73.04.79.03s.33-.01.42-.22-.11-.26-.15-.31.13-.24.17-.29.17-.29.28-.34.23-.11.21-.34-.22-1.56-.24-1.72-.07-.66-.03-.83.1-.33.04-.79c-.07-.46-.09-1.18-.07-1.53.01-.17.02-.45.02-.71.14.04.6.03 1.64.11 1.13.1 2.15-.14 2.8-.34.32-.1.77-.29 1.16-.46.36-.16.78.03.91.4.16.5.33.94.42 1.1.21.35.65 1.73.79 2.08s.07 1.67.07 1.82-.04.54-.03.65c.01.12-.04.62-.09.79-.05.18-.36.29-.55.52s-.33.52-.24.57c.09.06.6.03.93.05s.52-.09.48-.19c-.03-.11-.16-.68.01-.9s.48-.51.37-.85c-.16-.49-.02-1.5-.05-1.84-.03-.33.02-1.14.14-1.61.21.43.42.87.52 1.04.18.33.27 1.64.29 1.79s.02.54.04.65.03.62.01.8-.32.33-.48.58-.27.43-.18.48.61.08.94.06.5-.15.46-.25c-.05-.1-.24-.65-.1-.89s.43-.57.26-.89c-.23-.45-.15-.92-.21-1.39.1-.08.19-.21.27-.41.32-.78.33-1.81.3-2.32-.03-.52-.44-2.88-.64-3.98-.16-.89-.25-1.15-.48-1.51-.12-.2-.29-.36-.49-.49-.25-.16-.61-.38-.85-.45-.4-.12-1.39-.39-1.75-.41-.35-.02-1.04.06-1.7.17-.66.12-2.31.27-3.33.08-.67-.13-2.91-1.54-3.14-1.73-.23-.18-1.56-.94-1.82-1.11-.27-.16-1.33-.59-1.53-.69s-1.05-.41-1.26-.45c-.02-.01-.05-.01-.07-.01-.07-.13-.12-.24-.17-.32-.1-.16-.22-.27-.28-.39s-.08-.28-.09-.34-.06-.07-.07 0c-.01.08 0 .26-.03.38-.01.07 0 .17.01.26-.09-.12-.18-.21-.22-.31-.06-.11-.08-.28-.09-.34s-.06-.07-.07 0c-.01.08 0 .26-.03.38-.02.11.02.34.06.43.03.09.01.21-.02.3-.01.02 0 .06.02.11-.12.06-.25.14-.35.24-.2.19-.69.74-.82.9s-.76.9-.89 1.1c-.13.19-.44.58-.49.72-.06.17-.05.3.06.46"/><path d="m117.34 61.55c.05-.14.16-.5.28-.93-.01.08-.01.16-.02.25-.01.23-.06.75-.09 1.27-.08-.21-.14-.41-.17-.59m-18.83-5.34c.11.17-.04.27.04.38.07.11.23.2.33.2.1.01.1.13.19.14s.59.01.68-.1.05-.22.14-.28c.08-.06.48-.33.62-.35s.48-.27.55-.32.08-.11.13-.11.61.07.82-.19c.06-.07.38 0 .63.25.24.25 1.87 3.02 1.96 3.83.09.89.57 1.54.85 1.84.03.27.1.63.23 1.07.21.71.39 1.74.42 2.34s.15.81.15 1.11.09 1.49-.03 1.83-.55.53-.6.79c-.15.1-.36.3-.39.33-.02.03-.09.09.08.11s.72.07.79.07c.07-.01.33 0 .43-.2s-.09-.26-.13-.31.14-.23.18-.28.18-.29.29-.33c.12-.04.23-.1.22-.33s-.16-1.56-.17-1.73c-.01-.16-.04-.67.01-.83s.02-.33.07-.78c.03-.27.04-.24.07-.31.09.08.21.47.24.85.05.6.18.81.2 1.11.01.3.16 1.48.05 1.83s-.52.55-.56.81c-.15.11-.35.32-.37.35s-.09.09.09.11c.17.02.73.04.79.03s.33-.01.42-.22-.11-.26-.15-.31.13-.24.17-.29.17-.29.28-.34.23-.11.21-.34-.22-1.56-.24-1.72-.07-.66-.03-.83.1-.33.04-.79c-.07-.46-.09-1.18-.07-1.53.01-.17.02-.45.02-.71.14.04.6.03 1.64.11 1.13.1 2.15-.14 2.8-.34.32-.1.77-.29 1.16-.46.36-.16.78.03.91.4.16.5.33.94.42 1.1.21.35.65 1.73.79 2.08s.07 1.67.07 1.82-.04.54-.03.65c.01.12-.04.62-.09.79-.05.18-.36.29-.55.52s-.33.52-.24.57c.09.06.6.03.93.05s.52-.09.48-.19c-.03-.11-.16-.68.01-.9s.48-.51.37-.85c-.16-.49-.02-1.5-.05-1.84-.03-.33.02-1.14.14-1.61.21.43.42.87.52 1.04.18.33.27 1.64.29 1.79s.02.54.04.65.03.62.01.8-.32.33-.48.58-.27.43-.18.48.61.08.94.06.5-.15.46-.25c-.05-.1-.24-.65-.1-.89s.43-.57.26-.89c-.23-.45-.15-.92-.21-1.39.1-.08.19-.21.27-.41.32-.78.33-1.81.3-2.32-.03-.52-.44-2.88-.64-3.98-.16-.89-.25-1.15-.48-1.51-.12-.2-.29-.36-.49-.49-.25-.16-.61-.38-.85-.45-.4-.12-1.39-.39-1.75-.41-.35-.02-1.04.06-1.7.17-.66.12-2.31.27-3.33.08-.67-.13-2.91-1.54-3.14-1.73-.23-.18-1.56-.94-1.82-1.11-.27-.16-1.33-.59-1.53-.69s-1.05-.41-1.26-.45c-.02-.01-.05-.01-.07-.01-.07-.13-.12-.24-.17-.32-.1-.16-.22-.27-.28-.39s-.08-.28-.09-.34-.06-.07-.07 0c-.01.08 0 .26-.03.38-.01.07 0 .17.01.26-.09-.12-.18-.21-.22-.31-.06-.11-.08-.28-.09-.34s-.06-.07-.07 0c-.01.08 0 .26-.03.38s.02.34.06.43c.03.09.01.21-.02.3-.01.02 0 .06.02.11-.12.06-.25.14-.35.24-.2.19-.69.74-.82.9s-.76.9-.89 1.1c-.13.19-.44.58-.49.72-.06.17-.04.3.06.46"/><path d="m143.41 61.55c.05-.14.16-.5.28-.93-.01.08-.01.16-.02.25-.01.23-.06.75-.09 1.27-.07-.21-.13-.41-.17-.59m-18.83-5.34c.11.17-.04.27.04.38.07.11.23.2.33.2.1.01.1.13.19.14s.59.01.68-.1.05-.22.14-.28c.08-.06.48-.33.62-.35s.48-.27.55-.32.08-.11.13-.11.61.07.82-.19c.06-.07.38 0 .63.25.24.25 1.87 3.02 1.96 3.83.09.89.57 1.54.85 1.84.03.27.1.63.23 1.07.21.71.39 1.74.42 2.34s.15.81.15 1.11.09 1.49-.03 1.83-.55.53-.6.79c-.15.1-.36.3-.39.33-.02.03-.09.09.08.11s.72.07.79.07c.07-.01.33 0 .43-.2s-.09-.26-.13-.31.14-.23.18-.28.18-.29.29-.33c.12-.04.23-.1.22-.33s-.16-1.56-.17-1.73c-.01-.16-.04-.67.01-.83s.02-.33.07-.78c.03-.27.04-.24.07-.31.09.08.21.47.24.85.05.6.18.81.2 1.11.01.3.16 1.48.05 1.83s-.52.55-.56.81c-.15.11-.35.32-.37.35s-.09.09.09.11c.17.02.73.04.79.03s.33-.01.42-.22-.11-.26-.15-.31.13-.24.17-.29.17-.29.28-.34.23-.11.21-.34-.22-1.56-.24-1.72-.07-.66-.03-.83.1-.33.04-.79c-.07-.46-.09-1.18-.07-1.53.01-.17.02-.45.02-.71.14.04.6.03 1.64.11 1.13.1 2.15-.14 2.8-.34.32-.1.77-.29 1.16-.46.36-.16.78.03.91.4.16.5.33.94.42 1.1.21.35.65 1.73.79 2.08s.07 1.67.07 1.82-.04.54-.03.65c.01.12-.04.62-.09.79-.05.18-.36.29-.55.52s-.33.52-.24.57c.09.06.6.03.93.05s.52-.09.48-.19c-.03-.11-.16-.68.01-.9s.48-.51.37-.85c-.16-.49-.02-1.5-.05-1.84-.03-.33.02-1.14.14-1.61.21.43.42.87.52 1.04.18.33.27 1.64.29 1.79s.02.54.04.65.03.62.01.8-.32.33-.48.58-.27.43-.18.48.61.08.94.06.5-.15.46-.25c-.05-.1-.24-.65-.1-.89s.43-.57.26-.89c-.23-.45-.15-.92-.21-1.39.1-.08.19-.21.27-.41.32-.78.33-1.81.3-2.32-.03-.52-.44-2.88-.64-3.98-.16-.89-.25-1.15-.48-1.51-.12-.2-.29-.36-.49-.49-.25-.16-.61-.38-.85-.45-.4-.12-1.39-.39-1.75-.41-.35-.02-1.04.06-1.7.17-.66.12-2.31.27-3.33.08-.67-.13-2.91-1.54-3.14-1.73-.23-.18-1.56-.94-1.82-1.11-.27-.16-1.33-.59-1.53-.69s-1.05-.41-1.26-.45c-.02-.01-.05-.01-.07-.01-.07-.13-.12-.24-.17-.32-.1-.16-.22-.27-.28-.39s-.08-.28-.09-.34-.06-.07-.07 0c-.01.08 0 .26-.03.38-.01.07 0 .17.01.26-.09-.12-.18-.21-.22-.31-.06-.11-.08-.28-.09-.34s-.06-.07-.07 0c-.01.08 0 .26-.03.38s.02.34.06.43c.03.09.01.21-.02.3-.01.02 0 .06.02.11-.12.06-.25.14-.35.24-.2.19-.69.74-.82.9s-.76.9-.89 1.1c-.13.19-.44.58-.49.72-.06.17-.04.3.06.46"/><path d="m169.49 61.55c.05-.14.16-.5.28-.93-.01.08-.01.16-.02.25-.01.23-.06.75-.09 1.27-.08-.21-.14-.41-.17-.59m-18.83-5.34c.11.17-.04.27.04.38.07.11.23.2.33.2.1.01.1.13.19.14s.59.01.68-.1.05-.22.14-.28c.08-.06.48-.33.62-.35s.48-.27.55-.32.08-.11.13-.11.61.07.82-.19c.06-.07.38 0 .63.25.24.25 1.87 3.02 1.96 3.83.09.89.57 1.54.85 1.84.03.27.1.63.23 1.07.21.71.39 1.74.42 2.34s.15.81.15 1.11.09 1.49-.03 1.83-.55.53-.6.79c-.15.1-.36.3-.39.33-.02.03-.09.09.08.11s.72.07.79.07c.07-.01.33 0 .43-.2s-.09-.26-.13-.31.14-.23.18-.28.18-.29.29-.33c.12-.04.23-.1.22-.33s-.16-1.56-.17-1.73c-.01-.16-.04-.67.01-.83s.02-.33.07-.78c.03-.27.04-.24.07-.31.09.08.21.47.24.85.05.6.18.81.2 1.11.01.3.16 1.48.05 1.83s-.52.55-.56.81c-.15.11-.35.32-.37.35s-.09.09.09.11c.17.02.73.04.79.03s.33-.01.42-.22-.11-.26-.15-.31.13-.24.17-.29.17-.29.28-.34.23-.11.21-.34-.22-1.56-.24-1.72-.07-.66-.03-.83.1-.33.04-.79c-.07-.46-.09-1.18-.07-1.53.01-.17.02-.45.02-.71.14.04.6.03 1.64.11 1.13.1 2.15-.14 2.8-.34.32-.1.77-.29 1.16-.46.36-.16.78.03.91.4.16.5.33.94.42 1.1.21.35.65 1.73.79 2.08s.07 1.67.07 1.82-.04.54-.03.65c.01.12-.04.62-.09.79-.05.18-.36.29-.55.52s-.33.52-.24.57c.09.06.6.03.93.05s.52-.09.48-.19c-.03-.11-.16-.68.01-.9s.48-.51.37-.85c-.16-.49-.02-1.5-.05-1.84-.03-.33.02-1.14.14-1.61.21.43.42.87.52 1.04.18.33.27 1.64.29 1.79s.02.54.04.65.03.62.01.8-.32.33-.48.58-.27.43-.18.48.61.08.94.06.5-.15.46-.25c-.05-.1-.24-.65-.1-.89s.43-.57.26-.89c-.23-.45-.15-.92-.21-1.39.1-.08.19-.21.27-.41.32-.78.33-1.81.3-2.32-.03-.52-.44-2.88-.64-3.98-.16-.89-.25-1.15-.48-1.51-.12-.2-.29-.36-.49-.49-.25-.16-.61-.38-.85-.45-.4-.12-1.39-.39-1.75-.41-.35-.02-1.04.06-1.7.17-.66.12-2.31.27-3.33.08-.67-.13-2.91-1.54-3.14-1.73-.23-.18-1.56-.94-1.82-1.11-.27-.16-1.33-.59-1.53-.69s-1.05-.41-1.26-.45c-.02-.01-.05-.01-.07-.01-.07-.13-.12-.24-.17-.32-.1-.16-.22-.27-.28-.39s-.08-.28-.09-.34-.06-.07-.07 0c-.01.08 0 .26-.03.38-.01.07 0 .17.01.26-.09-.12-.18-.21-.22-.31-.06-.11-.08-.28-.09-.34s-.06-.07-.07 0c-.01.08 0 .26-.03.38s.02.34.06.43c.03.09.01.21-.02.3-.01.02 0 .06.02.11-.12.06-.25.14-.35.24-.2.19-.69.74-.82.9s-.76.9-.89 1.1c-.13.19-.44.58-.49.72-.06.17-.05.3.06.46"/><path d="m195.56 61.55c.05-.14.16-.5.28-.93-.01.08-.01.16-.02.25-.01.23-.06.75-.09 1.27-.08-.21-.14-.41-.17-.59m-18.83-5.34c.11.17-.04.27.04.38.07.11.23.2.33.2.1.01.1.13.19.14s.59.01.68-.1.05-.22.14-.28c.08-.06.48-.33.62-.35s.48-.27.55-.32.08-.11.13-.11.61.07.82-.19c.06-.07.38 0 .63.25.24.25 1.87 3.02 1.96 3.83.09.89.57 1.54.85 1.84.03.27.1.63.23 1.07.21.71.39 1.74.42 2.34s.15.81.15 1.11.09 1.49-.03 1.83-.55.53-.6.79c-.15.1-.36.3-.39.33-.02.03-.09.09.08.11s.72.07.79.07c.07-.01.33 0 .43-.2s-.09-.26-.13-.31.14-.23.18-.28.18-.29.29-.33c.12-.04.23-.1.22-.33s-.16-1.56-.17-1.73c-.01-.16-.04-.67.01-.83s.02-.33.07-.78c.03-.27.04-.24.07-.31.09.08.21.47.24.85.05.6.18.81.2 1.11.01.3.16 1.48.05 1.83s-.52.55-.56.81c-.15.11-.35.32-.37.35s-.09.09.09.11c.17.02.73.04.79.03s.33-.01.42-.22-.11-.26-.15-.31.13-.24.17-.29.17-.29.28-.34.23-.11.21-.34-.22-1.56-.24-1.72-.07-.66-.03-.83.1-.33.04-.79c-.07-.46-.09-1.18-.07-1.53.01-.17.02-.45.02-.71.14.04.6.03 1.64.11 1.13.1 2.15-.14 2.8-.34.32-.1.77-.29 1.16-.46.36-.16.78.03.91.4.16.5.33.94.42 1.1.21.35.65 1.73.79 2.08s.07 1.67.07 1.82-.04.54-.03.65c.01.12-.04.62-.09.79-.05.18-.36.29-.55.52s-.33.52-.24.57c.09.06.6.03.93.05s.52-.09.48-.19c-.03-.11-.16-.68.01-.9s.48-.51.37-.85c-.16-.49-.02-1.5-.05-1.84-.03-.33.02-1.14.14-1.61.21.43.42.87.52 1.04.18.33.27 1.64.29 1.79s.02.54.04.65.03.62.01.8-.32.33-.48.58-.27.43-.18.48.61.08.94.06.5-.15.46-.25c-.05-.1-.24-.65-.1-.89s.43-.57.26-.89c-.23-.45-.15-.92-.21-1.39.1-.08.19-.21.27-.41.32-.78.33-1.81.3-2.32-.03-.52-.44-2.88-.64-3.98-.16-.89-.25-1.15-.48-1.51-.12-.2-.29-.36-.49-.49-.25-.16-.61-.38-.85-.45-.4-.12-1.39-.39-1.75-.41-.35-.02-1.04.06-1.7.17-.66.12-2.31.27-3.33.08-.67-.13-2.91-1.54-3.14-1.73-.23-.18-1.56-.94-1.82-1.11-.27-.16-1.33-.59-1.53-.69s-1.05-.41-1.26-.45c-.02-.01-.05-.01-.07-.01-.07-.13-.12-.24-.17-.32-.1-.16-.22-.27-.28-.39s-.08-.28-.09-.34-.06-.07-.07 0c-.01.08 0 .26-.03.38-.01.07 0 .17.01.26-.09-.12-.18-.21-.22-.31-.06-.11-.08-.28-.09-.34s-.06-.07-.07 0c-.01.08 0 .26-.03.38-.02.11.02.34.06.43.03.09.01.21-.02.3-.01.02 0 .06.02.11-.12.06-.25.14-.35.24-.2.19-.69.74-.82.9s-.76.9-.89 1.1c-.13.19-.44.58-.49.72-.06.17-.04.3.06.46"/><path d="m221.64 61.55c.05-.14.16-.5.28-.93-.01.08-.01.16-.02.25-.01.23-.06.75-.09 1.27-.08-.21-.14-.41-.17-.59m-18.83-5.34c.11.17-.04.27.04.38s.23.2.33.2c.1.01.1.13.19.14s.59.01.68-.1.05-.22.14-.28c.08-.06.48-.33.62-.35s.48-.27.55-.32.08-.11.13-.11.61.07.82-.19c.06-.07.38 0 .63.25.24.25 1.87 3.02 1.96 3.83.09.89.57 1.54.85 1.84.03.27.1.63.23 1.07.21.71.39 1.74.42 2.34s.15.81.15 1.11.09 1.49-.03 1.83-.55.53-.6.79c-.15.1-.36.3-.39.33-.02.03-.09.09.08.11s.72.07.79.07c.07-.01.33 0 .43-.2s-.09-.26-.13-.31.14-.23.18-.28.18-.29.29-.33c.12-.04.23-.1.22-.33s-.16-1.56-.17-1.73c-.01-.16-.04-.67.01-.83s.02-.33.07-.78c.03-.27.04-.24.07-.31.09.08.21.47.24.85.05.6.18.81.2 1.11.01.3.16 1.48.05 1.83s-.52.55-.56.81c-.15.11-.35.32-.37.35s-.09.09.09.11c.17.02.73.04.79.03s.33-.01.42-.22-.11-.26-.15-.31.13-.24.17-.29.17-.29.28-.34.23-.11.21-.34-.22-1.56-.24-1.72-.07-.66-.03-.83.1-.33.04-.79c-.07-.46-.09-1.18-.07-1.53.01-.17.02-.45.02-.71.14.04.6.03 1.64.11 1.13.1 2.15-.14 2.8-.34.32-.1.77-.29 1.16-.46.36-.16.78.03.91.4.16.5.33.94.42 1.1.21.35.65 1.73.79 2.08s.07 1.67.07 1.82-.04.54-.03.65c.01.12-.04.62-.09.79-.05.18-.36.29-.55.52s-.33.52-.24.57c.09.06.6.03.93.05s.52-.09.48-.19c-.03-.11-.16-.68.01-.9s.48-.51.37-.85c-.16-.49-.02-1.5-.05-1.84-.03-.33.02-1.14.14-1.61.21.43.42.87.52 1.04.18.33.27 1.64.29 1.79s.02.54.04.65.03.62.01.8-.32.33-.48.58-.27.43-.18.48.61.08.94.06.5-.15.46-.25c-.05-.1-.24-.65-.1-.89s.43-.57.26-.89c-.23-.45-.15-.92-.21-1.39.1-.08.19-.21.27-.41.32-.78.33-1.81.3-2.32-.03-.52-.44-2.88-.64-3.98-.16-.89-.25-1.15-.48-1.51-.12-.2-.29-.36-.49-.49-.25-.16-.61-.38-.85-.45-.4-.12-1.39-.39-1.75-.41-.35-.02-1.04.06-1.7.17-.66.12-2.31.27-3.33.08-.67-.13-2.91-1.54-3.14-1.73-.23-.18-1.56-.94-1.82-1.11-.27-.16-1.33-.59-1.53-.69s-1.05-.41-1.26-.45c-.02-.01-.05-.01-.07-.01-.07-.13-.12-.24-.17-.32-.1-.16-.22-.27-.28-.39s-.08-.28-.09-.34-.06-.07-.07 0c-.01.08 0 .26-.03.38-.01.07 0 .17.01.26-.09-.12-.18-.21-.22-.31-.06-.11-.08-.28-.09-.34s-.06-.07-.07 0c-.01.08 0 .26-.03.38-.02.11.02.34.06.43.03.09.01.21-.02.3-.01.02 0 .06.02.11-.12.06-.25.14-.35.24-.2.19-.69.74-.82.9s-.76.9-.89 1.1c-.13.19-.44.58-.49.72-.07.17-.05.3.06.46"/><path d="m46.75 67.15c-.11-.16-.17-.4-.17-.72s.06-.56.16-.73c.11-.17.26-.25.46-.25.24 0 .42.08.52.23.11.15.16.4.16.75v.1c-.01.32-.07.54-.17.67-.11.13-.27.2-.5.2-.19-.01-.35-.09-.46-.25m1.09.47h.04l.17.42h.68v-4.52h-.89v1.04c0 .19.02.41.07.65h-.03c-.21-.32-.53-.48-.94-.48-.39 0-.7.15-.92.45s-.33.71-.33 1.25c0 .53.11.94.33 1.23.22.3.52.44.9.44.41-.01.71-.16.92-.48m-3.1-1.7c0-.39-.1-.68-.29-.89-.2-.2-.48-.31-.86-.31-.22 0-.42.04-.59.12s-.31.2-.41.36h-.05l-.12-.42h-.68v3.25h.89v-1.53c0-.38.06-.66.17-.82.11-.17.29-.25.54-.25.18 0 .31.06.4.18.08.12.13.29.13.53v1.9h.89v-2.12zm-5 .88c0 .2-.06.35-.18.47s-.29.18-.49.18c-.29 0-.43-.13-.43-.37 0-.17.06-.3.19-.39s.32-.13.58-.14l.34-.01v.26zm.88 1.24v-2.17c0-.39-.12-.68-.35-.87s-.57-.28-1-.28c-.46 0-.87.1-1.24.29l.29.6c.35-.16.66-.24.92-.24.34 0 .51.16.51.49v.14l-.56.02c-.49.02-.85.11-1.09.27s-.36.42-.36.76c0 .33.09.58.27.76s.43.27.74.27c.25 0 .46-.04.62-.11s.31-.2.46-.39h.02l.15.46zm-3.83-4.53h-.89v4.52h.89zm-2.53 4.53c.18-.04.34-.1.5-.17v-.69c-.19.09-.37.15-.55.19-.17.04-.36.06-.56.06-.25 0-.45-.07-.59-.21s-.21-.34-.22-.59h2.1v-.43c0-.46-.13-.82-.38-1.08-.26-.26-.61-.39-1.07-.39-.48 0-.86.15-1.13.45s-.41.72-.41 1.26c0 .53.15.94.44 1.23s.7.43 1.23.43c.25-.01.46-.02.64-.06m-.33-2.5c.11.12.17.29.17.51h-1.24c.02-.22.08-.39.18-.51.11-.12.25-.18.44-.18s.34.06.45.18m-2.93.38c0-.39-.1-.68-.29-.89-.2-.2-.48-.31-.86-.31-.22 0-.42.04-.59.12s-.31.2-.41.36h-.05l-.12-.42h-.68v3.25h.89v-1.53c0-.38.06-.66.17-.82.11-.17.29-.25.54-.25.18 0 .31.06.4.18.08.12.13.29.13.53v1.9h.87zm-4.65 2.12c.18-.04.34-.1.5-.17v-.69c-.19.09-.37.15-.55.19-.17.04-.36.06-.56.06-.25 0-.45-.07-.59-.21s-.21-.34-.22-.59h2.1v-.43c0-.46-.13-.82-.38-1.08-.26-.26-.61-.39-1.07-.39-.48 0-.86.15-1.13.45s-.41.72-.41 1.26c0 .53.15.94.44 1.23s.7.43 1.23.43c.25-.01.46-.02.64-.06m-.32-2.5c.11.12.17.29.17.51h-1.24c.02-.22.08-.39.18-.51.11-.12.25-.18.44-.18s.34.06.45.18m-3.46 2.5c.18-.04.34-.1.5-.17v-.69c-.19.09-.37.15-.55.19-.17.04-.36.06-.56.06-.25 0-.45-.07-.59-.21s-.21-.34-.22-.59h2.1v-.43c0-.46-.13-.82-.38-1.08s-.61-.39-1.07-.39c-.48 0-.86.15-1.13.45s-.41.72-.41 1.26c0 .53.15.94.44 1.23s.7.43 1.23.43c.25-.01.47-.02.64-.06m-.32-2.5c.11.12.17.29.17.51h-1.24c.02-.22.08-.39.18-.51.11-.12.25-.18.44-.18s.34.06.45.18m-3.9.13 1.48-1.88h-1l-1.15 1.44-.35.5v-1.94h-.9v4.25h.9v-1.52l.38-.27 1.11 1.79h1.02z"/><path d="m42.31 60.45c-.07-.06-.11-.15-.11-.28v-1.57h.91v-.67h-.91v-.69h-.57l-.26.69-.49.3v.37h.42v1.57c0 .36.08.63.24.81s.42.27.77.27c.32 0 .59-.05.81-.15v-.66c-.22.07-.4.1-.56.1-.08 0-.18-.03-.25-.09m-3.08-.5c0 .2-.06.35-.18.47s-.29.18-.49.18c-.29 0-.43-.13-.43-.37 0-.17.06-.3.19-.39s.32-.13.58-.14l.34-.01v.26zm.88 1.24v-2.17c0-.39-.12-.68-.35-.87s-.57-.28-1-.28c-.46 0-.87.1-1.24.29l.29.6c.35-.16.66-.24.92-.24.34 0 .51.16.51.49v.14l-.56.02c-.49.02-.85.11-1.09.27s-.36.42-.36.76c0 .33.09.58.27.76s.42.27.74.27c.25 0 .46-.04.62-.11s.31-.2.46-.39h.02l.17.44h.6zm-7.49-.89c-.11-.16-.17-.4-.17-.72s.05-.56.16-.73.26-.25.46-.25c.24 0 .42.08.52.23.11.15.16.4.16.75v.1c-.01.32-.07.54-.17.67-.11.13-.27.2-.5.2-.19-.01-.35-.09-.46-.25m1.09.47h.04l.17.42h.68v-4.52h-.89v1.04c0 .19.02.41.07.65h-.03c-.22-.32-.53-.48-.94-.48-.39 0-.69.15-.92.45-.22.3-.33.71-.33 1.25 0 .53.11.94.33 1.23.22.3.52.45.9.45.41-.01.71-.17.92-.49m-3.13-4.1h-.89v4.52h.89zm-2.04 2c-.13-.25-.31-.45-.55-.58-.24-.14-.51-.2-.83-.2-.5 0-.89.15-1.17.44s-.42.71-.42 1.24c0 .34.06.64.19.9s.31.45.55.59.51.21.83.21c.5 0 .89-.15 1.17-.45s.42-.71.42-1.24c0-.36-.07-.66-.19-.91m-1.9.17c.1-.16.28-.24.51-.24.24 0 .41.08.51.24s.16.4.16.72-.05.57-.16.73c-.1.16-.27.25-.51.25s-.41-.08-.52-.25c-.11-.16-.16-.41-.16-.73.01-.32.06-.56.17-.72m-2.08.47c-.15-.19-.42-.38-.82-.57-.3-.14-.49-.24-.57-.3s-.14-.11-.18-.17-.06-.13-.06-.21c0-.13.05-.23.14-.31s.22-.12.39-.12c.14 0 .29.02.44.06s.34.1.56.19l.29-.7c-.22-.1-.43-.17-.63-.22s-.41-.08-.63-.08c-.45 0-.8.11-1.06.32-.25.21-.38.51-.38.89 0 .2.04.37.12.52s.18.28.31.39.32.23.58.35c.28.13.46.23.55.29s.16.12.21.19.07.14.07.22c0 .15-.05.26-.16.34s-.26.11-.45.11c-.17 0-.35-.03-.55-.08s-.44-.14-.73-.27v.84c.35.17.75.26 1.2.26.49 0 .88-.11 1.15-.33s.41-.52.41-.91c.02-.28-.05-.51-.2-.7"/><path d="m35.08 51.13h.29c-.13-.45-.19-1-.19-1.45-.03-1.83.93-3.25 2.8-3.25 3.5 0 5.14 5.08 9.16 5.08 3.05 0 3.99-2.99 3.99-5.79 0-1.32-.19-2.64-.42-3.57h-.19c.1.45.13.87.13 1.22 0 2.06-1.32 2.7-3.25 2.7-2.15 0-4.24-.84-6.88-.84-2.76 0-4.4.93-5.11 2.48.23-.58.58-1.13 1.06-1.67 4.6-4.95 14.08-3.79 14.08-9.67 0-3.7-3.7-5.5-7.97-5.5-5.5 0-8.29 2.96-8.29 5.4 0 1.48 1.03 2.89 2.67 2.89 1.51 0 2.7-1.22 2.7-2.8 0-1.41-.96-2.54-2.22-2.76.58-1.32 1.7-2.38 3.7-2.38 2.41 0 3.66 1.61 3.66 4.08 0 5.14-5.4 7.14-8.32 10.29-1.53 1.62-1.89 3.04-1.4 5.54m-20.54 0h.29c-.13-.45-.19-1-.19-1.45-.03-1.83.93-3.25 2.8-3.25 3.5 0 5.14 5.08 9.16 5.08 3.05 0 3.99-2.99 3.99-5.79 0-1.32-.19-2.64-.42-3.57h-.19c.1.45.13.87.13 1.22 0 2.06-1.32 2.7-3.25 2.7-2.15 0-4.24-.84-6.88-.84-2.76 0-4.4.93-5.11 2.48.22-.58.58-1.13 1.06-1.67 4.59-4.94 14.07-3.78 14.07-9.66 0-3.7-3.7-5.5-7.97-5.5-5.5 0-8.29 2.96-8.29 5.4 0 1.48 1.03 2.89 2.67 2.89 1.51 0 2.7-1.22 2.7-2.8 0-1.41-.96-2.54-2.22-2.76.58-1.32 1.7-2.38 3.7-2.38 2.41 0 3.66 1.61 3.66 4.08 0 5.14-5.4 7.14-8.33 10.29-1.5 1.61-1.86 3.03-1.38 5.53"/><path d="m291.57 66.66c-.06-.12-.14-.22-.26-.31s-.3-.19-.56-.29c-.28-.11-.47-.2-.55-.26s-.13-.13-.13-.21c0-.14.13-.21.39-.21.15 0 .29.02.43.07.14.04.29.1.46.17l.27-.64c-.37-.17-.75-.26-1.14-.26-.41 0-.73.08-.95.24s-.34.38-.34.67c0 .17.03.31.08.43s.14.22.26.31.3.19.55.29c.17.07.31.14.42.19.1.06.18.1.22.15.04.04.06.1.06.17 0 .19-.16.28-.48.28-.16 0-.34-.03-.55-.08s-.39-.12-.56-.19v.73c.15.06.3.11.47.14s.37.05.6.05c.46 0 .81-.09 1.04-.26s.35-.43.35-.76c0-.16-.02-.3-.08-.42m-3.87 1.39c.18-.04.34-.1.5-.17v-.69c-.19.09-.37.15-.55.19-.17.04-.36.06-.56.06-.25 0-.45-.07-.59-.21s-.21-.34-.22-.59h2.1v-.43c0-.46-.13-.82-.38-1.08-.26-.26-.61-.39-1.07-.39-.48 0-.86.15-1.13.45s-.41.72-.41 1.26c0 .53.15.94.44 1.23s.7.43 1.23.43c.25-.01.47-.03.64-.06m-.32-2.51c.11.12.17.29.17.51h-1.24c.02-.22.08-.39.18-.51.11-.12.25-.18.44-.18s.34.06.45.18m-2.96-2.02h-.89v4.52h.89zm-2.88 3.29c0 .2-.06.35-.18.47s-.29.18-.49.18c-.29 0-.43-.13-.43-.37 0-.17.06-.3.19-.39s.32-.13.58-.14l.34-.01v.26zm.88 1.23v-2.17c0-.39-.12-.68-.35-.87s-.57-.28-1-.28c-.46 0-.87.1-1.24.29l.29.6c.35-.16.66-.24.92-.24.34 0 .51.16.51.49v.14l-.56.02c-.49.02-.85.11-1.09.27s-.36.42-.36.76c0 .33.09.58.27.76s.43.27.74.27c.25 0 .46-.04.62-.11s.31-.2.46-.39h.02l.17.44h.6zm-3.91-1.88c-.15-.19-.42-.38-.82-.57-.3-.14-.49-.24-.57-.3s-.14-.11-.18-.17-.06-.13-.06-.21c0-.13.05-.23.14-.31s.22-.12.39-.12c.14 0 .29.02.44.06s.34.1.56.19l.29-.7c-.22-.1-.43-.17-.63-.22s-.41-.08-.63-.08c-.45 0-.8.11-1.06.32-.25.21-.38.51-.38.89 0 .2.04.37.12.52s.18.28.31.39.32.23.58.35c.28.13.46.23.55.29s.16.12.2.19c.05.07.07.14.07.22 0 .15-.05.26-.16.34s-.26.11-.46.11c-.16 0-.35-.03-.55-.08s-.44-.14-.73-.27v.84c.35.17.75.26 1.2.26.49 0 .88-.11 1.15-.33.28-.22.41-.52.41-.91.04-.27-.04-.51-.18-.7m-5.71-1.26c-.17.11-.31.26-.41.44h-.04l-.13-.55h-.67v3.25h.89v-1.65c0-.26.08-.47.24-.61.16-.15.38-.22.66-.22.1 0 .19.01.26.03l.07-.83c-.08-.02-.18-.03-.3-.03-.21 0-.4.06-.57.17m-2.91 3.15c.18-.04.34-.1.5-.17v-.69c-.19.09-.37.15-.55.19-.17.04-.36.06-.56.06-.25 0-.45-.07-.59-.21s-.21-.34-.22-.59h2.1v-.43c0-.46-.13-.82-.38-1.08-.26-.26-.61-.39-1.07-.39-.48 0-.86.15-1.13.45s-.41.72-.41 1.26c0 .53.15.94.44 1.23s.7.43 1.23.43c.25-.01.46-.03.64-.06m-.32-2.51c.11.12.17.29.17.51h-1.24c.02-.22.08-.39.18-.51.11-.12.25-.18.44-.18s.34.06.45.18m-2.93.39c0-.38-.1-.68-.3-.88-.2-.21-.49-.31-.87-.31-.43 0-.74.16-.94.48h-.05l.02-.26c.01-.27.02-.43.02-.51v-.92h-.89v4.52h.89v-1.53c0-.38.06-.65.17-.82s.29-.25.54-.25c.35 0 .52.23.52.7v1.9h.89zm-4.73 1.38c-.07-.06-.11-.15-.11-.28v-1.57h.91v-.67h-.91v-.69h-.57l-.26.69-.49.3v.37h.42v1.57c0 .36.08.63.24.81s.42.27.77.27c.32 0 .59-.05.81-.15v-.66c-.22.07-.4.1-.56.1-.08 0-.18-.03-.25-.09m-5.03-2.47c.18-.24.45-.36.81-.36.72 0 1.07.48 1.07 1.44s-.36 1.43-1.08 1.43c-.36 0-.63-.12-.81-.36s-.27-.6-.27-1.07c.01-.48.1-.84.28-1.08m2.31-.55c-.35-.38-.85-.56-1.5-.56s-1.15.19-1.5.56-.52.91-.52 1.62.17 1.25.52 1.63.85.57 1.5.57 1.15-.19 1.5-.57.52-.92.52-1.62c0-.71-.17-1.25-.52-1.63" fill="#808285"/><path d="m283.37 60.46c-.07-.06-.11-.15-.11-.28v-1.57h.91v-.67h-.91v-.69h-.57l-.26.69-.49.3v.37h.42v1.57c0 .36.08.63.24.81s.42.27.77.27c.32 0 .59-.05.81-.15v-.66c-.22.07-.4.1-.56.1-.08 0-.18-.03-.25-.09m-3.08-.5c0 .2-.06.35-.18.47s-.29.18-.49.18c-.29 0-.43-.13-.43-.37 0-.17.06-.3.19-.39s.32-.13.58-.14l.34-.01v.26zm.88 1.24v-2.17c0-.39-.12-.68-.35-.87s-.57-.28-1-.28c-.46 0-.87.1-1.24.29l.29.6c.35-.16.66-.24.92-.24.34 0 .51.16.51.49v.14l-.56.02c-.49.02-.85.11-1.09.27s-.36.42-.36.76c0 .33.09.58.27.76s.42.27.74.27c.25 0 .46-.04.62-.11s.31-.2.46-.39h.02l.17.44h.6zm-7.49-.89c-.11-.16-.17-.4-.17-.72s.05-.56.16-.73.26-.25.46-.25c.24 0 .42.08.52.23.11.15.16.4.16.75v.1c-.01.32-.07.54-.17.67-.11.13-.27.2-.5.2-.19-.01-.35-.09-.46-.25m1.09.47h.04l.17.42h.68v-4.52h-.89v1.04c0 .19.02.41.07.65h-.03c-.22-.32-.53-.48-.94-.48-.39 0-.69.15-.92.45-.22.3-.33.71-.33 1.25 0 .53.11.94.33 1.23.22.3.52.45.9.45.41-.01.71-.17.92-.49m-3.13-4.1h-.89v4.52h.89zm-2.05 2c-.13-.25-.31-.45-.55-.58-.24-.14-.51-.2-.83-.2-.5 0-.89.15-1.17.44s-.42.71-.42 1.24c0 .34.06.64.19.9s.31.45.55.59.51.21.83.21c.5 0 .89-.15 1.17-.45s.42-.71.42-1.24c.01-.36-.06-.66-.19-.91m-1.89.16c.1-.16.28-.24.51-.24.24 0 .41.08.51.24s.16.4.16.72-.05.57-.16.73c-.1.16-.27.25-.51.25s-.41-.08-.52-.25c-.11-.16-.16-.41-.16-.73.01-.32.06-.56.17-.72m-2.08.48c-.15-.19-.42-.38-.82-.57-.3-.14-.49-.24-.57-.3s-.14-.11-.18-.17-.06-.13-.06-.21c0-.13.05-.23.14-.31s.22-.12.39-.12c.14 0 .29.02.44.06s.34.1.56.19l.29-.7c-.22-.1-.43-.17-.63-.22s-.41-.08-.63-.08c-.45 0-.8.11-1.06.32-.25.21-.38.51-.38.89 0 .2.04.37.12.52s.18.28.31.39.32.23.58.35c.28.13.46.23.55.29s.16.12.21.19.07.14.07.22c0 .15-.05.26-.16.34s-.26.11-.45.11c-.17 0-.35-.03-.55-.08s-.44-.14-.73-.27v.84c.35.17.75.26 1.2.26.49 0 .88-.11 1.15-.33.28-.22.41-.52.41-.91.02-.28-.05-.51-.2-.7" fill="#808285"/><path d="m270.75 51.14h12.21v-.19c-1.99 0-3.21-.32-3.21-3.28v-1.67c1.99 0 2.35.32 2.7.32.29 0 .61-.19.61-.48 0-.26-.22-.51-.61-.51-.42 0-.58.35-2.7.39v-7.62h-.16l-5.24 4.82v2.8h-9.84l2.7-2.15c3.63-2.93 9.39-4.79 9.39-8.33 0-3.31-5.08-4.5-9.06-4.34 1.41 1.06 2.7 2.8 2.7 5.37 0 2.8-1.54 5.53-3.47 7.2l-2.77 2.37.06.13h10.29v1.41c0 2.96-1.29 3.57-3.6 3.57z" fill="#808285"/><g fill="none" stroke-width=".2666"><path d="m62.19 6.65v85.68" stroke="#000"/><path d="m61.59 6.65h1.2" stroke="#000"/><path d="m61.59 92.33h1.2" stroke="#000"/><path d="m299.4 6.65v85.68" stroke="#808285"/><path d="m298.8 6.65h1.2" stroke="#808285"/><path d="m298.8 92.33h1.2" stroke="#808285"/></g></svg>