<?xml version="1.0" encoding="utf-8"?>
<!-- Generator: Adobe Illustrator 24.1.0, SVG Export Plug-In . SVG Version: 6.00 Build 0)  -->
<svg version="1.1" id="Layer_1" xmlns="http://www.w3.org/2000/svg" xmlns:xlink="http://www.w3.org/1999/xlink" x="0px" y="0px"
	 viewBox="0 0 209.6 181.6" style="enable-background:new 0 0 209.6 181.6;" xml:space="preserve">
<style type="text/css">
	.st0{fill:none;stroke:#000000;stroke-width:0.2666;}
	.st1{fill:#808285;}
	.st2{fill:none;stroke:#808285;stroke-width:0.2666;}
</style>
<path d="M77.5,77c0.1-0.1,0.2-0.5,0.3-0.9c0,0.1,0,0.2,0,0.2c0,0.2-0.1,0.8-0.1,1.3C77.6,77.4,77.6,77.2,77.5,77 M58.7,71.7
	c0.1,0.2,0,0.3,0,0.4c0.1,0.1,0.2,0.2,0.3,0.2c0.1,0,0.1,0.1,0.2,0.1c0.1,0,0.6,0,0.7-0.1c0.1-0.1,0.1-0.2,0.1-0.3
	c0.1-0.1,0.5-0.3,0.6-0.3s0.5-0.3,0.6-0.3s0.1-0.1,0.1-0.1c0.1,0,0.6,0.1,0.8-0.2c0.1-0.1,0.4,0,0.6,0.2c0.2,0.2,1.9,3,2,3.8
	c0.1,0.9,0.6,1.5,0.8,1.8c0,0.3,0.1,0.6,0.2,1.1c0.2,0.7,0.4,1.7,0.4,2.3s0.2,0.8,0.2,1.1s0.1,1.5,0,1.8c-0.1,0.3-0.6,0.5-0.6,0.8
	c-0.2,0.1-0.4,0.3-0.4,0.3c0,0-0.1,0.1,0.1,0.1c0.2,0,0.7,0.1,0.8,0.1c0.1,0,0.3,0,0.4-0.2s-0.1-0.3-0.1-0.3c0-0.1,0.1-0.2,0.2-0.3
	c0-0.1,0.2-0.3,0.3-0.3c0.1,0,0.2-0.1,0.2-0.3s-0.2-1.6-0.2-1.7c0-0.2,0-0.7,0-0.8s0-0.3,0.1-0.8c0-0.3,0-0.2,0.1-0.3
	c0.1,0.1,0.2,0.5,0.2,0.8c0.1,0.6,0.2,0.8,0.2,1.1c0,0.3,0.2,1.5,0.1,1.8s-0.5,0.6-0.6,0.8c-0.2,0.1-0.3,0.3-0.4,0.3
	c0,0-0.1,0.1,0.1,0.1c0.2,0,0.7,0,0.8,0s0.3,0,0.4-0.2S68,84.1,68,84.1c0-0.1,0.1-0.2,0.2-0.3s0.2-0.3,0.3-0.3
	c0.1-0.1,0.2-0.1,0.2-0.3s-0.2-1.6-0.2-1.7s-0.1-0.7,0-0.8s0.1-0.3,0-0.8c-0.1-0.5-0.1-1.2-0.1-1.5c0-0.2,0-0.4,0-0.7
	c0.1,0,0.6,0,1.6,0.1c1.1,0.1,2.2-0.1,2.8-0.3c0.3-0.1,0.8-0.3,1.2-0.5c0.4-0.2,0.8,0,0.9,0.4c0.2,0.5,0.3,0.9,0.4,1.1
	c0.2,0.3,0.7,1.7,0.8,2.1s0.1,1.7,0.1,1.8s0,0.5,0,0.7c0,0.1,0,0.6-0.1,0.8c-0.1,0.2-0.4,0.3-0.6,0.5c-0.2,0.2-0.3,0.5-0.2,0.6
	c0.1,0.1,0.6,0,0.9,0.1c0.3,0,0.5-0.1,0.5-0.2c0-0.1-0.2-0.7,0-0.9c0.2-0.2,0.5-0.5,0.4-0.8c-0.2-0.5,0-1.5-0.1-1.8
	c0-0.3,0-1.1,0.1-1.6c0.2,0.4,0.4,0.9,0.5,1c0.2,0.3,0.3,1.6,0.3,1.8c0,0.2,0,0.5,0,0.7c0,0.1,0,0.6,0,0.8s-0.3,0.3-0.5,0.6
	s-0.3,0.4-0.2,0.5s0.6,0.1,0.9,0.1c0.3,0,0.5-0.2,0.5-0.2c-0.1-0.1-0.2-0.7-0.1-0.9s0.4-0.6,0.3-0.9c-0.2-0.4-0.2-0.9-0.2-1.4
	c0.1-0.1,0.2-0.2,0.3-0.4c0.3-0.8,0.3-1.8,0.3-2.3c0-0.5-0.4-2.9-0.6-4c-0.2-0.9-0.2-1.2-0.5-1.5c-0.1-0.2-0.3-0.4-0.5-0.5
	c-0.2-0.2-0.6-0.4-0.8-0.4c-0.4-0.1-1.4-0.4-1.8-0.4c-0.3,0-1,0.1-1.7,0.2c-0.7,0.1-2.3,0.3-3.3,0.1c-0.7-0.1-2.9-1.5-3.1-1.7
	s-1.6-0.9-1.8-1.1c-0.3-0.2-1.3-0.6-1.5-0.7c-0.2-0.1-1.1-0.4-1.3-0.4c0,0-0.1,0-0.1,0c-0.1-0.1-0.1-0.2-0.2-0.3
	c-0.1-0.2-0.2-0.3-0.3-0.4s-0.1-0.3-0.1-0.3s-0.1-0.1-0.1,0c0,0.1,0,0.3,0,0.4c0,0.1,0,0.2,0,0.3c-0.1-0.1-0.2-0.2-0.2-0.3
	c-0.1-0.1-0.1-0.3-0.1-0.3c0-0.1-0.1-0.1-0.1,0c0,0.1,0,0.3,0,0.4c0,0.1,0,0.3,0.1,0.4c0,0.1,0,0.2,0,0.3c0,0,0,0.1,0,0.1
	c-0.1,0.1-0.2,0.1-0.3,0.2c-0.2,0.2-0.7,0.7-0.8,0.9s-0.8,0.9-0.9,1.1c-0.1,0.2-0.4,0.6-0.5,0.7C58.6,71.4,58.6,71.5,58.7,71.7"/>
<path d="M103.6,77c0.1-0.1,0.2-0.5,0.3-0.9c0,0.1,0,0.2,0,0.2c0,0.2-0.1,0.8-0.1,1.3C103.7,77.4,103.6,77.2,103.6,77 M84.8,71.7
	c0.1,0.2,0,0.3,0,0.4c0.1,0.1,0.2,0.2,0.3,0.2c0.1,0,0.1,0.1,0.2,0.1c0.1,0,0.6,0,0.7-0.1c0.1-0.1,0.1-0.2,0.1-0.3
	c0.1-0.1,0.5-0.3,0.6-0.3s0.5-0.3,0.6-0.3s0.1-0.1,0.1-0.1c0.1,0,0.6,0.1,0.8-0.2c0.1-0.1,0.4,0,0.6,0.2c0.2,0.2,1.9,3,2,3.8
	c0.1,0.9,0.6,1.5,0.8,1.8c0,0.3,0.1,0.6,0.2,1.1c0.2,0.7,0.4,1.7,0.4,2.3s0.2,0.8,0.2,1.1s0.1,1.5,0,1.8c-0.1,0.3-0.6,0.5-0.6,0.8
	c-0.2,0.1-0.4,0.3-0.4,0.3c0,0-0.1,0.1,0.1,0.1c0.2,0,0.7,0.1,0.8,0.1c0.1,0,0.3,0,0.4-0.2s-0.1-0.3-0.1-0.3c0-0.1,0.1-0.2,0.2-0.3
	c0-0.1,0.2-0.3,0.3-0.3c0.1,0,0.2-0.1,0.2-0.3s-0.2-1.6-0.2-1.7c0-0.2,0-0.7,0-0.8s0-0.3,0.1-0.8c0-0.3,0-0.2,0.1-0.3
	c0.1,0.1,0.2,0.5,0.2,0.8c0.1,0.6,0.2,0.8,0.2,1.1c0,0.3,0.2,1.5,0.1,1.8s-0.5,0.6-0.6,0.8c-0.2,0.1-0.3,0.3-0.4,0.3
	c0,0-0.1,0.1,0.1,0.1c0.2,0,0.7,0,0.8,0s0.3,0,0.4-0.2s-0.1-0.3-0.2-0.3c0-0.1,0.1-0.2,0.2-0.3s0.2-0.3,0.3-0.3
	c0.1-0.1,0.2-0.1,0.2-0.3c0-0.2-0.2-1.6-0.2-1.7s-0.1-0.7,0-0.8s0.1-0.3,0-0.8c-0.1-0.5-0.1-1.2-0.1-1.5c0-0.2,0-0.4,0-0.7
	c0.1,0,0.6,0,1.6,0.1c1.1,0.1,2.2-0.1,2.8-0.3c0.3-0.1,0.8-0.3,1.2-0.5c0.4-0.2,0.8,0,0.9,0.4c0.2,0.5,0.3,0.9,0.4,1.1
	c0.2,0.3,0.7,1.7,0.8,2.1s0.1,1.7,0.1,1.8s0,0.5,0,0.7c0,0.1,0,0.6-0.1,0.8c-0.1,0.2-0.4,0.3-0.6,0.5c-0.2,0.2-0.3,0.5-0.2,0.6
	c0.1,0.1,0.6,0,0.9,0.1c0.3,0,0.5-0.1,0.5-0.2c0-0.1-0.2-0.7,0-0.9c0.2-0.2,0.5-0.5,0.4-0.8c-0.2-0.5,0-1.5-0.1-1.8
	c0-0.3,0-1.1,0.1-1.6c0.2,0.4,0.4,0.9,0.5,1c0.2,0.3,0.3,1.6,0.3,1.8c0,0.2,0,0.5,0,0.7c0,0.1,0,0.6,0,0.8s-0.3,0.3-0.5,0.6
	s-0.3,0.4-0.2,0.5s0.6,0.1,0.9,0.1c0.3,0,0.5-0.2,0.5-0.2c-0.1-0.1-0.2-0.7-0.1-0.9s0.4-0.6,0.3-0.9c-0.2-0.4-0.2-0.9-0.2-1.4
	c0.1-0.1,0.2-0.2,0.3-0.4c0.3-0.8,0.3-1.8,0.3-2.3c0-0.5-0.4-2.9-0.6-4c-0.2-0.9-0.2-1.2-0.5-1.5c-0.1-0.2-0.3-0.4-0.5-0.5
	c-0.2-0.2-0.6-0.4-0.8-0.4c-0.4-0.1-1.4-0.4-1.8-0.4c-0.3,0-1,0.1-1.7,0.2c-0.7,0.1-2.3,0.3-3.3,0.1c-0.7-0.1-2.9-1.5-3.1-1.7
	c-0.2-0.2-1.6-0.9-1.8-1.1c-0.3-0.2-1.3-0.6-1.5-0.7c-0.2-0.1-1.1-0.4-1.3-0.4c0,0-0.1,0-0.1,0c-0.1-0.1-0.1-0.2-0.2-0.3
	c-0.1-0.2-0.2-0.3-0.3-0.4s-0.1-0.3-0.1-0.3c0-0.1-0.1-0.1-0.1,0c0,0.1,0,0.3,0,0.4c0,0.1,0,0.2,0,0.3c-0.1-0.1-0.2-0.2-0.2-0.3
	c-0.1-0.1-0.1-0.3-0.1-0.3c0-0.1-0.1-0.1-0.1,0c0,0.1,0,0.3,0,0.4s0,0.3,0.1,0.4c0,0.1,0,0.2,0,0.3c0,0,0,0.1,0,0.1
	c-0.1,0.1-0.2,0.1-0.3,0.2c-0.2,0.2-0.7,0.7-0.8,0.9s-0.8,0.9-0.9,1.1c-0.1,0.2-0.4,0.6-0.5,0.7C84.7,71.4,84.7,71.5,84.8,71.7"/>
<path d="M129.7,77c0.1-0.1,0.2-0.5,0.3-0.9c0,0.1,0,0.2,0,0.2c0,0.2-0.1,0.8-0.1,1.3C129.8,77.4,129.7,77.2,129.7,77 M110.8,71.7
	c0.1,0.2,0,0.3,0,0.4c0.1,0.1,0.2,0.2,0.3,0.2c0.1,0,0.1,0.1,0.2,0.1c0.1,0,0.6,0,0.7-0.1c0.1-0.1,0.1-0.2,0.1-0.3
	c0.1-0.1,0.5-0.3,0.6-0.3s0.5-0.3,0.6-0.3s0.1-0.1,0.1-0.1c0.1,0,0.6,0.1,0.8-0.2c0.1-0.1,0.4,0,0.6,0.2c0.2,0.2,1.9,3,2,3.8
	c0.1,0.9,0.6,1.5,0.9,1.8c0,0.3,0.1,0.6,0.2,1.1c0.2,0.7,0.4,1.7,0.4,2.3s0.1,0.8,0.1,1.1s0.1,1.5,0,1.8c-0.1,0.3-0.6,0.5-0.6,0.8
	c-0.1,0.1-0.4,0.3-0.4,0.3c0,0-0.1,0.1,0.1,0.1c0.2,0,0.7,0.1,0.8,0.1c0.1,0,0.3,0,0.4-0.2c0.1-0.2-0.1-0.3-0.1-0.3
	c0-0.1,0.1-0.2,0.2-0.3c0-0.1,0.2-0.3,0.3-0.3c0.1,0,0.2-0.1,0.2-0.3s-0.2-1.6-0.2-1.7c0-0.2,0-0.7,0-0.8c0.1-0.2,0-0.3,0.1-0.8
	c0-0.3,0-0.2,0.1-0.3c0.1,0.1,0.2,0.5,0.2,0.8c0.1,0.6,0.2,0.8,0.2,1.1c0,0.3,0.2,1.5,0.1,1.8s-0.5,0.6-0.6,0.8
	c-0.1,0.1-0.4,0.3-0.4,0.3c0,0-0.1,0.1,0.1,0.1c0.2,0,0.7,0,0.8,0s0.3,0,0.4-0.2s-0.1-0.3-0.1-0.3c0-0.1,0.1-0.2,0.2-0.3
	s0.2-0.3,0.3-0.3c0.1-0.1,0.2-0.1,0.2-0.3c0-0.2-0.2-1.6-0.2-1.7s-0.1-0.7,0-0.8c0-0.2,0.1-0.3,0-0.8c-0.1-0.5-0.1-1.2-0.1-1.5
	c0-0.2,0-0.4,0-0.7c0.1,0,0.6,0,1.6,0.1c1.1,0.1,2.1-0.1,2.8-0.3c0.3-0.1,0.8-0.3,1.2-0.5c0.4-0.2,0.8,0,0.9,0.4
	c0.2,0.5,0.3,0.9,0.4,1.1c0.2,0.3,0.6,1.7,0.8,2.1s0.1,1.7,0.1,1.8s0,0.5,0,0.7c0,0.1,0,0.6-0.1,0.8c-0.1,0.2-0.4,0.3-0.5,0.5
	c-0.2,0.2-0.3,0.5-0.2,0.6c0.1,0.1,0.6,0,0.9,0.1c0.3,0,0.5-0.1,0.5-0.2s-0.2-0.7,0-0.9s0.5-0.5,0.4-0.8c-0.2-0.5,0-1.5-0.1-1.8
	c0-0.3,0-1.1,0.1-1.6c0.2,0.4,0.4,0.9,0.5,1c0.2,0.3,0.3,1.6,0.3,1.8c0,0.2,0,0.5,0,0.7c0,0.1,0,0.6,0,0.8s-0.3,0.3-0.5,0.6
	c-0.2,0.2-0.3,0.4-0.2,0.5c0.1,0.1,0.6,0.1,0.9,0.1c0.3,0,0.5-0.2,0.5-0.2c-0.1-0.1-0.2-0.7-0.1-0.9s0.4-0.6,0.3-0.9
	c-0.2-0.4-0.1-0.9-0.2-1.4c0.1-0.1,0.2-0.2,0.3-0.4c0.3-0.8,0.3-1.8,0.3-2.3c0-0.5-0.4-2.9-0.6-4c-0.2-0.9-0.2-1.2-0.5-1.5
	c-0.1-0.2-0.3-0.4-0.5-0.5c-0.2-0.2-0.6-0.4-0.9-0.4c-0.4-0.1-1.4-0.4-1.7-0.4c-0.4,0-1,0.1-1.7,0.2c-0.7,0.1-2.3,0.3-3.3,0.1
	c-0.7-0.1-2.9-1.5-3.1-1.7c-0.2-0.2-1.6-0.9-1.8-1.1c-0.3-0.2-1.3-0.6-1.5-0.7c-0.2-0.1-1.1-0.4-1.3-0.4c0,0-0.1,0-0.1,0
	c-0.1-0.1-0.1-0.2-0.2-0.3c-0.1-0.2-0.2-0.3-0.3-0.4s-0.1-0.3-0.1-0.3c0-0.1-0.1-0.1-0.1,0c0,0.1,0,0.3,0,0.4c0,0.1,0,0.2,0,0.3
	c-0.1-0.1-0.2-0.2-0.2-0.3c-0.1-0.1-0.1-0.3-0.1-0.3c0-0.1-0.1-0.1-0.1,0c0,0.1,0,0.3,0,0.4s0,0.3,0.1,0.4c0,0.1,0,0.2,0,0.3
	c0,0,0,0.1,0,0.1c-0.1,0.1-0.2,0.1-0.3,0.2c-0.2,0.2-0.7,0.7-0.8,0.9s-0.8,0.9-0.9,1.1c-0.1,0.2-0.4,0.6-0.5,0.7
	C110.7,71.4,110.7,71.5,110.8,71.7"/>
<path d="M155.8,77c0.1-0.1,0.2-0.5,0.3-0.9c0,0.1,0,0.2,0,0.2c0,0.2-0.1,0.8-0.1,1.3C155.8,77.4,155.8,77.2,155.8,77 M136.9,71.7
	c0.1,0.2,0,0.3,0,0.4c0.1,0.1,0.2,0.2,0.3,0.2c0.1,0,0.1,0.1,0.2,0.1s0.6,0,0.7-0.1s0.1-0.2,0.1-0.3c0.1-0.1,0.5-0.3,0.6-0.3
	s0.5-0.3,0.6-0.3s0.1-0.1,0.1-0.1s0.6,0.1,0.8-0.2c0.1-0.1,0.4,0,0.6,0.2c0.2,0.2,1.9,3,2,3.8c0.1,0.9,0.6,1.5,0.9,1.8
	c0,0.3,0.1,0.6,0.2,1.1c0.2,0.7,0.4,1.7,0.4,2.3s0.1,0.8,0.1,1.1s0.1,1.5,0,1.8c-0.1,0.3-0.6,0.5-0.6,0.8c-0.1,0.1-0.4,0.3-0.4,0.3
	c0,0-0.1,0.1,0.1,0.1c0.2,0,0.7,0.1,0.8,0.1c0.1,0,0.3,0,0.4-0.2c0.1-0.2-0.1-0.3-0.1-0.3c0-0.1,0.1-0.2,0.2-0.3
	c0-0.1,0.2-0.3,0.3-0.3c0.1,0,0.2-0.1,0.2-0.3s-0.2-1.6-0.2-1.7c0-0.2,0-0.7,0-0.8c0.1-0.2,0-0.3,0.1-0.8c0-0.3,0-0.2,0.1-0.3
	c0.1,0.1,0.2,0.5,0.2,0.8c0.1,0.6,0.2,0.8,0.2,1.1c0,0.3,0.2,1.5,0.1,1.8s-0.5,0.6-0.6,0.8c-0.1,0.1-0.4,0.3-0.4,0.3
	c0,0-0.1,0.1,0.1,0.1c0.2,0,0.7,0,0.8,0s0.3,0,0.4-0.2s-0.1-0.3-0.1-0.3c0-0.1,0.1-0.2,0.2-0.3s0.2-0.3,0.3-0.3
	c0.1-0.1,0.2-0.1,0.2-0.3c0-0.2-0.2-1.6-0.2-1.7s-0.1-0.7,0-0.8c0-0.2,0.1-0.3,0-0.8c-0.1-0.5-0.1-1.2-0.1-1.5c0-0.2,0-0.4,0-0.7
	c0.1,0,0.6,0,1.6,0.1c1.1,0.1,2.1-0.1,2.8-0.3c0.3-0.1,0.8-0.3,1.2-0.5c0.4-0.2,0.8,0,0.9,0.4c0.2,0.5,0.3,0.9,0.4,1.1
	c0.2,0.3,0.6,1.7,0.8,2.1s0.1,1.7,0.1,1.8s0,0.5,0,0.7c0,0.1,0,0.6-0.1,0.8c-0.1,0.2-0.4,0.3-0.6,0.5c-0.2,0.2-0.3,0.5-0.2,0.6
	c0.1,0.1,0.6,0,0.9,0.1c0.3,0,0.5-0.1,0.5-0.2s-0.2-0.7,0-0.9s0.5-0.5,0.4-0.8c-0.2-0.5,0-1.5-0.1-1.8c0-0.3,0-1.1,0.1-1.6
	c0.2,0.4,0.4,0.9,0.5,1c0.2,0.3,0.3,1.6,0.3,1.8c0,0.2,0,0.5,0,0.7c0,0.1,0,0.6,0,0.8s-0.3,0.3-0.5,0.6c-0.2,0.2-0.3,0.4-0.2,0.5
	c0.1,0.1,0.6,0.1,0.9,0.1c0.3,0,0.5-0.2,0.5-0.2c-0.1-0.1-0.2-0.7-0.1-0.9s0.4-0.6,0.3-0.9c-0.2-0.4-0.1-0.9-0.2-1.4
	c0.1-0.1,0.2-0.2,0.3-0.4c0.3-0.8,0.3-1.8,0.3-2.3c0-0.5-0.4-2.9-0.6-4c-0.2-0.9-0.2-1.2-0.5-1.5c-0.1-0.2-0.3-0.4-0.5-0.5
	c-0.2-0.2-0.6-0.4-0.9-0.4c-0.4-0.1-1.4-0.4-1.8-0.4c-0.4,0-1,0.1-1.7,0.2c-0.7,0.1-2.3,0.3-3.3,0.1c-0.7-0.1-2.9-1.5-3.1-1.7
	c-0.2-0.2-1.6-0.9-1.8-1.1c-0.3-0.2-1.3-0.6-1.5-0.7c-0.2-0.1-1.1-0.4-1.3-0.4c0,0-0.1,0-0.1,0c-0.1-0.1-0.1-0.2-0.2-0.3
	c-0.1-0.2-0.2-0.3-0.3-0.4s-0.1-0.3-0.1-0.3s-0.1-0.1-0.1,0c0,0.1,0,0.3,0,0.4c0,0.1,0,0.2,0,0.3c-0.1-0.1-0.2-0.2-0.2-0.3
	c-0.1-0.1-0.1-0.3-0.1-0.3s-0.1-0.1-0.1,0c0,0.1,0,0.3,0,0.4s0,0.3,0.1,0.4c0,0.1,0,0.2,0,0.3c0,0,0,0.1,0,0.1
	c-0.1,0.1-0.2,0.1-0.4,0.2c-0.2,0.2-0.7,0.7-0.8,0.9s-0.8,0.9-0.9,1.1c-0.1,0.2-0.4,0.6-0.5,0.7C136.8,71.4,136.8,71.5,136.9,71.7"
	/>
<path d="M77.5,11.1c0.1-0.1,0.2-0.5,0.3-0.9c0,0.1,0,0.2,0,0.2c0,0.2-0.1,0.8-0.1,1.3C77.6,11.4,77.6,11.2,77.5,11.1 M58.7,5.7
	c0.1,0.2,0,0.3,0,0.4c0.1,0.1,0.2,0.2,0.3,0.2c0.1,0,0.1,0.1,0.2,0.1c0.1,0,0.6,0,0.7-0.1C60,6.2,60,6.1,60.1,6.1
	c0.1-0.1,0.5-0.3,0.6-0.4s0.5-0.3,0.6-0.3c0.1-0.1,0.1-0.1,0.1-0.1c0.1,0,0.6,0.1,0.8-0.2c0.1-0.1,0.4,0,0.6,0.2
	c0.2,0.2,1.9,3,2,3.8c0.1,0.9,0.6,1.5,0.8,1.8c0,0.3,0.1,0.6,0.2,1.1c0.2,0.7,0.4,1.7,0.4,2.3s0.2,0.8,0.2,1.1c0,0.3,0.1,1.5,0,1.8
	c-0.1,0.3-0.6,0.5-0.6,0.8c-0.2,0.1-0.4,0.3-0.4,0.3c0,0-0.1,0.1,0.1,0.1s0.7,0.1,0.8,0.1c0.1,0,0.3,0,0.4-0.2s-0.1-0.3-0.1-0.3
	s0.1-0.2,0.2-0.3c0,0,0.2-0.3,0.3-0.3c0.1,0,0.2-0.1,0.2-0.3c0-0.2-0.2-1.6-0.2-1.7s0-0.7,0-0.8s0-0.3,0.1-0.8c0-0.3,0-0.2,0.1-0.3
	c0.1,0.1,0.2,0.5,0.2,0.9c0.1,0.6,0.2,0.8,0.2,1.1c0,0.3,0.2,1.5,0.1,1.8s-0.5,0.5-0.6,0.8c-0.2,0.1-0.3,0.3-0.4,0.4
	c0,0-0.1,0.1,0.1,0.1c0.2,0,0.7,0,0.8,0s0.3,0,0.4-0.2S68,18.2,68,18.1s0.1-0.2,0.2-0.3c0,0,0.2-0.3,0.3-0.3s0.2-0.1,0.2-0.3
	s-0.2-1.6-0.2-1.7s-0.1-0.7,0-0.8s0.1-0.3,0-0.8c-0.1-0.5-0.1-1.2-0.1-1.5c0-0.2,0-0.5,0-0.7c0.1,0,0.6,0,1.6,0.1
	c1.1,0.1,2.2-0.1,2.8-0.3c0.3-0.1,0.8-0.3,1.2-0.5c0.4-0.2,0.8,0,0.9,0.4c0.2,0.5,0.3,0.9,0.4,1.1c0.2,0.4,0.7,1.7,0.8,2.1
	s0.1,1.7,0.1,1.8s0,0.5,0,0.6c0,0.1,0,0.6-0.1,0.8c-0.1,0.2-0.4,0.3-0.6,0.5s-0.3,0.5-0.2,0.6c0.1,0.1,0.6,0,0.9,0
	c0.3,0,0.5-0.1,0.5-0.2c0-0.1-0.2-0.7,0-0.9c0.2-0.2,0.5-0.5,0.4-0.9c-0.2-0.5,0-1.5-0.1-1.8c0-0.3,0-1.1,0.1-1.6
	c0.2,0.4,0.4,0.9,0.5,1c0.2,0.3,0.3,1.6,0.3,1.8c0,0.1,0,0.5,0,0.6c0,0.1,0,0.6,0,0.8c0,0.2-0.3,0.3-0.5,0.6s-0.3,0.4-0.2,0.5
	s0.6,0.1,0.9,0.1s0.5-0.1,0.5-0.2c-0.1-0.1-0.2-0.6-0.1-0.9s0.4-0.6,0.3-0.9c-0.2-0.5-0.2-0.9-0.2-1.4c0.1-0.1,0.2-0.2,0.3-0.4
	c0.3-0.8,0.3-1.8,0.3-2.3c0-0.5-0.4-2.9-0.6-4c-0.2-0.9-0.2-1.2-0.5-1.5C78,7,77.8,6.9,77.6,6.7c-0.2-0.2-0.6-0.4-0.8-0.4
	c-0.4-0.1-1.4-0.4-1.8-0.4c-0.3,0-1,0.1-1.7,0.2C72.7,6.2,71,6.3,70,6.1c-0.7-0.1-2.9-1.5-3.1-1.7c-0.2-0.2-1.6-0.9-1.8-1.1
	c-0.3-0.2-1.3-0.6-1.5-0.7c-0.2-0.1-1.1-0.4-1.3-0.4c0,0-0.1,0-0.1,0C62.1,2,62.1,1.9,62,1.8c-0.1-0.2-0.2-0.3-0.3-0.4
	c-0.1-0.1-0.1-0.3-0.1-0.3c0-0.1-0.1-0.1-0.1,0c0,0.1,0,0.3,0,0.4c0,0.1,0,0.2,0,0.3c-0.1-0.1-0.2-0.2-0.2-0.3
	c-0.1-0.1-0.1-0.2-0.1-0.3s-0.1-0.1-0.1,0c0,0.1,0,0.3,0,0.4c0,0.1,0,0.3,0.1,0.4c0,0.1,0,0.2,0,0.3c0,0,0,0.1,0,0.1
	c-0.1,0.1-0.2,0.1-0.3,0.2c-0.2,0.2-0.7,0.7-0.8,0.9s-0.8,0.9-0.9,1.1c-0.1,0.2-0.4,0.6-0.5,0.7C58.6,5.4,58.6,5.6,58.7,5.7"/>
<path d="M103.6,11.1c0.1-0.1,0.2-0.5,0.3-0.9c0,0.1,0,0.2,0,0.2c0,0.2-0.1,0.8-0.1,1.3C103.7,11.4,103.6,11.2,103.6,11.1 M84.8,5.7
	c0.1,0.2,0,0.3,0,0.4c0.1,0.1,0.2,0.2,0.3,0.2c0.1,0,0.1,0.1,0.2,0.1c0.1,0,0.6,0,0.7-0.1c0.1-0.1,0.1-0.2,0.1-0.3
	c0.1-0.1,0.5-0.3,0.6-0.4s0.5-0.3,0.6-0.3c0.1-0.1,0.1-0.1,0.1-0.1c0.1,0,0.6,0.1,0.8-0.2c0.1-0.1,0.4,0,0.6,0.2
	c0.2,0.2,1.9,3,2,3.8c0.1,0.9,0.6,1.5,0.8,1.8c0,0.3,0.1,0.6,0.2,1.1c0.2,0.7,0.4,1.7,0.4,2.3s0.2,0.8,0.2,1.1c0,0.3,0.1,1.5,0,1.8
	c-0.1,0.3-0.6,0.5-0.6,0.8c-0.2,0.1-0.4,0.3-0.4,0.3c0,0-0.1,0.1,0.1,0.1s0.7,0.1,0.8,0.1c0.1,0,0.3,0,0.4-0.2s-0.1-0.3-0.1-0.3
	s0.1-0.2,0.2-0.3c0,0,0.2-0.3,0.3-0.3c0.1,0,0.2-0.1,0.2-0.3s-0.2-1.6-0.2-1.7c0-0.2,0-0.7,0-0.8s0-0.3,0.1-0.8c0-0.3,0-0.2,0.1-0.3
	c0.1,0.1,0.2,0.5,0.2,0.9c0.1,0.6,0.2,0.8,0.2,1.1c0,0.3,0.2,1.5,0.1,1.8s-0.5,0.5-0.6,0.8c-0.2,0.1-0.3,0.3-0.4,0.4
	c0,0-0.1,0.1,0.1,0.1c0.2,0,0.7,0,0.8,0s0.3,0,0.4-0.2s-0.1-0.3-0.2-0.3s0.1-0.2,0.2-0.3c0,0,0.2-0.3,0.3-0.3s0.2-0.1,0.2-0.3
	c0-0.2-0.2-1.6-0.2-1.7s-0.1-0.7,0-0.8s0.1-0.3,0-0.8c-0.1-0.5-0.1-1.2-0.1-1.5c0-0.2,0-0.5,0-0.7c0.1,0,0.6,0,1.6,0.1
	c1.1,0.1,2.2-0.1,2.8-0.3c0.3-0.1,0.8-0.3,1.2-0.5c0.4-0.2,0.8,0,0.9,0.4c0.2,0.5,0.3,0.9,0.4,1.1c0.2,0.4,0.7,1.7,0.8,2.1
	s0.1,1.7,0.1,1.8s0,0.5,0,0.6c0,0.1,0,0.6-0.1,0.8c-0.1,0.2-0.4,0.3-0.6,0.5s-0.3,0.5-0.2,0.6c0.1,0.1,0.6,0,0.9,0
	c0.3,0,0.5-0.1,0.5-0.2c0-0.1-0.2-0.7,0-0.9c0.2-0.2,0.5-0.5,0.4-0.9c-0.2-0.5,0-1.5-0.1-1.8c0-0.3,0-1.1,0.1-1.6
	c0.2,0.4,0.4,0.9,0.5,1c0.2,0.3,0.3,1.6,0.3,1.8c0,0.1,0,0.5,0,0.6c0,0.1,0,0.6,0,0.8c0,0.2-0.3,0.3-0.5,0.6s-0.3,0.4-0.2,0.5
	s0.6,0.1,0.9,0.1s0.5-0.1,0.5-0.2c-0.1-0.1-0.2-0.6-0.1-0.9s0.4-0.6,0.3-0.9c-0.2-0.5-0.2-0.9-0.2-1.4c0.1-0.1,0.2-0.2,0.3-0.4
	c0.3-0.8,0.3-1.8,0.3-2.3c0-0.5-0.4-2.9-0.6-4c-0.2-0.9-0.2-1.2-0.5-1.5c-0.1-0.2-0.3-0.4-0.5-0.5c-0.2-0.2-0.6-0.4-0.8-0.4
	c-0.4-0.1-1.4-0.4-1.8-0.4c-0.3,0-1,0.1-1.7,0.2c-0.7,0.1-2.3,0.3-3.3,0.1c-0.7-0.1-2.9-1.5-3.1-1.7c-0.2-0.2-1.6-0.9-1.8-1.1
	c-0.3-0.2-1.3-0.6-1.5-0.7c-0.2-0.1-1.1-0.4-1.3-0.4c0,0-0.1,0-0.1,0c-0.1-0.1-0.1-0.2-0.2-0.3c-0.1-0.2-0.2-0.3-0.3-0.4
	c-0.1-0.1-0.1-0.3-0.1-0.3c0-0.1-0.1-0.1-0.1,0c0,0.1,0,0.3,0,0.4c0,0.1,0,0.2,0,0.3c-0.1-0.1-0.2-0.2-0.2-0.3
	c-0.1-0.1-0.1-0.3-0.1-0.3c0-0.1-0.1-0.1-0.1,0c0,0.1,0,0.3,0,0.4c0,0.1,0,0.3,0.1,0.4c0,0.1,0,0.2,0,0.3c0,0,0,0.1,0,0.1
	c-0.1,0.1-0.2,0.1-0.3,0.2c-0.2,0.2-0.7,0.7-0.8,0.9s-0.8,0.9-0.9,1.1c-0.1,0.2-0.4,0.6-0.5,0.7C84.7,5.4,84.7,5.6,84.8,5.7"/>
<path d="M129.7,11.1c0.1-0.1,0.2-0.5,0.3-0.9c0,0.1,0,0.2,0,0.2c0,0.2-0.1,0.8-0.1,1.3C129.8,11.4,129.7,11.2,129.7,11.1 M110.8,5.7
	c0.1,0.2,0,0.3,0,0.4c0.1,0.1,0.2,0.2,0.3,0.2c0.1,0,0.1,0.1,0.2,0.1c0.1,0,0.6,0,0.7-0.1c0.1-0.1,0.1-0.2,0.1-0.3
	c0.1-0.1,0.5-0.3,0.6-0.4s0.5-0.3,0.6-0.3c0.1-0.1,0.1-0.1,0.1-0.1c0.1,0,0.6,0.1,0.8-0.2c0.1-0.1,0.4,0,0.6,0.2
	c0.2,0.2,1.9,3,2,3.8c0.1,0.9,0.6,1.5,0.9,1.8c0,0.3,0.1,0.6,0.2,1.1c0.2,0.7,0.4,1.7,0.4,2.3s0.1,0.8,0.1,1.1c0,0.3,0.1,1.5,0,1.8
	s-0.6,0.5-0.6,0.8c-0.1,0.1-0.4,0.3-0.4,0.3c0,0-0.1,0.1,0.1,0.1s0.7,0.1,0.8,0.1c0.1,0,0.3,0,0.4-0.2c0.1-0.2-0.1-0.3-0.1-0.3
	c0,0,0.1-0.2,0.2-0.3c0,0,0.2-0.3,0.3-0.3c0.1,0,0.2-0.1,0.2-0.3s-0.2-1.6-0.2-1.7c0-0.2,0-0.7,0-0.8c0.1-0.2,0-0.3,0.1-0.8
	c0-0.3,0-0.2,0.1-0.3c0.1,0.1,0.2,0.5,0.2,0.9c0.1,0.6,0.2,0.8,0.2,1.1c0,0.3,0.2,1.5,0.1,1.8s-0.5,0.5-0.6,0.8
	c-0.1,0.1-0.4,0.3-0.4,0.4c0,0-0.1,0.1,0.1,0.1c0.2,0,0.7,0,0.8,0s0.3,0,0.4-0.2s-0.1-0.3-0.1-0.3s0.1-0.2,0.2-0.3
	c0,0,0.2-0.3,0.3-0.3s0.2-0.1,0.2-0.3c0-0.2-0.2-1.6-0.2-1.7s-0.1-0.7,0-0.8c0-0.2,0.1-0.3,0-0.8c-0.1-0.5-0.1-1.2-0.1-1.5
	c0-0.2,0-0.5,0-0.7c0.1,0,0.6,0,1.6,0.1c1.1,0.1,2.1-0.1,2.8-0.3c0.3-0.1,0.8-0.3,1.2-0.5c0.4-0.2,0.8,0,0.9,0.4
	c0.2,0.5,0.3,0.9,0.4,1.1c0.2,0.4,0.6,1.7,0.8,2.1s0.1,1.7,0.1,1.8s0,0.5,0,0.6c0,0.1,0,0.6-0.1,0.8c-0.1,0.2-0.4,0.3-0.5,0.5
	s-0.3,0.5-0.2,0.6c0.1,0.1,0.6,0,0.9,0c0.3,0,0.5-0.1,0.5-0.2c0-0.1-0.2-0.7,0-0.9s0.5-0.5,0.4-0.9c-0.2-0.5,0-1.5-0.1-1.8
	c0-0.3,0-1.1,0.1-1.6c0.2,0.4,0.4,0.9,0.5,1c0.2,0.3,0.3,1.6,0.3,1.8c0,0.1,0,0.5,0,0.6c0,0.1,0,0.6,0,0.8c0,0.2-0.3,0.3-0.5,0.6
	s-0.3,0.4-0.2,0.5c0.1,0,0.6,0.1,0.9,0.1s0.5-0.1,0.5-0.2c-0.1-0.1-0.2-0.6-0.1-0.9s0.4-0.6,0.3-0.9c-0.2-0.5-0.1-0.9-0.2-1.4
	c0.1-0.1,0.2-0.2,0.3-0.4c0.3-0.8,0.3-1.8,0.3-2.3c0-0.5-0.4-2.9-0.6-4c-0.2-0.9-0.2-1.2-0.5-1.5c-0.1-0.2-0.3-0.4-0.5-0.5
	c-0.2-0.2-0.6-0.4-0.9-0.4c-0.4-0.1-1.4-0.4-1.7-0.4c-0.4,0-1,0.1-1.7,0.2c-0.7,0.1-2.3,0.3-3.3,0.1c-0.7-0.1-2.9-1.5-3.1-1.7
	c-0.2-0.2-1.6-0.9-1.8-1.1c-0.3-0.2-1.3-0.6-1.5-0.7c-0.2-0.1-1.1-0.4-1.3-0.4c0,0-0.1,0-0.1,0c-0.1-0.1-0.1-0.2-0.2-0.3
	c-0.1-0.2-0.2-0.3-0.3-0.4c-0.1-0.1-0.1-0.3-0.1-0.3c0-0.1-0.1-0.1-0.1,0c0,0.1,0,0.3,0,0.4c0,0.1,0,0.2,0,0.3
	c-0.1-0.1-0.2-0.2-0.2-0.3c-0.1-0.1-0.1-0.3-0.1-0.3c0-0.1-0.1-0.1-0.1,0c0,0.1,0,0.3,0,0.4c0,0.1,0,0.3,0.1,0.4c0,0.1,0,0.2,0,0.3
	c0,0,0,0.1,0,0.1c-0.1,0.1-0.2,0.1-0.3,0.2c-0.2,0.2-0.7,0.7-0.8,0.9s-0.8,0.9-0.9,1.1c-0.1,0.2-0.4,0.6-0.5,0.7
	C110.7,5.4,110.7,5.6,110.8,5.7"/>
<path d="M155.8,11.1c0.1-0.1,0.2-0.5,0.3-0.9c0,0.1,0,0.2,0,0.2c0,0.2-0.1,0.8-0.1,1.3C155.8,11.4,155.8,11.2,155.8,11.1 M136.9,5.7
	c0.1,0.2,0,0.3,0,0.4c0.1,0.1,0.2,0.2,0.3,0.2c0.1,0,0.1,0.1,0.2,0.1s0.6,0,0.7-0.1c0.1-0.1,0.1-0.2,0.1-0.3
	c0.1-0.1,0.5-0.3,0.6-0.4s0.5-0.3,0.6-0.3c0.1-0.1,0.1-0.1,0.1-0.1s0.6,0.1,0.8-0.2c0.1-0.1,0.4,0,0.6,0.2c0.2,0.2,1.9,3,2,3.8
	c0.1,0.9,0.6,1.5,0.9,1.8c0,0.3,0.1,0.6,0.2,1.1c0.2,0.7,0.4,1.7,0.4,2.3s0.1,0.8,0.1,1.1c0,0.3,0.1,1.5,0,1.8s-0.6,0.5-0.6,0.8
	c-0.1,0.1-0.4,0.3-0.4,0.3c0,0-0.1,0.1,0.1,0.1s0.7,0.1,0.8,0.1c0.1,0,0.3,0,0.4-0.2c0.1-0.2-0.1-0.3-0.1-0.3c0,0,0.1-0.2,0.2-0.3
	c0,0,0.2-0.3,0.3-0.3c0.1,0,0.2-0.1,0.2-0.3s-0.2-1.6-0.2-1.7c0-0.2,0-0.7,0-0.8c0.1-0.2,0-0.3,0.1-0.8c0-0.3,0-0.2,0.1-0.3
	c0.1,0.1,0.2,0.5,0.2,0.9c0.1,0.6,0.2,0.8,0.2,1.1c0,0.3,0.2,1.5,0.1,1.8s-0.5,0.5-0.6,0.8c-0.1,0.1-0.4,0.3-0.4,0.4
	c0,0-0.1,0.1,0.1,0.1c0.2,0,0.7,0,0.8,0s0.3,0,0.4-0.2s-0.1-0.3-0.1-0.3s0.1-0.2,0.2-0.3c0,0,0.2-0.3,0.3-0.3s0.2-0.1,0.2-0.3
	c0-0.2-0.2-1.6-0.2-1.7s-0.1-0.7,0-0.8c0-0.2,0.1-0.3,0-0.8c-0.1-0.5-0.1-1.2-0.1-1.5c0-0.2,0-0.5,0-0.7c0.1,0,0.6,0,1.6,0.1
	c1.1,0.1,2.1-0.1,2.8-0.3c0.3-0.1,0.8-0.3,1.2-0.5c0.4-0.2,0.8,0,0.9,0.4c0.2,0.5,0.3,0.9,0.4,1.1c0.2,0.4,0.6,1.7,0.8,2.1
	s0.1,1.7,0.1,1.8s0,0.5,0,0.6c0,0.1,0,0.6-0.1,0.8c-0.1,0.2-0.4,0.3-0.6,0.5s-0.3,0.5-0.2,0.6c0.1,0.1,0.6,0,0.9,0
	c0.3,0,0.5-0.1,0.5-0.2c0-0.1-0.2-0.7,0-0.9s0.5-0.5,0.4-0.9c-0.2-0.5,0-1.5-0.1-1.8c0-0.3,0-1.1,0.1-1.6c0.2,0.4,0.4,0.9,0.5,1
	c0.2,0.3,0.3,1.6,0.3,1.8c0,0.1,0,0.5,0,0.6c0,0.1,0,0.6,0,0.8c0,0.2-0.3,0.3-0.5,0.6s-0.3,0.4-0.2,0.5c0.1,0,0.6,0.1,0.9,0.1
	s0.5-0.1,0.5-0.2c-0.1-0.1-0.2-0.6-0.1-0.9s0.4-0.6,0.3-0.9c-0.2-0.5-0.1-0.9-0.2-1.4c0.1-0.1,0.2-0.2,0.3-0.4
	c0.3-0.8,0.3-1.8,0.3-2.3c0-0.5-0.4-2.9-0.6-4c-0.2-0.9-0.2-1.2-0.5-1.5c-0.1-0.2-0.3-0.4-0.5-0.5c-0.2-0.2-0.6-0.4-0.9-0.4
	c-0.4-0.1-1.4-0.4-1.8-0.4c-0.4,0-1,0.1-1.7,0.2c-0.7,0.1-2.3,0.3-3.3,0.1c-0.7-0.1-2.9-1.5-3.1-1.7c-0.2-0.2-1.6-0.9-1.8-1.1
	c-0.3-0.2-1.3-0.6-1.5-0.7c-0.2-0.1-1.1-0.4-1.3-0.4c0,0-0.1,0-0.1,0c-0.1-0.1-0.1-0.2-0.2-0.3c-0.1-0.2-0.2-0.3-0.3-0.4
	c-0.1-0.1-0.1-0.3-0.1-0.3s-0.1-0.1-0.1,0c0,0.1,0,0.3,0,0.4c0,0.1,0,0.2,0,0.3c-0.1-0.1-0.2-0.2-0.2-0.3c-0.1-0.1-0.1-0.3-0.1-0.3
	s-0.1-0.1-0.1,0c0,0.1,0,0.3,0,0.4c0,0.1,0,0.3,0.1,0.4c0,0.1,0,0.2,0,0.3c0,0,0,0.1,0,0.1c-0.1,0.1-0.2,0.1-0.4,0.2
	c-0.2,0.2-0.7,0.7-0.8,0.9s-0.8,0.9-0.9,1.1c-0.1,0.2-0.4,0.6-0.5,0.7C136.8,5.4,136.8,5.6,136.9,5.7"/>
<path d="M181.8,11.1c0.1-0.1,0.2-0.5,0.3-0.9c0,0.1,0,0.2,0,0.2c0,0.2-0.1,0.8-0.1,1.3C181.9,11.4,181.8,11.2,181.8,11.1 M163,5.7
	c0.1,0.2,0,0.3,0,0.4c0.1,0.1,0.2,0.2,0.3,0.2c0.1,0,0.1,0.1,0.2,0.1s0.6,0,0.7-0.1c0.1-0.1,0.1-0.2,0.1-0.3
	c0.1-0.1,0.5-0.3,0.6-0.4s0.5-0.3,0.6-0.3c0.1-0.1,0.1-0.1,0.1-0.1s0.6,0.1,0.8-0.2c0.1-0.1,0.4,0,0.6,0.2c0.2,0.2,1.9,3,2,3.8
	c0.1,0.9,0.6,1.5,0.9,1.8c0,0.3,0.1,0.6,0.2,1.1c0.2,0.7,0.4,1.7,0.4,2.3s0.1,0.8,0.1,1.1c0,0.3,0.1,1.5,0,1.8s-0.6,0.5-0.6,0.8
	c-0.1,0.1-0.4,0.3-0.4,0.3c0,0-0.1,0.1,0.1,0.1s0.7,0.1,0.8,0.1c0.1,0,0.3,0,0.4-0.2c0.1-0.2-0.1-0.3-0.1-0.3c0,0,0.1-0.2,0.2-0.3
	c0,0,0.2-0.3,0.3-0.3c0.1,0,0.2-0.1,0.2-0.3s-0.2-1.6-0.2-1.7c0-0.2,0-0.7,0-0.8c0.1-0.2,0-0.3,0.1-0.8c0-0.3,0-0.2,0.1-0.3
	c0.1,0.1,0.2,0.5,0.2,0.9c0.1,0.6,0.2,0.8,0.2,1.1c0,0.3,0.2,1.5,0.1,1.8s-0.5,0.5-0.6,0.8c-0.1,0.1-0.4,0.3-0.4,0.4
	c0,0-0.1,0.1,0.1,0.1c0.2,0,0.7,0,0.8,0s0.3,0,0.4-0.2s-0.1-0.3-0.1-0.3s0.1-0.2,0.2-0.3c0,0,0.2-0.3,0.3-0.3s0.2-0.1,0.2-0.3
	c0-0.2-0.2-1.6-0.2-1.7s-0.1-0.7,0-0.8c0-0.2,0.1-0.3,0-0.8c-0.1-0.5-0.1-1.2-0.1-1.5c0-0.2,0-0.5,0-0.7c0.1,0,0.6,0,1.6,0.1
	c1.1,0.1,2.1-0.1,2.8-0.3c0.3-0.1,0.8-0.3,1.2-0.5c0.4-0.2,0.8,0,0.9,0.4c0.2,0.5,0.3,0.9,0.4,1.1c0.2,0.4,0.6,1.7,0.8,2.1
	s0.1,1.7,0.1,1.8s0,0.5,0,0.6c0,0.1,0,0.6-0.1,0.8c-0.1,0.2-0.4,0.3-0.6,0.5s-0.3,0.5-0.2,0.6c0.1,0.1,0.6,0,0.9,0
	c0.3,0,0.5-0.1,0.5-0.2c0-0.1-0.2-0.7,0-0.9s0.5-0.5,0.4-0.9c-0.2-0.5,0-1.5-0.1-1.8c0-0.3,0-1.1,0.1-1.6c0.2,0.4,0.4,0.9,0.5,1
	c0.2,0.3,0.3,1.6,0.3,1.8c0,0.1,0,0.5,0,0.6c0,0.1,0,0.6,0,0.8s-0.3,0.3-0.5,0.6c-0.2,0.2-0.3,0.4-0.2,0.5s0.6,0.1,0.9,0.1
	s0.5-0.1,0.5-0.2c-0.1-0.1-0.2-0.6-0.1-0.9s0.4-0.6,0.3-0.9c-0.2-0.5-0.1-0.9-0.2-1.4c0.1-0.1,0.2-0.2,0.3-0.4
	c0.3-0.8,0.3-1.8,0.3-2.3c0-0.5-0.4-2.9-0.6-4c-0.2-0.9-0.2-1.2-0.5-1.5c-0.1-0.2-0.3-0.4-0.5-0.5c-0.2-0.2-0.6-0.4-0.9-0.4
	c-0.4-0.1-1.4-0.4-1.8-0.4c-0.4,0-1,0.1-1.7,0.2c-0.7,0.1-2.3,0.3-3.3,0.1c-0.7-0.1-2.9-1.5-3.1-1.7c-0.2-0.2-1.6-0.9-1.8-1.1
	c-0.3-0.2-1.3-0.6-1.5-0.7c-0.2-0.1-1.1-0.4-1.3-0.4c0,0-0.1,0-0.1,0c-0.1-0.1-0.1-0.2-0.2-0.3c-0.1-0.2-0.2-0.3-0.3-0.4
	c-0.1-0.1-0.1-0.3-0.1-0.3s-0.1-0.1-0.1,0c0,0.1,0,0.3,0,0.4c0,0.1,0,0.2,0,0.3c-0.1-0.1-0.2-0.2-0.2-0.3c-0.1-0.1-0.1-0.3-0.1-0.3
	s-0.1-0.1-0.1,0c0,0.1,0,0.3,0,0.4c0,0.1,0,0.3,0.1,0.4c0,0.1,0,0.2,0,0.3c0,0,0,0.1,0,0.1c-0.1,0.1-0.2,0.1-0.4,0.2
	c-0.2,0.2-0.7,0.7-0.8,0.9s-0.8,0.9-0.9,1.1c-0.1,0.2-0.4,0.6-0.5,0.7C162.9,5.4,162.9,5.6,163,5.7"/>
<path d="M207.9,11.1c0.1-0.1,0.2-0.5,0.3-0.9c0,0.1,0,0.2,0,0.2c0,0.2-0.1,0.8-0.1,1.3C208,11.4,207.9,11.2,207.9,11.1 M189.1,5.7
	c0.1,0.2,0,0.3,0,0.4s0.2,0.2,0.3,0.2c0.1,0,0.1,0.1,0.2,0.1s0.6,0,0.7-0.1c0.1-0.1,0.1-0.2,0.1-0.3c0.1-0.1,0.5-0.3,0.6-0.4
	s0.5-0.3,0.6-0.3c0.1-0.1,0.1-0.1,0.1-0.1s0.6,0.1,0.8-0.2c0.1-0.1,0.4,0,0.6,0.2c0.2,0.2,1.9,3,2,3.8c0.1,0.9,0.6,1.5,0.9,1.8
	c0,0.3,0.1,0.6,0.2,1.1c0.2,0.7,0.4,1.7,0.4,2.3s0.1,0.8,0.1,1.1c0,0.3,0.1,1.5,0,1.8s-0.6,0.5-0.6,0.8c-0.1,0.1-0.4,0.3-0.4,0.3
	c0,0-0.1,0.1,0.1,0.1s0.7,0.1,0.8,0.1c0.1,0,0.3,0,0.4-0.2c0.1-0.2-0.1-0.3-0.1-0.3c0,0,0.1-0.2,0.2-0.3c0,0,0.2-0.3,0.3-0.3
	c0.1,0,0.2-0.1,0.2-0.3s-0.2-1.6-0.2-1.7c0-0.2,0-0.7,0-0.8c0.1-0.2,0-0.3,0.1-0.8c0-0.3,0-0.2,0.1-0.3c0.1,0.1,0.2,0.5,0.2,0.9
	c0.1,0.6,0.2,0.8,0.2,1.1c0,0.3,0.2,1.5,0.1,1.8s-0.5,0.5-0.6,0.8c-0.1,0.1-0.4,0.3-0.4,0.4c0,0-0.1,0.1,0.1,0.1c0.2,0,0.7,0,0.8,0
	s0.3,0,0.4-0.2s-0.1-0.3-0.1-0.3s0.1-0.2,0.2-0.3c0,0,0.2-0.3,0.3-0.3s0.2-0.1,0.2-0.3c0-0.2-0.2-1.6-0.2-1.7s-0.1-0.7,0-0.8
	c0-0.2,0.1-0.3,0-0.8c-0.1-0.5-0.1-1.2-0.1-1.5c0-0.2,0-0.5,0-0.7c0.1,0,0.6,0,1.6,0.1c1.1,0.1,2.1-0.1,2.8-0.3
	c0.3-0.1,0.8-0.3,1.2-0.5c0.4-0.2,0.8,0,0.9,0.4c0.2,0.5,0.3,0.9,0.4,1.1c0.2,0.4,0.6,1.7,0.8,2.1s0.1,1.7,0.1,1.8s0,0.5,0,0.6
	c0,0.1,0,0.6-0.1,0.8c-0.1,0.2-0.4,0.3-0.6,0.5s-0.3,0.5-0.2,0.6c0.1,0.1,0.6,0,0.9,0c0.3,0,0.5-0.1,0.5-0.2c0-0.1-0.2-0.7,0-0.9
	s0.5-0.5,0.4-0.9c-0.2-0.5,0-1.5-0.1-1.8c0-0.3,0-1.1,0.1-1.6c0.2,0.4,0.4,0.9,0.5,1c0.2,0.3,0.3,1.6,0.3,1.8c0,0.1,0,0.5,0,0.6
	c0,0.1,0,0.6,0,0.8c0,0.2-0.3,0.3-0.5,0.6c-0.2,0.2-0.3,0.4-0.2,0.5c0.1,0,0.6,0.1,0.9,0.1s0.5-0.1,0.5-0.2
	c-0.1-0.1-0.2-0.6-0.1-0.9s0.4-0.6,0.3-0.9c-0.2-0.5-0.1-0.9-0.2-1.4c0.1-0.1,0.2-0.2,0.3-0.4c0.3-0.8,0.3-1.8,0.3-2.3
	c0-0.5-0.4-2.9-0.6-4c-0.2-0.9-0.2-1.2-0.5-1.5c-0.1-0.2-0.3-0.4-0.5-0.5c-0.2-0.2-0.6-0.4-0.9-0.4c-0.4-0.1-1.4-0.4-1.8-0.4
	c-0.4,0-1,0.1-1.7,0.2c-0.7,0.1-2.3,0.3-3.3,0.1c-0.7-0.1-2.9-1.5-3.1-1.7c-0.2-0.2-1.6-0.9-1.8-1.1c-0.3-0.2-1.3-0.6-1.5-0.7
	c-0.2-0.1-1.1-0.4-1.3-0.4c0,0-0.1,0-0.1,0c-0.1-0.1-0.1-0.2-0.2-0.3c-0.1-0.2-0.2-0.3-0.3-0.4C192,1.3,192,1.1,192,1.1
	s-0.1-0.1-0.1,0c0,0.1,0,0.3,0,0.4c0,0.1,0,0.2,0,0.3c-0.1-0.1-0.2-0.2-0.2-0.3c-0.1-0.1-0.1-0.3-0.1-0.3s-0.1-0.1-0.1,0
	c0,0.1,0,0.3,0,0.4c0,0.1,0,0.3,0.1,0.4c0,0.1,0,0.2,0,0.3c0,0,0,0.1,0,0.1c-0.1,0.1-0.2,0.1-0.4,0.2c-0.2,0.2-0.7,0.7-0.8,0.9
	s-0.8,0.9-0.9,1.1c-0.1,0.2-0.4,0.6-0.5,0.7C188.9,5.4,189,5.6,189.1,5.7"/>
<path d="M77.5,33c0.1-0.1,0.2-0.5,0.3-0.9c0,0.1,0,0.2,0,0.2c0,0.2-0.1,0.8-0.1,1.3C77.6,33.4,77.6,33.2,77.5,33 M58.7,27.7
	c0.1,0.2,0,0.3,0,0.4c0.1,0.1,0.2,0.2,0.3,0.2c0.1,0,0.1,0.1,0.2,0.1c0.1,0,0.6,0,0.7-0.1c0.1-0.1,0.1-0.2,0.1-0.3
	c0.1-0.1,0.5-0.3,0.6-0.3c0.1,0,0.5-0.3,0.6-0.3s0.1-0.1,0.1-0.1c0.1,0,0.6,0.1,0.8-0.2c0.1-0.1,0.4,0,0.6,0.2c0.2,0.2,1.9,3,2,3.8
	c0.1,0.9,0.6,1.5,0.8,1.8c0,0.3,0.1,0.6,0.2,1.1c0.2,0.7,0.4,1.7,0.4,2.3s0.2,0.8,0.2,1.1s0.1,1.5,0,1.8c-0.1,0.3-0.6,0.5-0.6,0.8
	c-0.2,0.1-0.4,0.3-0.4,0.3c0,0-0.1,0.1,0.1,0.1s0.7,0.1,0.8,0.1c0.1,0,0.3,0,0.4-0.2s-0.1-0.3-0.1-0.3s0.1-0.2,0.2-0.3
	s0.2-0.3,0.3-0.3c0.1,0,0.2-0.1,0.2-0.3c0-0.2-0.2-1.6-0.2-1.7c0-0.2,0-0.7,0-0.8c0.1-0.2,0-0.3,0.1-0.8c0-0.3,0-0.2,0.1-0.3
	c0.1,0.1,0.2,0.5,0.2,0.8c0.1,0.6,0.2,0.8,0.2,1.1c0,0.3,0.2,1.5,0.1,1.8c-0.1,0.3-0.5,0.5-0.6,0.8c-0.2,0.1-0.3,0.3-0.4,0.3
	c0,0-0.1,0.1,0.1,0.1c0.2,0,0.7,0,0.8,0c0.1,0,0.3,0,0.4-0.2c0.1-0.2-0.1-0.3-0.2-0.3c0,0,0.1-0.2,0.2-0.3s0.2-0.3,0.3-0.3
	s0.2-0.1,0.2-0.3c0-0.2-0.2-1.6-0.2-1.7s-0.1-0.7,0-0.8c0-0.2,0.1-0.3,0-0.8c-0.1-0.5-0.1-1.2-0.1-1.5c0-0.2,0-0.5,0-0.7
	c0.1,0,0.6,0,1.6,0.1c1.1,0.1,2.2-0.1,2.8-0.3c0.3-0.1,0.8-0.3,1.2-0.5c0.4-0.2,0.8,0,0.9,0.4c0.2,0.5,0.3,0.9,0.4,1.1
	c0.2,0.3,0.7,1.7,0.8,2.1s0.1,1.7,0.1,1.8s0,0.5,0,0.7c0,0.1,0,0.6-0.1,0.8c-0.1,0.2-0.4,0.3-0.6,0.5s-0.3,0.5-0.2,0.6
	c0.1,0.1,0.6,0,0.9,0s0.5-0.1,0.5-0.2c0-0.1-0.2-0.7,0-0.9c0.2-0.2,0.5-0.5,0.4-0.8c-0.2-0.5,0-1.5-0.1-1.8c0-0.3,0-1.1,0.1-1.6
	c0.2,0.4,0.4,0.9,0.5,1c0.2,0.3,0.3,1.6,0.3,1.8c0,0.2,0,0.5,0,0.7c0,0.1,0,0.6,0,0.8s-0.3,0.3-0.5,0.6s-0.3,0.4-0.2,0.5
	s0.6,0.1,0.9,0.1s0.5-0.2,0.5-0.2c-0.1-0.1-0.2-0.7-0.1-0.9c0.1-0.2,0.4-0.6,0.3-0.9c-0.2-0.5-0.2-0.9-0.2-1.4
	c0.1-0.1,0.2-0.2,0.3-0.4c0.3-0.8,0.3-1.8,0.3-2.3c0-0.5-0.4-2.9-0.6-4c-0.2-0.9-0.2-1.2-0.5-1.5c-0.1-0.2-0.3-0.4-0.5-0.5
	c-0.2-0.2-0.6-0.4-0.8-0.5c-0.4-0.1-1.4-0.4-1.8-0.4c-0.3,0-1,0.1-1.7,0.2c-0.7,0.1-2.3,0.3-3.3,0.1c-0.7-0.1-2.9-1.5-3.1-1.7
	c-0.2-0.2-1.6-0.9-1.8-1.1c-0.3-0.2-1.3-0.6-1.5-0.7s-1.1-0.4-1.3-0.5c0,0-0.1,0-0.1,0c-0.1-0.1-0.1-0.2-0.2-0.3
	c-0.1-0.2-0.2-0.3-0.3-0.4c-0.1-0.1-0.1-0.3-0.1-0.3c0-0.1-0.1-0.1-0.1,0c0,0.1,0,0.3,0,0.4c0,0.1,0,0.2,0,0.3
	c-0.1-0.1-0.2-0.2-0.2-0.3c-0.1-0.1-0.1-0.3-0.1-0.3c0-0.1-0.1-0.1-0.1,0c0,0.1,0,0.3,0,0.4c0,0.1,0,0.3,0.1,0.4c0,0.1,0,0.2,0,0.3
	c0,0,0,0.1,0,0.1c-0.1,0.1-0.2,0.1-0.3,0.2c-0.2,0.2-0.7,0.7-0.8,0.9s-0.8,0.9-0.9,1.1c-0.1,0.2-0.4,0.6-0.5,0.7
	C58.6,27.4,58.6,27.5,58.7,27.7"/>
<path d="M103.6,33c0.1-0.1,0.2-0.5,0.3-0.9c0,0.1,0,0.2,0,0.2c0,0.2-0.1,0.8-0.1,1.3C103.7,33.4,103.6,33.2,103.6,33 M84.8,27.7
	c0.1,0.2,0,0.3,0,0.4c0.1,0.1,0.2,0.2,0.3,0.2c0.1,0,0.1,0.1,0.2,0.1c0.1,0,0.6,0,0.7-0.1c0.1-0.1,0.1-0.2,0.1-0.3
	c0.1-0.1,0.5-0.3,0.6-0.3c0.1,0,0.5-0.3,0.6-0.3s0.1-0.1,0.1-0.1c0.1,0,0.6,0.1,0.8-0.2c0.1-0.1,0.4,0,0.6,0.2c0.2,0.2,1.9,3,2,3.8
	c0.1,0.9,0.6,1.5,0.8,1.8c0,0.3,0.1,0.6,0.2,1.1c0.2,0.7,0.4,1.7,0.4,2.3s0.2,0.8,0.2,1.1s0.1,1.5,0,1.8c-0.1,0.3-0.6,0.5-0.6,0.8
	c-0.2,0.1-0.4,0.3-0.4,0.3c0,0-0.1,0.1,0.1,0.1s0.7,0.1,0.8,0.1c0.1,0,0.3,0,0.4-0.2s-0.1-0.3-0.1-0.3c0,0,0.1-0.2,0.2-0.3
	s0.2-0.3,0.3-0.3c0.1,0,0.2-0.1,0.2-0.3c0-0.2-0.2-1.6-0.2-1.7c0-0.2,0-0.7,0-0.8c0.1-0.2,0-0.3,0.1-0.8c0-0.3,0-0.2,0.1-0.3
	c0.1,0.1,0.2,0.5,0.2,0.8c0.1,0.6,0.2,0.8,0.2,1.1c0,0.3,0.2,1.5,0.1,1.8c-0.1,0.3-0.5,0.5-0.6,0.8c-0.2,0.1-0.3,0.3-0.4,0.3
	c0,0-0.1,0.1,0.1,0.1c0.2,0,0.7,0,0.8,0c0.1,0,0.3,0,0.4-0.2c0.1-0.2-0.1-0.3-0.2-0.3c0,0,0.1-0.2,0.2-0.3s0.2-0.3,0.3-0.3
	s0.2-0.1,0.2-0.3c0-0.2-0.2-1.6-0.2-1.7s-0.1-0.7,0-0.8c0-0.2,0.1-0.3,0-0.8c-0.1-0.5-0.1-1.2-0.1-1.5c0-0.2,0-0.5,0-0.7
	c0.1,0,0.6,0,1.6,0.1c1.1,0.1,2.2-0.1,2.8-0.3c0.3-0.1,0.8-0.3,1.2-0.5c0.4-0.2,0.8,0,0.9,0.4c0.2,0.5,0.3,0.9,0.4,1.1
	c0.2,0.3,0.7,1.7,0.8,2.1s0.1,1.7,0.1,1.8s0,0.5,0,0.7c0,0.1,0,0.6-0.1,0.8c-0.1,0.2-0.4,0.3-0.6,0.5s-0.3,0.5-0.2,0.6
	c0.1,0.1,0.6,0,0.9,0s0.5-0.1,0.5-0.2c0-0.1-0.2-0.7,0-0.9c0.2-0.2,0.5-0.5,0.4-0.8c-0.2-0.5,0-1.5-0.1-1.8c0-0.3,0-1.1,0.1-1.6
	c0.2,0.4,0.4,0.9,0.5,1c0.2,0.3,0.3,1.6,0.3,1.8c0,0.2,0,0.5,0,0.7c0,0.1,0,0.6,0,0.8s-0.3,0.3-0.5,0.6s-0.3,0.4-0.2,0.5
	s0.6,0.1,0.9,0.1s0.5-0.2,0.5-0.2c-0.1-0.1-0.2-0.7-0.1-0.9c0.1-0.2,0.4-0.6,0.3-0.9c-0.2-0.5-0.2-0.9-0.2-1.4
	c0.1-0.1,0.2-0.2,0.3-0.4c0.3-0.8,0.3-1.8,0.3-2.3c0-0.5-0.4-2.9-0.6-4c-0.2-0.9-0.2-1.2-0.5-1.5c-0.1-0.2-0.3-0.4-0.5-0.5
	c-0.2-0.2-0.6-0.4-0.8-0.5c-0.4-0.1-1.4-0.4-1.8-0.4c-0.3,0-1,0.1-1.7,0.2c-0.7,0.1-2.3,0.3-3.3,0.1c-0.7-0.1-2.9-1.5-3.1-1.7
	c-0.2-0.2-1.6-0.9-1.8-1.1c-0.3-0.2-1.3-0.6-1.5-0.7s-1.1-0.4-1.3-0.5c0,0-0.1,0-0.1,0c-0.1-0.1-0.1-0.2-0.2-0.3
	c-0.1-0.2-0.2-0.3-0.3-0.4c-0.1-0.1-0.1-0.3-0.1-0.3c0-0.1-0.1-0.1-0.1,0c0,0.1,0,0.3,0,0.4c0,0.1,0,0.2,0,0.3
	c-0.1-0.1-0.2-0.2-0.2-0.3c-0.1-0.1-0.1-0.3-0.1-0.3c0-0.1-0.1-0.1-0.1,0c0,0.1,0,0.3,0,0.4c0,0.1,0,0.3,0.1,0.4c0,0.1,0,0.2,0,0.3
	c0,0,0,0.1,0,0.1c-0.1,0.1-0.2,0.1-0.3,0.2c-0.2,0.2-0.7,0.7-0.8,0.9s-0.8,0.9-0.9,1.1c-0.1,0.2-0.4,0.6-0.5,0.7
	C84.7,27.4,84.7,27.5,84.8,27.7"/>
<path d="M129.7,33c0.1-0.1,0.2-0.5,0.3-0.9c0,0.1,0,0.2,0,0.2c0,0.2-0.1,0.8-0.1,1.3C129.8,33.4,129.7,33.2,129.7,33 M110.8,27.7
	c0.1,0.2,0,0.3,0,0.4c0.1,0.1,0.2,0.2,0.3,0.2c0.1,0,0.1,0.1,0.2,0.1c0.1,0,0.6,0,0.7-0.1c0.1-0.1,0.1-0.2,0.1-0.3
	c0.1-0.1,0.5-0.3,0.6-0.3c0.1,0,0.5-0.3,0.6-0.3s0.1-0.1,0.1-0.1c0.1,0,0.6,0.1,0.8-0.2c0.1-0.1,0.4,0,0.6,0.2c0.2,0.2,1.9,3,2,3.8
	c0.1,0.9,0.6,1.5,0.9,1.8c0,0.3,0.1,0.6,0.2,1.1c0.2,0.7,0.4,1.7,0.4,2.3s0.1,0.8,0.1,1.1s0.1,1.5,0,1.8s-0.6,0.5-0.6,0.8
	c-0.1,0.1-0.4,0.3-0.4,0.3c0,0-0.1,0.1,0.1,0.1s0.7,0.1,0.8,0.1c0.1,0,0.3,0,0.4-0.2c0.1-0.2-0.1-0.3-0.1-0.3c0,0,0.1-0.2,0.2-0.3
	s0.2-0.3,0.3-0.3c0.1,0,0.2-0.1,0.2-0.3c0-0.2-0.2-1.6-0.2-1.7c0-0.2,0-0.7,0-0.8c0.1-0.2,0-0.3,0.1-0.8c0-0.3,0-0.2,0.1-0.3
	c0.1,0.1,0.2,0.5,0.2,0.8c0.1,0.6,0.2,0.8,0.2,1.1c0,0.3,0.2,1.5,0.1,1.8c-0.1,0.3-0.5,0.5-0.6,0.8c-0.1,0.1-0.4,0.3-0.4,0.3
	c0,0-0.1,0.1,0.1,0.1c0.2,0,0.7,0,0.8,0c0.1,0,0.3,0,0.4-0.2c0.1-0.2-0.1-0.3-0.1-0.3c0,0,0.1-0.2,0.2-0.3s0.2-0.3,0.3-0.3
	s0.2-0.1,0.2-0.3c0-0.2-0.2-1.6-0.2-1.7s-0.1-0.7,0-0.8c0-0.2,0.1-0.3,0-0.8c-0.1-0.5-0.1-1.2-0.1-1.5c0-0.2,0-0.5,0-0.7
	c0.1,0,0.6,0,1.6,0.1c1.1,0.1,2.1-0.1,2.8-0.3c0.3-0.1,0.8-0.3,1.2-0.5c0.4-0.2,0.8,0,0.9,0.4c0.2,0.5,0.3,0.9,0.4,1.1
	c0.2,0.3,0.6,1.7,0.8,2.1s0.1,1.7,0.1,1.8s0,0.5,0,0.7c0,0.1,0,0.6-0.1,0.8c-0.1,0.2-0.4,0.3-0.5,0.5s-0.3,0.5-0.2,0.6
	c0.1,0.1,0.6,0,0.9,0c0.3,0,0.5-0.1,0.5-0.2s-0.2-0.7,0-0.9s0.5-0.5,0.4-0.8c-0.2-0.5,0-1.5-0.1-1.8c0-0.3,0-1.1,0.1-1.6
	c0.2,0.4,0.4,0.9,0.5,1c0.2,0.3,0.3,1.6,0.3,1.8c0,0.2,0,0.5,0,0.7c0,0.1,0,0.6,0,0.8s-0.3,0.3-0.5,0.6s-0.3,0.4-0.2,0.5
	c0.1,0,0.6,0.1,0.9,0.1s0.5-0.2,0.5-0.2c-0.1-0.1-0.2-0.7-0.1-0.9c0.1-0.2,0.4-0.6,0.3-0.9c-0.2-0.5-0.1-0.9-0.2-1.4
	c0.1-0.1,0.2-0.2,0.3-0.4c0.3-0.8,0.3-1.8,0.3-2.3c0-0.5-0.4-2.9-0.6-4c-0.2-0.9-0.2-1.2-0.5-1.5c-0.1-0.2-0.3-0.4-0.5-0.5
	c-0.2-0.2-0.6-0.4-0.9-0.5c-0.4-0.1-1.4-0.4-1.7-0.4c-0.4,0-1,0.1-1.7,0.2c-0.7,0.1-2.3,0.3-3.3,0.1c-0.7-0.1-2.9-1.5-3.1-1.7
	c-0.2-0.2-1.6-0.9-1.8-1.1c-0.3-0.2-1.3-0.6-1.5-0.7s-1.1-0.4-1.3-0.5c0,0-0.1,0-0.1,0c-0.1-0.1-0.1-0.2-0.2-0.3
	c-0.1-0.2-0.2-0.3-0.3-0.4c-0.1-0.1-0.1-0.3-0.1-0.3c0-0.1-0.1-0.1-0.1,0c0,0.1,0,0.3,0,0.4c0,0.1,0,0.2,0,0.3
	c-0.1-0.1-0.2-0.2-0.2-0.3c-0.1-0.1-0.1-0.3-0.1-0.3c0-0.1-0.1-0.1-0.1,0c0,0.1,0,0.3,0,0.4c0,0.1,0,0.3,0.1,0.4c0,0.1,0,0.2,0,0.3
	c0,0,0,0.1,0,0.1c-0.1,0.1-0.2,0.1-0.3,0.2c-0.2,0.2-0.7,0.7-0.8,0.9s-0.8,0.9-0.9,1.1c-0.1,0.2-0.4,0.6-0.5,0.7
	C110.7,27.4,110.7,27.5,110.8,27.7"/>
<path d="M155.8,33c0.1-0.1,0.2-0.5,0.3-0.9c0,0.1,0,0.2,0,0.2c0,0.2-0.1,0.8-0.1,1.3C155.8,33.4,155.8,33.2,155.8,33 M136.9,27.7
	c0.1,0.2,0,0.3,0,0.4c0.1,0.1,0.2,0.2,0.3,0.2c0.1,0,0.1,0.1,0.2,0.1s0.6,0,0.7-0.1c0.1-0.1,0.1-0.2,0.1-0.3
	c0.1-0.1,0.5-0.3,0.6-0.3c0.1,0,0.5-0.3,0.6-0.3s0.1-0.1,0.1-0.1s0.6,0.1,0.8-0.2c0.1-0.1,0.4,0,0.6,0.2c0.2,0.2,1.9,3,2,3.8
	c0.1,0.9,0.6,1.5,0.9,1.8c0,0.3,0.1,0.6,0.2,1.1c0.2,0.7,0.4,1.7,0.4,2.3s0.1,0.8,0.1,1.1s0.1,1.5,0,1.8s-0.6,0.5-0.6,0.8
	c-0.1,0.1-0.4,0.3-0.4,0.3c0,0-0.1,0.1,0.1,0.1s0.7,0.1,0.8,0.1c0.1,0,0.3,0,0.4-0.2c0.1-0.2-0.1-0.3-0.1-0.3c0,0,0.1-0.2,0.2-0.3
	s0.2-0.3,0.3-0.3c0.1,0,0.2-0.1,0.2-0.3c0-0.2-0.2-1.6-0.2-1.7c0-0.2,0-0.7,0-0.8c0.1-0.2,0-0.3,0.1-0.8c0-0.3,0-0.2,0.1-0.3
	c0.1,0.1,0.2,0.5,0.2,0.8c0.1,0.6,0.2,0.8,0.2,1.1c0,0.3,0.2,1.5,0.1,1.8c-0.1,0.3-0.5,0.5-0.6,0.8c-0.1,0.1-0.4,0.3-0.4,0.3
	c0,0-0.1,0.1,0.1,0.1c0.2,0,0.7,0,0.8,0c0.1,0,0.3,0,0.4-0.2c0.1-0.2-0.1-0.3-0.1-0.3c0,0,0.1-0.2,0.2-0.3s0.2-0.3,0.3-0.3
	s0.2-0.1,0.2-0.3c0-0.2-0.2-1.6-0.2-1.7s-0.1-0.7,0-0.8c0-0.2,0.1-0.3,0-0.8c-0.1-0.5-0.1-1.2-0.1-1.5c0-0.2,0-0.5,0-0.7
	c0.1,0,0.6,0,1.6,0.1c1.1,0.1,2.1-0.1,2.8-0.3c0.3-0.1,0.8-0.3,1.2-0.5c0.4-0.2,0.8,0,0.9,0.4c0.2,0.5,0.3,0.9,0.4,1.1
	c0.2,0.3,0.6,1.7,0.8,2.1s0.1,1.7,0.1,1.8s0,0.5,0,0.7c0,0.1,0,0.6-0.1,0.8c-0.1,0.2-0.4,0.3-0.6,0.5s-0.3,0.5-0.2,0.6
	c0.1,0.1,0.6,0,0.9,0c0.3,0,0.5-0.1,0.5-0.2s-0.2-0.7,0-0.9s0.5-0.5,0.4-0.8c-0.2-0.5,0-1.5-0.1-1.8c0-0.3,0-1.1,0.1-1.6
	c0.2,0.4,0.4,0.9,0.5,1c0.2,0.3,0.3,1.6,0.3,1.8c0,0.2,0,0.5,0,0.7c0,0.1,0,0.6,0,0.8s-0.3,0.3-0.5,0.6s-0.3,0.4-0.2,0.5
	c0.1,0,0.6,0.1,0.9,0.1s0.5-0.2,0.5-0.2c-0.1-0.1-0.2-0.7-0.1-0.9c0.1-0.2,0.4-0.6,0.3-0.9c-0.2-0.5-0.1-0.9-0.2-1.4
	c0.1-0.1,0.2-0.2,0.3-0.4c0.3-0.8,0.3-1.8,0.3-2.3c0-0.5-0.4-2.9-0.6-4c-0.2-0.9-0.2-1.2-0.5-1.5c-0.1-0.2-0.3-0.4-0.5-0.5
	c-0.2-0.2-0.6-0.4-0.9-0.5c-0.4-0.1-1.4-0.4-1.8-0.4c-0.4,0-1,0.1-1.7,0.2c-0.7,0.1-2.3,0.3-3.3,0.1c-0.7-0.1-2.9-1.5-3.1-1.7
	c-0.2-0.2-1.6-0.9-1.8-1.1c-0.3-0.2-1.3-0.6-1.5-0.7s-1.1-0.4-1.3-0.5c0,0-0.1,0-0.1,0c-0.1-0.1-0.1-0.2-0.2-0.3
	c-0.1-0.2-0.2-0.3-0.3-0.4c-0.1-0.1-0.1-0.3-0.1-0.3s-0.1-0.1-0.1,0c0,0.1,0,0.3,0,0.4c0,0.1,0,0.2,0,0.3c-0.1-0.1-0.2-0.2-0.2-0.3
	c-0.1-0.1-0.1-0.3-0.1-0.3s-0.1-0.1-0.1,0c0,0.1,0,0.3,0,0.4c0,0.1,0,0.3,0.1,0.4c0,0.1,0,0.2,0,0.3c0,0,0,0.1,0,0.1
	c-0.1,0.1-0.2,0.1-0.4,0.2c-0.2,0.2-0.7,0.7-0.8,0.9s-0.8,0.9-0.9,1.1c-0.1,0.2-0.4,0.6-0.5,0.7C136.8,27.4,136.8,27.5,136.9,27.7"
	/>
<path d="M181.8,33c0.1-0.1,0.2-0.5,0.3-0.9c0,0.1,0,0.2,0,0.2c0,0.2-0.1,0.8-0.1,1.3C181.9,33.4,181.8,33.2,181.8,33 M163,27.7
	c0.1,0.2,0,0.3,0,0.4c0.1,0.1,0.2,0.2,0.3,0.2c0.1,0,0.1,0.1,0.2,0.1s0.6,0,0.7-0.1c0.1-0.1,0.1-0.2,0.1-0.3
	c0.1-0.1,0.5-0.3,0.6-0.3c0.1,0,0.5-0.3,0.6-0.3s0.1-0.1,0.1-0.1s0.6,0.1,0.8-0.2c0.1-0.1,0.4,0,0.6,0.2c0.2,0.2,1.9,3,2,3.8
	c0.1,0.9,0.6,1.5,0.9,1.8c0,0.3,0.1,0.6,0.2,1.1c0.2,0.7,0.4,1.7,0.4,2.3s0.1,0.8,0.1,1.1s0.1,1.5,0,1.8s-0.6,0.5-0.6,0.8
	c-0.1,0.1-0.4,0.3-0.4,0.3c0,0-0.1,0.1,0.1,0.1s0.7,0.1,0.8,0.1c0.1,0,0.3,0,0.4-0.2c0.1-0.2-0.1-0.3-0.1-0.3c0,0,0.1-0.2,0.2-0.3
	s0.2-0.3,0.3-0.3c0.1,0,0.2-0.1,0.2-0.3c0-0.2-0.2-1.6-0.2-1.7c0-0.2,0-0.7,0-0.8c0.1-0.2,0-0.3,0.1-0.8c0-0.3,0-0.2,0.1-0.3
	c0.1,0.1,0.2,0.5,0.2,0.8c0.1,0.6,0.2,0.8,0.2,1.1c0,0.3,0.2,1.5,0.1,1.8c-0.1,0.3-0.5,0.5-0.6,0.8c-0.1,0.1-0.4,0.3-0.4,0.3
	c0,0-0.1,0.1,0.1,0.1c0.2,0,0.7,0,0.8,0c0.1,0,0.3,0,0.4-0.2c0.1-0.2-0.1-0.3-0.1-0.3c0,0,0.1-0.2,0.2-0.3s0.2-0.3,0.3-0.3
	s0.2-0.1,0.2-0.3c0-0.2-0.2-1.6-0.2-1.7s-0.1-0.7,0-0.8c0-0.2,0.1-0.3,0-0.8c-0.1-0.5-0.1-1.2-0.1-1.5c0-0.2,0-0.5,0-0.7
	c0.1,0,0.6,0,1.6,0.1c1.1,0.1,2.1-0.1,2.8-0.3c0.3-0.1,0.8-0.3,1.2-0.5c0.4-0.2,0.8,0,0.9,0.4c0.2,0.5,0.3,0.9,0.4,1.1
	c0.2,0.3,0.6,1.7,0.8,2.1s0.1,1.7,0.1,1.8s0,0.5,0,0.7c0,0.1,0,0.6-0.1,0.8c-0.1,0.2-0.4,0.3-0.6,0.5s-0.3,0.5-0.2,0.6
	c0.1,0.1,0.6,0,0.9,0c0.3,0,0.5-0.1,0.5-0.2s-0.2-0.7,0-0.9s0.5-0.5,0.4-0.8c-0.2-0.5,0-1.5-0.1-1.8c0-0.3,0-1.1,0.1-1.6
	c0.2,0.4,0.4,0.9,0.5,1c0.2,0.3,0.3,1.6,0.3,1.8c0,0.2,0,0.5,0,0.7c0,0.1,0,0.6,0,0.8s-0.3,0.3-0.5,0.6c-0.2,0.2-0.3,0.4-0.2,0.5
	c0.1,0,0.6,0.1,0.9,0.1s0.5-0.2,0.5-0.2c-0.1-0.1-0.2-0.7-0.1-0.9c0.1-0.2,0.4-0.6,0.3-0.9c-0.2-0.5-0.1-0.9-0.2-1.4
	c0.1-0.1,0.2-0.2,0.3-0.4c0.3-0.8,0.3-1.8,0.3-2.3c0-0.5-0.4-2.9-0.6-4c-0.2-0.9-0.2-1.2-0.5-1.5c-0.1-0.2-0.3-0.4-0.5-0.5
	c-0.2-0.2-0.6-0.4-0.9-0.5c-0.4-0.1-1.4-0.4-1.8-0.4c-0.4,0-1,0.1-1.7,0.2c-0.7,0.1-2.3,0.3-3.3,0.1c-0.7-0.1-2.9-1.5-3.1-1.7
	c-0.2-0.2-1.6-0.9-1.8-1.1c-0.3-0.2-1.3-0.6-1.5-0.7s-1.1-0.4-1.3-0.5c0,0-0.1,0-0.1,0c-0.1-0.1-0.1-0.2-0.2-0.3
	c-0.1-0.2-0.2-0.3-0.3-0.4c-0.1-0.1-0.1-0.3-0.1-0.3s-0.1-0.1-0.1,0c0,0.1,0,0.3,0,0.4c0,0.1,0,0.2,0,0.3c-0.1-0.1-0.2-0.2-0.2-0.3
	c-0.1-0.1-0.1-0.3-0.1-0.3s-0.1-0.1-0.1,0c0,0.1,0,0.3,0,0.4c0,0.1,0,0.3,0.1,0.4c0,0.1,0,0.2,0,0.3c0,0,0,0.1,0,0.1
	c-0.1,0.1-0.2,0.1-0.4,0.2c-0.2,0.2-0.7,0.7-0.8,0.9s-0.8,0.9-0.9,1.1c-0.1,0.2-0.4,0.6-0.5,0.7C162.9,27.4,162.9,27.5,163,27.7"/>
<path d="M207.9,33c0.1-0.1,0.2-0.5,0.3-0.9c0,0.1,0,0.2,0,0.2c0,0.2-0.1,0.8-0.1,1.3C208,33.4,207.9,33.2,207.9,33 M189.1,27.7
	c0.1,0.2,0,0.3,0,0.4c0.1,0.1,0.2,0.2,0.3,0.2c0.1,0,0.1,0.1,0.2,0.1s0.6,0,0.7-0.1c0.1-0.1,0.1-0.2,0.1-0.3
	c0.1-0.1,0.5-0.3,0.6-0.3c0.1,0,0.5-0.3,0.6-0.3s0.1-0.1,0.1-0.1s0.6,0.1,0.8-0.2c0.1-0.1,0.4,0,0.6,0.2c0.2,0.2,1.9,3,2,3.8
	c0.1,0.9,0.6,1.5,0.9,1.8c0,0.3,0.1,0.6,0.2,1.1c0.2,0.7,0.4,1.7,0.4,2.3s0.1,0.8,0.1,1.1s0.1,1.5,0,1.8s-0.6,0.5-0.6,0.8
	c-0.1,0.1-0.4,0.3-0.4,0.3c0,0-0.1,0.1,0.1,0.1s0.7,0.1,0.8,0.1c0.1,0,0.3,0,0.4-0.2c0.1-0.2-0.1-0.3-0.1-0.3c0,0,0.1-0.2,0.2-0.3
	s0.2-0.3,0.3-0.3c0.1,0,0.2-0.1,0.2-0.3c0-0.2-0.2-1.6-0.2-1.7c0-0.2,0-0.7,0-0.8c0.1-0.2,0-0.3,0.1-0.8c0-0.3,0-0.2,0.1-0.3
	c0.1,0.1,0.2,0.5,0.2,0.8c0.1,0.6,0.2,0.8,0.2,1.1c0,0.3,0.2,1.5,0.1,1.8c-0.1,0.3-0.5,0.5-0.6,0.8c-0.1,0.1-0.4,0.3-0.4,0.3
	c0,0-0.1,0.1,0.1,0.1c0.2,0,0.7,0,0.8,0c0.1,0,0.3,0,0.4-0.2c0.1-0.2-0.1-0.3-0.1-0.3c0,0,0.1-0.2,0.2-0.3s0.2-0.3,0.3-0.3
	s0.2-0.1,0.2-0.3c0-0.2-0.2-1.6-0.2-1.7s-0.1-0.7,0-0.8c0-0.2,0.1-0.3,0-0.8c-0.1-0.5-0.1-1.2-0.1-1.5c0-0.2,0-0.5,0-0.7
	c0.1,0,0.6,0,1.6,0.1c1.1,0.1,2.1-0.1,2.8-0.3c0.3-0.1,0.8-0.3,1.2-0.5c0.4-0.2,0.8,0,0.9,0.4c0.2,0.5,0.3,0.9,0.4,1.1
	c0.2,0.3,0.6,1.7,0.8,2.1s0.1,1.7,0.1,1.8s0,0.5,0,0.7c0,0.1,0,0.6-0.1,0.8c-0.1,0.2-0.4,0.3-0.6,0.5s-0.3,0.5-0.2,0.6
	c0.1,0.1,0.6,0,0.9,0c0.3,0,0.5-0.1,0.5-0.2s-0.2-0.7,0-0.9s0.5-0.5,0.4-0.8c-0.2-0.5,0-1.5-0.1-1.8c0-0.3,0-1.1,0.1-1.6
	c0.2,0.4,0.4,0.9,0.5,1c0.2,0.3,0.3,1.6,0.3,1.8c0,0.2,0,0.5,0,0.7c0,0.1,0,0.6,0,0.8s-0.3,0.3-0.5,0.6c-0.2,0.2-0.3,0.4-0.2,0.5
	c0.1,0,0.6,0.1,0.9,0.1s0.5-0.2,0.5-0.2c-0.1-0.1-0.2-0.7-0.1-0.9c0.1-0.2,0.4-0.6,0.3-0.9c-0.2-0.5-0.1-0.9-0.2-1.4
	c0.1-0.1,0.2-0.2,0.3-0.4c0.3-0.8,0.3-1.8,0.3-2.3c0-0.5-0.4-2.9-0.6-4c-0.2-0.9-0.2-1.2-0.5-1.5c-0.1-0.2-0.3-0.4-0.5-0.5
	c-0.2-0.2-0.6-0.4-0.9-0.5c-0.4-0.1-1.4-0.4-1.8-0.4c-0.4,0-1,0.1-1.7,0.2c-0.7,0.1-2.3,0.3-3.3,0.1c-0.7-0.1-2.9-1.5-3.1-1.7
	c-0.2-0.2-1.6-0.9-1.8-1.1c-0.3-0.2-1.3-0.6-1.5-0.7s-1.1-0.4-1.3-0.5c0,0-0.1,0-0.1,0c-0.1-0.1-0.1-0.2-0.2-0.3
	c-0.1-0.2-0.2-0.3-0.3-0.4c-0.1-0.1-0.1-0.3-0.1-0.3s-0.1-0.1-0.1,0c0,0.1,0,0.3,0,0.4c0,0.1,0,0.2,0,0.3c-0.1-0.1-0.2-0.2-0.2-0.3
	c-0.1-0.1-0.1-0.3-0.1-0.3s-0.1-0.1-0.1,0c0,0.1,0,0.3,0,0.4c0,0.1,0,0.3,0.1,0.4c0,0.1,0,0.2,0,0.3c0,0,0,0.1,0,0.1
	c-0.1,0.1-0.2,0.1-0.4,0.2c-0.2,0.2-0.7,0.7-0.8,0.9s-0.8,0.9-0.9,1.1c-0.1,0.2-0.4,0.6-0.5,0.7C188.9,27.4,189,27.5,189.1,27.7"/>
<path d="M77.5,55c0.1-0.1,0.2-0.5,0.3-0.9c0,0.1,0,0.2,0,0.2c0,0.2-0.1,0.8-0.1,1.3C77.6,55.4,77.6,55.2,77.5,55 M58.7,49.7
	c0.1,0.2,0,0.3,0,0.4c0.1,0.1,0.2,0.2,0.3,0.2c0.1,0,0.1,0.1,0.2,0.1c0.1,0,0.6,0,0.7-0.1c0.1-0.1,0.1-0.2,0.1-0.3
	c0.1-0.1,0.5-0.3,0.6-0.3s0.5-0.3,0.6-0.3s0.1-0.1,0.1-0.1c0.1,0,0.6,0.1,0.8-0.2c0.1-0.1,0.4,0,0.6,0.2c0.2,0.2,1.9,3,2,3.8
	c0.1,0.9,0.6,1.5,0.8,1.8c0,0.3,0.1,0.6,0.2,1.1c0.2,0.7,0.4,1.7,0.4,2.3s0.2,0.8,0.2,1.1s0.1,1.5,0,1.8c-0.1,0.3-0.6,0.5-0.6,0.8
	c-0.2,0.1-0.4,0.3-0.4,0.3c0,0-0.1,0.1,0.1,0.1c0.2,0,0.7,0.1,0.8,0.1c0.1,0,0.3,0,0.4-0.2s-0.1-0.3-0.1-0.3c0-0.1,0.1-0.2,0.2-0.3
	c0-0.1,0.2-0.3,0.3-0.3c0.1,0,0.2-0.1,0.2-0.3s-0.2-1.6-0.2-1.7c0-0.2,0-0.7,0-0.8s0-0.3,0.1-0.8c0-0.3,0-0.2,0.1-0.3
	c0.1,0.1,0.2,0.5,0.2,0.8c0.1,0.6,0.2,0.8,0.2,1.1c0,0.3,0.2,1.5,0.1,1.8s-0.5,0.6-0.6,0.8c-0.2,0.1-0.3,0.3-0.4,0.3
	c0,0-0.1,0.1,0.1,0.1c0.2,0,0.7,0,0.8,0s0.3,0,0.4-0.2S68,62.1,68,62.1c0-0.1,0.1-0.2,0.2-0.3s0.2-0.3,0.3-0.3
	c0.1-0.1,0.2-0.1,0.2-0.3s-0.2-1.6-0.2-1.7s-0.1-0.7,0-0.8s0.1-0.3,0-0.8c-0.1-0.5-0.1-1.2-0.1-1.5c0-0.2,0-0.5,0-0.7
	c0.1,0,0.6,0,1.6,0.1c1.1,0.1,2.2-0.1,2.8-0.3c0.3-0.1,0.8-0.3,1.2-0.5c0.4-0.2,0.8,0,0.9,0.4c0.2,0.5,0.3,0.9,0.4,1.1
	c0.2,0.3,0.7,1.7,0.8,2.1s0.1,1.7,0.1,1.8s0,0.5,0,0.7c0,0.1,0,0.6-0.1,0.8c-0.1,0.2-0.4,0.3-0.6,0.5c-0.2,0.2-0.3,0.5-0.2,0.6
	c0.1,0.1,0.6,0,0.9,0.1c0.3,0,0.5-0.1,0.5-0.2c0-0.1-0.2-0.7,0-0.9c0.2-0.2,0.5-0.5,0.4-0.8c-0.2-0.5,0-1.5-0.1-1.8
	c0-0.3,0-1.1,0.1-1.6c0.2,0.4,0.4,0.9,0.5,1c0.2,0.3,0.3,1.6,0.3,1.8c0,0.2,0,0.5,0,0.7c0,0.1,0,0.6,0,0.8s-0.3,0.3-0.5,0.6
	s-0.3,0.4-0.2,0.5s0.6,0.1,0.9,0.1c0.3,0,0.5-0.2,0.5-0.2c-0.1-0.1-0.2-0.7-0.1-0.9s0.4-0.6,0.3-0.9c-0.2-0.4-0.2-0.9-0.2-1.4
	c0.1-0.1,0.2-0.2,0.3-0.4c0.3-0.8,0.3-1.8,0.3-2.3c0-0.5-0.4-2.9-0.6-4c-0.2-0.9-0.2-1.2-0.5-1.5c-0.1-0.2-0.3-0.4-0.5-0.5
	c-0.2-0.2-0.6-0.4-0.8-0.5c-0.4-0.1-1.4-0.4-1.8-0.4c-0.3,0-1,0.1-1.7,0.2c-0.7,0.1-2.3,0.3-3.3,0.1c-0.7-0.1-2.9-1.5-3.1-1.7
	c-0.2-0.2-1.6-0.9-1.8-1.1c-0.3-0.2-1.3-0.6-1.5-0.7s-1.1-0.4-1.3-0.5c0,0-0.1,0-0.1,0c-0.1-0.1-0.1-0.2-0.2-0.3
	c-0.1-0.2-0.2-0.3-0.3-0.4s-0.1-0.3-0.1-0.3s-0.1-0.1-0.1,0c0,0.1,0,0.3,0,0.4c0,0.1,0,0.2,0,0.3c-0.1-0.1-0.2-0.2-0.2-0.3
	c-0.1-0.1-0.1-0.3-0.1-0.3c0-0.1-0.1-0.1-0.1,0c0,0.1,0,0.3,0,0.4c0,0.1,0,0.3,0.1,0.4c0,0.1,0,0.2,0,0.3c0,0,0,0.1,0,0.1
	c-0.1,0.1-0.2,0.1-0.3,0.2c-0.2,0.2-0.7,0.7-0.8,0.9s-0.8,0.9-0.9,1.1c-0.1,0.2-0.4,0.6-0.5,0.7C58.6,49.4,58.6,49.5,58.7,49.7"/>
<path d="M103.6,55c0.1-0.1,0.2-0.5,0.3-0.9c0,0.1,0,0.2,0,0.2c0,0.2-0.1,0.8-0.1,1.3C103.7,55.4,103.6,55.2,103.6,55 M84.8,49.7
	c0.1,0.2,0,0.3,0,0.4c0.1,0.1,0.2,0.2,0.3,0.2c0.1,0,0.1,0.1,0.2,0.1c0.1,0,0.6,0,0.7-0.1c0.1-0.1,0.1-0.2,0.1-0.3
	c0.1-0.1,0.5-0.3,0.6-0.3c0.1,0,0.5-0.3,0.6-0.3s0.1-0.1,0.1-0.1c0.1,0,0.6,0.1,0.8-0.2c0.1-0.1,0.4,0,0.6,0.2c0.2,0.2,1.9,3,2,3.8
	c0.1,0.9,0.6,1.5,0.8,1.8c0,0.3,0.1,0.6,0.2,1.1c0.2,0.7,0.4,1.7,0.4,2.3s0.2,0.8,0.2,1.1s0.1,1.5,0,1.8c-0.1,0.3-0.6,0.5-0.6,0.8
	c-0.2,0.1-0.4,0.3-0.4,0.3c0,0-0.1,0.1,0.1,0.1c0.2,0,0.7,0.1,0.8,0.1c0.1,0,0.3,0,0.4-0.2s-0.1-0.3-0.1-0.3c0-0.1,0.1-0.2,0.2-0.3
	c0-0.1,0.2-0.3,0.3-0.3c0.1,0,0.2-0.1,0.2-0.3s-0.2-1.6-0.2-1.7c0-0.2,0-0.7,0-0.8s0-0.3,0.1-0.8c0-0.3,0-0.2,0.1-0.3
	c0.1,0.1,0.2,0.5,0.2,0.8c0.1,0.6,0.2,0.8,0.2,1.1c0,0.3,0.2,1.5,0.1,1.8s-0.5,0.6-0.6,0.8c-0.2,0.1-0.3,0.3-0.4,0.3
	c0,0-0.1,0.1,0.1,0.1c0.2,0,0.7,0,0.8,0s0.3,0,0.4-0.2s-0.1-0.3-0.2-0.3c0-0.1,0.1-0.2,0.2-0.3s0.2-0.3,0.3-0.3
	c0.1-0.1,0.2-0.1,0.2-0.3c0-0.2-0.2-1.6-0.2-1.7s-0.1-0.7,0-0.8s0.1-0.3,0-0.8c-0.1-0.5-0.1-1.2-0.1-1.5c0-0.2,0-0.5,0-0.7
	c0.1,0,0.6,0,1.6,0.1c1.1,0.1,2.2-0.1,2.8-0.3c0.3-0.1,0.8-0.3,1.2-0.5c0.4-0.2,0.8,0,0.9,0.4c0.2,0.5,0.3,0.9,0.4,1.1
	c0.2,0.3,0.7,1.7,0.8,2.1s0.1,1.7,0.1,1.8s0,0.5,0,0.7c0,0.1,0,0.6-0.1,0.8c-0.1,0.2-0.4,0.3-0.6,0.5c-0.2,0.2-0.3,0.5-0.2,0.6
	c0.1,0.1,0.6,0,0.9,0.1c0.3,0,0.5-0.1,0.5-0.2c0-0.1-0.2-0.7,0-0.9c0.2-0.2,0.5-0.5,0.4-0.8c-0.2-0.5,0-1.5-0.1-1.8
	c0-0.3,0-1.1,0.1-1.6c0.2,0.4,0.4,0.9,0.5,1c0.2,0.3,0.3,1.6,0.3,1.8c0,0.2,0,0.5,0,0.7c0,0.1,0,0.6,0,0.8s-0.3,0.3-0.5,0.6
	s-0.3,0.4-0.2,0.5s0.6,0.1,0.9,0.1c0.3,0,0.5-0.2,0.5-0.2c-0.1-0.1-0.2-0.7-0.1-0.9s0.4-0.6,0.3-0.9c-0.2-0.4-0.2-0.9-0.2-1.4
	c0.1-0.1,0.2-0.2,0.3-0.4c0.3-0.8,0.3-1.8,0.3-2.3c0-0.5-0.4-2.9-0.6-4c-0.2-0.9-0.2-1.2-0.5-1.5c-0.1-0.2-0.3-0.4-0.5-0.5
	c-0.2-0.2-0.6-0.4-0.8-0.5c-0.4-0.1-1.4-0.4-1.8-0.4c-0.3,0-1,0.1-1.7,0.2c-0.7,0.1-2.3,0.3-3.3,0.1c-0.7-0.1-2.9-1.5-3.1-1.7
	c-0.2-0.2-1.6-0.9-1.8-1.1c-0.3-0.2-1.3-0.6-1.5-0.7s-1.1-0.4-1.3-0.5c0,0-0.1,0-0.1,0c-0.1-0.1-0.1-0.2-0.2-0.3
	c-0.1-0.2-0.2-0.3-0.3-0.4s-0.1-0.3-0.1-0.3c0-0.1-0.1-0.1-0.1,0c0,0.1,0,0.3,0,0.4c0,0.1,0,0.2,0,0.3c-0.1-0.1-0.2-0.2-0.2-0.3
	c-0.1-0.1-0.1-0.3-0.1-0.3c0-0.1-0.1-0.1-0.1,0c0,0.1,0,0.3,0,0.4s0,0.3,0.1,0.4c0,0.1,0,0.2,0,0.3c0,0,0,0.1,0,0.1
	c-0.1,0.1-0.2,0.1-0.3,0.2c-0.2,0.2-0.7,0.7-0.8,0.9s-0.8,0.9-0.9,1.1c-0.1,0.2-0.4,0.6-0.5,0.7C84.7,49.4,84.7,49.5,84.8,49.7"/>
<path d="M129.7,55c0.1-0.1,0.2-0.5,0.3-0.9c0,0.1,0,0.2,0,0.2c0,0.2-0.1,0.8-0.1,1.3C129.8,55.4,129.7,55.2,129.7,55 M110.8,49.7
	c0.1,0.2,0,0.3,0,0.4c0.1,0.1,0.2,0.2,0.3,0.2c0.1,0,0.1,0.1,0.2,0.1c0.1,0,0.6,0,0.7-0.1c0.1-0.1,0.1-0.2,0.1-0.3
	c0.1-0.1,0.5-0.3,0.6-0.3c0.1,0,0.5-0.3,0.6-0.3s0.1-0.1,0.1-0.1c0.1,0,0.6,0.1,0.8-0.2c0.1-0.1,0.4,0,0.6,0.2c0.2,0.2,1.9,3,2,3.8
	c0.1,0.9,0.6,1.5,0.9,1.8c0,0.3,0.1,0.6,0.2,1.1c0.2,0.7,0.4,1.7,0.4,2.3s0.1,0.8,0.1,1.1s0.1,1.5,0,1.8c-0.1,0.3-0.6,0.5-0.6,0.8
	c-0.1,0.1-0.4,0.3-0.4,0.3c0,0-0.1,0.1,0.1,0.1c0.2,0,0.7,0.1,0.8,0.1c0.1,0,0.3,0,0.4-0.2c0.1-0.2-0.1-0.3-0.1-0.3
	c0-0.1,0.1-0.2,0.2-0.3c0-0.1,0.2-0.3,0.3-0.3c0.1,0,0.2-0.1,0.2-0.3s-0.2-1.6-0.2-1.7c0-0.2,0-0.7,0-0.8c0.1-0.2,0-0.3,0.1-0.8
	c0-0.3,0-0.2,0.1-0.3c0.1,0.1,0.2,0.5,0.2,0.8c0.1,0.6,0.2,0.8,0.2,1.1c0,0.3,0.2,1.5,0.1,1.8s-0.5,0.6-0.6,0.8
	c-0.1,0.1-0.4,0.3-0.4,0.3c0,0-0.1,0.1,0.1,0.1c0.2,0,0.7,0,0.8,0s0.3,0,0.4-0.2s-0.1-0.3-0.1-0.3c0-0.1,0.1-0.2,0.2-0.3
	s0.2-0.3,0.3-0.3c0.1-0.1,0.2-0.1,0.2-0.3c0-0.2-0.2-1.6-0.2-1.7s-0.1-0.7,0-0.8c0-0.2,0.1-0.3,0-0.8c-0.1-0.5-0.1-1.2-0.1-1.5
	c0-0.2,0-0.5,0-0.7c0.1,0,0.6,0,1.6,0.1c1.1,0.1,2.1-0.1,2.8-0.3c0.3-0.1,0.8-0.3,1.2-0.5c0.4-0.2,0.8,0,0.9,0.4
	c0.2,0.5,0.3,0.9,0.4,1.1c0.2,0.3,0.6,1.7,0.8,2.1s0.1,1.7,0.1,1.8s0,0.5,0,0.7c0,0.1,0,0.6-0.1,0.8c-0.1,0.2-0.4,0.3-0.5,0.5
	c-0.2,0.2-0.3,0.5-0.2,0.6c0.1,0.1,0.6,0,0.9,0.1c0.3,0,0.5-0.1,0.5-0.2c0-0.1-0.2-0.7,0-0.9s0.5-0.5,0.4-0.8
	c-0.2-0.5,0-1.5-0.1-1.8c0-0.3,0-1.1,0.1-1.6c0.2,0.4,0.4,0.9,0.5,1c0.2,0.3,0.3,1.6,0.3,1.8c0,0.2,0,0.5,0,0.7c0,0.1,0,0.6,0,0.8
	s-0.3,0.3-0.5,0.6s-0.3,0.4-0.2,0.5c0.1,0.1,0.6,0.1,0.9,0.1c0.3,0,0.5-0.2,0.5-0.2c-0.1-0.1-0.2-0.7-0.1-0.9s0.4-0.6,0.3-0.9
	c-0.2-0.4-0.1-0.9-0.2-1.4c0.1-0.1,0.2-0.2,0.3-0.4c0.3-0.8,0.3-1.8,0.3-2.3c0-0.5-0.4-2.9-0.6-4c-0.2-0.9-0.2-1.2-0.5-1.5
	c-0.1-0.2-0.3-0.4-0.5-0.5c-0.2-0.2-0.6-0.4-0.9-0.5c-0.4-0.1-1.4-0.4-1.7-0.4c-0.4,0-1,0.1-1.7,0.2c-0.7,0.1-2.3,0.3-3.3,0.1
	c-0.7-0.1-2.9-1.5-3.1-1.7c-0.2-0.2-1.6-0.9-1.8-1.1c-0.3-0.2-1.3-0.6-1.5-0.7s-1.1-0.4-1.3-0.5c0,0-0.1,0-0.1,0
	c-0.1-0.1-0.1-0.2-0.2-0.3c-0.1-0.2-0.2-0.3-0.3-0.4s-0.1-0.3-0.1-0.3c0-0.1-0.1-0.1-0.1,0c0,0.1,0,0.3,0,0.4c0,0.1,0,0.2,0,0.3
	c-0.1-0.1-0.2-0.2-0.2-0.3c-0.1-0.1-0.1-0.3-0.1-0.3c0-0.1-0.1-0.1-0.1,0c0,0.1,0,0.3,0,0.4s0,0.3,0.1,0.4c0,0.1,0,0.2,0,0.3
	c0,0,0,0.1,0,0.1c-0.1,0.1-0.2,0.1-0.3,0.2c-0.2,0.2-0.7,0.7-0.8,0.9s-0.8,0.9-0.9,1.1c-0.1,0.2-0.4,0.6-0.5,0.7
	C110.7,49.4,110.7,49.5,110.8,49.7"/>
<path d="M155.8,55c0.1-0.1,0.2-0.5,0.3-0.9c0,0.1,0,0.2,0,0.2c0,0.2-0.1,0.8-0.1,1.3C155.8,55.4,155.8,55.2,155.8,55 M136.9,49.7
	c0.1,0.2,0,0.3,0,0.4c0.1,0.1,0.2,0.2,0.3,0.2c0.1,0,0.1,0.1,0.2,0.1s0.6,0,0.7-0.1c0.1-0.1,0.1-0.2,0.1-0.3
	c0.1-0.1,0.5-0.3,0.6-0.3c0.1,0,0.5-0.3,0.6-0.3s0.1-0.1,0.1-0.1s0.6,0.1,0.8-0.2c0.1-0.1,0.4,0,0.6,0.2c0.2,0.2,1.9,3,2,3.8
	c0.1,0.9,0.6,1.5,0.9,1.8c0,0.3,0.1,0.6,0.2,1.1c0.2,0.7,0.4,1.7,0.4,2.3s0.1,0.8,0.1,1.1s0.1,1.5,0,1.8c-0.1,0.3-0.6,0.5-0.6,0.8
	c-0.1,0.1-0.4,0.3-0.4,0.3c0,0-0.1,0.1,0.1,0.1c0.2,0,0.7,0.1,0.8,0.1c0.1,0,0.3,0,0.4-0.2c0.1-0.2-0.1-0.3-0.1-0.3
	c0-0.1,0.1-0.2,0.2-0.3c0-0.1,0.2-0.3,0.3-0.3c0.1,0,0.2-0.1,0.2-0.3s-0.2-1.6-0.2-1.7c0-0.2,0-0.7,0-0.8c0.1-0.2,0-0.3,0.1-0.8
	c0-0.3,0-0.2,0.1-0.3c0.1,0.1,0.2,0.5,0.2,0.8c0.1,0.6,0.2,0.8,0.2,1.1c0,0.3,0.2,1.5,0.1,1.8s-0.5,0.6-0.6,0.8
	c-0.1,0.1-0.4,0.3-0.4,0.3c0,0-0.1,0.1,0.1,0.1c0.2,0,0.7,0,0.8,0s0.3,0,0.4-0.2s-0.1-0.3-0.1-0.3c0-0.1,0.1-0.2,0.2-0.3
	s0.2-0.3,0.3-0.3c0.1-0.1,0.2-0.1,0.2-0.3c0-0.2-0.2-1.6-0.2-1.7s-0.1-0.7,0-0.8c0-0.2,0.1-0.3,0-0.8c-0.1-0.5-0.1-1.2-0.1-1.5
	c0-0.2,0-0.5,0-0.7c0.1,0,0.6,0,1.6,0.1c1.1,0.1,2.1-0.1,2.8-0.3c0.3-0.1,0.8-0.3,1.2-0.5c0.4-0.2,0.8,0,0.9,0.4
	c0.2,0.5,0.3,0.9,0.4,1.1c0.2,0.3,0.6,1.7,0.8,2.1s0.1,1.7,0.1,1.8s0,0.5,0,0.7c0,0.1,0,0.6-0.1,0.8c-0.1,0.2-0.4,0.3-0.6,0.5
	c-0.2,0.2-0.3,0.5-0.2,0.6c0.1,0.1,0.6,0,0.9,0.1c0.3,0,0.5-0.1,0.5-0.2c0-0.1-0.2-0.7,0-0.9s0.5-0.5,0.4-0.8
	c-0.2-0.5,0-1.5-0.1-1.8c0-0.3,0-1.1,0.1-1.6c0.2,0.4,0.4,0.9,0.5,1c0.2,0.3,0.3,1.6,0.3,1.8c0,0.2,0,0.5,0,0.7c0,0.1,0,0.6,0,0.8
	s-0.3,0.3-0.5,0.6s-0.3,0.4-0.2,0.5c0.1,0.1,0.6,0.1,0.9,0.1c0.3,0,0.5-0.2,0.5-0.2c-0.1-0.1-0.2-0.7-0.1-0.9s0.4-0.6,0.3-0.9
	c-0.2-0.4-0.1-0.9-0.2-1.4c0.1-0.1,0.2-0.2,0.3-0.4c0.3-0.8,0.3-1.8,0.3-2.3c0-0.5-0.4-2.9-0.6-4c-0.2-0.9-0.2-1.2-0.5-1.5
	c-0.1-0.2-0.3-0.4-0.5-0.5c-0.2-0.2-0.6-0.4-0.9-0.5c-0.4-0.1-1.4-0.4-1.8-0.4c-0.4,0-1,0.1-1.7,0.2c-0.7,0.1-2.3,0.3-3.3,0.1
	c-0.7-0.1-2.9-1.5-3.1-1.7c-0.2-0.2-1.6-0.9-1.8-1.1c-0.3-0.2-1.3-0.6-1.5-0.7s-1.1-0.4-1.3-0.5c0,0-0.1,0-0.1,0
	c-0.1-0.1-0.1-0.2-0.2-0.3c-0.1-0.2-0.2-0.3-0.3-0.4s-0.1-0.3-0.1-0.3s-0.1-0.1-0.1,0c0,0.1,0,0.3,0,0.4c0,0.1,0,0.2,0,0.3
	c-0.1-0.1-0.2-0.2-0.2-0.3c-0.1-0.1-0.1-0.3-0.1-0.3s-0.1-0.1-0.1,0c0,0.1,0,0.3,0,0.4s0,0.3,0.1,0.4c0,0.1,0,0.2,0,0.3
	c0,0,0,0.1,0,0.1c-0.1,0.1-0.2,0.1-0.4,0.2c-0.2,0.2-0.7,0.7-0.8,0.9s-0.8,0.9-0.9,1.1c-0.1,0.2-0.4,0.6-0.5,0.7
	C136.8,49.4,136.8,49.5,136.9,49.7"/>
<path d="M181.8,55c0.1-0.1,0.2-0.5,0.3-0.9c0,0.1,0,0.2,0,0.2c0,0.2-0.1,0.8-0.1,1.3C181.9,55.4,181.8,55.2,181.8,55 M163,49.7
	c0.1,0.2,0,0.3,0,0.4c0.1,0.1,0.2,0.2,0.3,0.2c0.1,0,0.1,0.1,0.2,0.1s0.6,0,0.7-0.1c0.1-0.1,0.1-0.2,0.1-0.3
	c0.1-0.1,0.5-0.3,0.6-0.3c0.1,0,0.5-0.3,0.6-0.3s0.1-0.1,0.1-0.1s0.6,0.1,0.8-0.2c0.1-0.1,0.4,0,0.6,0.2c0.2,0.2,1.9,3,2,3.8
	c0.1,0.9,0.6,1.5,0.9,1.8c0,0.3,0.1,0.6,0.2,1.1c0.2,0.7,0.4,1.7,0.4,2.3s0.1,0.8,0.1,1.1s0.1,1.5,0,1.8c-0.1,0.3-0.6,0.5-0.6,0.8
	c-0.1,0.1-0.4,0.3-0.4,0.3c0,0-0.1,0.1,0.1,0.1c0.2,0,0.7,0.1,0.8,0.1c0.1,0,0.3,0,0.4-0.2c0.1-0.2-0.1-0.3-0.1-0.3
	c0-0.1,0.1-0.2,0.2-0.3c0-0.1,0.2-0.3,0.3-0.3c0.1,0,0.2-0.1,0.2-0.3s-0.2-1.6-0.2-1.7c0-0.2,0-0.7,0-0.8c0.1-0.2,0-0.3,0.1-0.8
	c0-0.3,0-0.2,0.1-0.3c0.1,0.1,0.2,0.5,0.2,0.8c0.1,0.6,0.2,0.8,0.2,1.1c0,0.3,0.2,1.5,0.1,1.8s-0.5,0.6-0.6,0.8
	c-0.1,0.1-0.4,0.3-0.4,0.3c0,0-0.1,0.1,0.1,0.1c0.2,0,0.7,0,0.8,0s0.3,0,0.4-0.2s-0.1-0.3-0.1-0.3c0-0.1,0.1-0.2,0.2-0.3
	s0.2-0.3,0.3-0.3c0.1-0.1,0.2-0.1,0.2-0.3c0-0.2-0.2-1.6-0.2-1.7s-0.1-0.7,0-0.8c0-0.2,0.1-0.3,0-0.8c-0.1-0.5-0.1-1.2-0.1-1.5
	c0-0.2,0-0.5,0-0.7c0.1,0,0.6,0,1.6,0.1c1.1,0.1,2.1-0.1,2.8-0.3c0.3-0.1,0.8-0.3,1.2-0.5c0.4-0.2,0.8,0,0.9,0.4
	c0.2,0.5,0.3,0.9,0.4,1.1c0.2,0.3,0.6,1.7,0.8,2.1s0.1,1.7,0.1,1.8s0,0.5,0,0.7c0,0.1,0,0.6-0.1,0.8c-0.1,0.2-0.4,0.3-0.6,0.5
	c-0.2,0.2-0.3,0.5-0.2,0.6c0.1,0.1,0.6,0,0.9,0.1c0.3,0,0.5-0.1,0.5-0.2c0-0.1-0.2-0.7,0-0.9s0.5-0.5,0.4-0.8
	c-0.2-0.5,0-1.5-0.1-1.8c0-0.3,0-1.1,0.1-1.6c0.2,0.4,0.4,0.9,0.5,1c0.2,0.3,0.3,1.6,0.3,1.8c0,0.2,0,0.5,0,0.7c0,0.1,0,0.6,0,0.8
	s-0.3,0.3-0.5,0.6c-0.2,0.2-0.3,0.4-0.2,0.5s0.6,0.1,0.9,0.1c0.3,0,0.5-0.2,0.5-0.2c-0.1-0.1-0.2-0.7-0.1-0.9s0.4-0.6,0.3-0.9
	c-0.2-0.4-0.1-0.9-0.2-1.4c0.1-0.1,0.2-0.2,0.3-0.4c0.3-0.8,0.3-1.8,0.3-2.3c0-0.5-0.4-2.9-0.6-4c-0.2-0.9-0.2-1.2-0.5-1.5
	c-0.1-0.2-0.3-0.4-0.5-0.5c-0.2-0.2-0.6-0.4-0.9-0.5c-0.4-0.1-1.4-0.4-1.8-0.4c-0.4,0-1,0.1-1.7,0.2c-0.7,0.1-2.3,0.3-3.3,0.1
	c-0.7-0.1-2.9-1.5-3.1-1.7c-0.2-0.2-1.6-0.9-1.8-1.1c-0.3-0.2-1.3-0.6-1.5-0.7s-1.1-0.4-1.3-0.5c0,0-0.1,0-0.1,0
	c-0.1-0.1-0.1-0.2-0.2-0.3c-0.1-0.2-0.2-0.3-0.3-0.4s-0.1-0.3-0.1-0.3s-0.1-0.1-0.1,0c0,0.1,0,0.3,0,0.4c0,0.1,0,0.2,0,0.3
	c-0.1-0.1-0.2-0.2-0.2-0.3c-0.1-0.1-0.1-0.3-0.1-0.3s-0.1-0.1-0.1,0c0,0.1,0,0.3,0,0.4c0,0.1,0,0.3,0.1,0.4c0,0.1,0,0.2,0,0.3
	c0,0,0,0.1,0,0.1c-0.1,0.1-0.2,0.1-0.4,0.2c-0.2,0.2-0.7,0.7-0.8,0.9s-0.8,0.9-0.9,1.1c-0.1,0.2-0.4,0.6-0.5,0.7
	C162.9,49.4,162.9,49.5,163,49.7"/>
<path d="M207.9,55c0.1-0.1,0.2-0.5,0.3-0.9c0,0.1,0,0.2,0,0.2c0,0.2-0.1,0.8-0.1,1.3C208,55.4,207.9,55.2,207.9,55 M189.1,49.7
	c0.1,0.2,0,0.3,0,0.4s0.2,0.2,0.3,0.2c0.1,0,0.1,0.1,0.2,0.1s0.6,0,0.7-0.1c0.1-0.1,0.1-0.2,0.1-0.3c0.1-0.1,0.5-0.3,0.6-0.3
	c0.1,0,0.5-0.3,0.6-0.3s0.1-0.1,0.1-0.1s0.6,0.1,0.8-0.2c0.1-0.1,0.4,0,0.6,0.2c0.2,0.2,1.9,3,2,3.8c0.1,0.9,0.6,1.5,0.9,1.8
	c0,0.3,0.1,0.6,0.2,1.1c0.2,0.7,0.4,1.7,0.4,2.3s0.1,0.8,0.1,1.1s0.1,1.5,0,1.8c-0.1,0.3-0.6,0.5-0.6,0.8c-0.1,0.1-0.4,0.3-0.4,0.3
	c0,0-0.1,0.1,0.1,0.1c0.2,0,0.7,0.1,0.8,0.1c0.1,0,0.3,0,0.4-0.2c0.1-0.2-0.1-0.3-0.1-0.3c0-0.1,0.1-0.2,0.2-0.3
	c0-0.1,0.2-0.3,0.3-0.3c0.1,0,0.2-0.1,0.2-0.3s-0.2-1.6-0.2-1.7c0-0.2,0-0.7,0-0.8c0.1-0.2,0-0.3,0.1-0.8c0-0.3,0-0.2,0.1-0.3
	c0.1,0.1,0.2,0.5,0.2,0.8c0.1,0.6,0.2,0.8,0.2,1.1c0,0.3,0.2,1.5,0.1,1.8s-0.5,0.6-0.6,0.8c-0.1,0.1-0.4,0.3-0.4,0.3
	c0,0-0.1,0.1,0.1,0.1c0.2,0,0.7,0,0.8,0s0.3,0,0.4-0.2s-0.1-0.3-0.1-0.3c0-0.1,0.1-0.2,0.2-0.3s0.2-0.3,0.3-0.3
	c0.1-0.1,0.2-0.1,0.2-0.3c0-0.2-0.2-1.6-0.2-1.7s-0.1-0.7,0-0.8c0-0.2,0.1-0.3,0-0.8c-0.1-0.5-0.1-1.2-0.1-1.5c0-0.2,0-0.5,0-0.7
	c0.1,0,0.6,0,1.6,0.1c1.1,0.1,2.1-0.1,2.8-0.3c0.3-0.1,0.8-0.3,1.2-0.5c0.4-0.2,0.8,0,0.9,0.4c0.2,0.5,0.3,0.9,0.4,1.1
	c0.2,0.3,0.6,1.7,0.8,2.1s0.1,1.7,0.1,1.8s0,0.5,0,0.7c0,0.1,0,0.6-0.1,0.8c-0.1,0.2-0.4,0.3-0.6,0.5c-0.2,0.2-0.3,0.5-0.2,0.6
	c0.1,0.1,0.6,0,0.9,0.1c0.3,0,0.5-0.1,0.5-0.2c0-0.1-0.2-0.7,0-0.9s0.5-0.5,0.4-0.8c-0.2-0.5,0-1.5-0.1-1.8c0-0.3,0-1.1,0.1-1.6
	c0.2,0.4,0.4,0.9,0.5,1c0.2,0.3,0.3,1.6,0.3,1.8c0,0.2,0,0.5,0,0.7c0,0.1,0,0.6,0,0.8s-0.3,0.3-0.5,0.6c-0.2,0.2-0.3,0.4-0.2,0.5
	c0.1,0.1,0.6,0.1,0.9,0.1c0.3,0,0.5-0.2,0.5-0.2c-0.1-0.1-0.2-0.7-0.1-0.9s0.4-0.6,0.3-0.9c-0.2-0.4-0.1-0.9-0.2-1.4
	c0.1-0.1,0.2-0.2,0.3-0.4c0.3-0.8,0.3-1.8,0.3-2.3c0-0.5-0.4-2.9-0.6-4c-0.2-0.9-0.2-1.2-0.5-1.5c-0.1-0.2-0.3-0.4-0.5-0.5
	c-0.2-0.2-0.6-0.4-0.9-0.5c-0.4-0.1-1.4-0.4-1.8-0.4c-0.4,0-1,0.1-1.7,0.2c-0.7,0.1-2.3,0.3-3.3,0.1c-0.7-0.1-2.9-1.5-3.1-1.7
	c-0.2-0.2-1.6-0.9-1.8-1.1c-0.3-0.2-1.3-0.6-1.5-0.7s-1.1-0.4-1.3-0.5c0,0-0.1,0-0.1,0c-0.1-0.1-0.1-0.2-0.2-0.3
	c-0.1-0.2-0.2-0.3-0.3-0.4s-0.1-0.3-0.1-0.3s-0.1-0.1-0.1,0c0,0.1,0,0.3,0,0.4c0,0.1,0,0.2,0,0.3c-0.1-0.1-0.2-0.2-0.2-0.3
	c-0.1-0.1-0.1-0.3-0.1-0.3s-0.1-0.1-0.1,0c0,0.1,0,0.3,0,0.4c0,0.1,0,0.3,0.1,0.4c0,0.1,0,0.2,0,0.3c0,0,0,0.1,0,0.1
	c-0.1,0.1-0.2,0.1-0.4,0.2c-0.2,0.2-0.7,0.7-0.8,0.9s-0.8,0.9-0.9,1.1c-0.1,0.2-0.4,0.6-0.5,0.7C188.9,49.4,189,49.5,189.1,49.7"/>
<path d="M33,60.6c-0.1-0.2-0.2-0.4-0.2-0.7s0.1-0.6,0.2-0.7c0.1-0.2,0.3-0.2,0.5-0.2c0.2,0,0.4,0.1,0.5,0.2c0.1,0.2,0.2,0.4,0.2,0.8
	V60c0,0.3-0.1,0.5-0.2,0.7c-0.1,0.1-0.3,0.2-0.5,0.2C33.3,60.9,33.1,60.8,33,60.6 M34.1,61.1L34.1,61.1l0.2,0.4H35V57h-0.9v1
	c0,0.2,0,0.4,0.1,0.7h0c-0.2-0.3-0.5-0.5-0.9-0.5c-0.4,0-0.7,0.2-0.9,0.4C32.1,59,32,59.4,32,59.9c0,0.5,0.1,0.9,0.3,1.2
	c0.2,0.3,0.5,0.4,0.9,0.4C33.6,61.6,33.9,61.4,34.1,61.1 M31,59.4c0-0.4-0.1-0.7-0.3-0.9c-0.2-0.2-0.5-0.3-0.9-0.3
	c-0.2,0-0.4,0-0.6,0.1c-0.2,0.1-0.3,0.2-0.4,0.4h0l-0.1-0.4H28v3.2h0.9V60c0-0.4,0.1-0.7,0.2-0.8c0.1-0.2,0.3-0.2,0.5-0.2
	c0.2,0,0.3,0.1,0.4,0.2c0.1,0.1,0.1,0.3,0.1,0.5v1.9H31L31,59.4L31,59.4z M26,60.3c0,0.2-0.1,0.3-0.2,0.5s-0.3,0.2-0.5,0.2
	c-0.3,0-0.4-0.1-0.4-0.4c0-0.2,0.1-0.3,0.2-0.4c0.1-0.1,0.3-0.1,0.6-0.1l0.3,0L26,60.3L26,60.3z M26.9,61.5v-2.2
	c0-0.4-0.1-0.7-0.3-0.9s-0.6-0.3-1-0.3c-0.5,0-0.9,0.1-1.2,0.3l0.3,0.6c0.3-0.2,0.7-0.2,0.9-0.2c0.3,0,0.5,0.2,0.5,0.5v0.1l-0.6,0
	c-0.5,0-0.8,0.1-1.1,0.3c-0.2,0.2-0.4,0.4-0.4,0.8c0,0.3,0.1,0.6,0.3,0.8s0.4,0.3,0.7,0.3c0.2,0,0.5,0,0.6-0.1s0.3-0.2,0.5-0.4h0
	l0.2,0.5H26.9z M23,57h-0.9v4.5H23V57z M20.5,61.5c0.2,0,0.3-0.1,0.5-0.2v-0.7c-0.2,0.1-0.4,0.2-0.5,0.2c-0.2,0-0.4,0.1-0.6,0.1
	c-0.2,0-0.5-0.1-0.6-0.2s-0.2-0.3-0.2-0.6h2.1v-0.4c0-0.5-0.1-0.8-0.4-1.1c-0.3-0.3-0.6-0.4-1.1-0.4c-0.5,0-0.9,0.2-1.1,0.4
	c-0.3,0.3-0.4,0.7-0.4,1.3c0,0.5,0.2,0.9,0.4,1.2c0.3,0.3,0.7,0.4,1.2,0.4C20.1,61.6,20.3,61.6,20.5,61.5 M20.2,59
	c0.1,0.1,0.2,0.3,0.2,0.5h-1.2c0-0.2,0.1-0.4,0.2-0.5c0.1-0.1,0.2-0.2,0.4-0.2C19.9,58.8,20.1,58.9,20.2,59 M17.3,59.4
	c0-0.4-0.1-0.7-0.3-0.9c-0.2-0.2-0.5-0.3-0.9-0.3c-0.2,0-0.4,0-0.6,0.1s-0.3,0.2-0.4,0.4h0l-0.1-0.4h-0.7v3.2h0.9V60
	c0-0.4,0.1-0.7,0.2-0.8c0.1-0.2,0.3-0.2,0.5-0.2c0.2,0,0.3,0.1,0.4,0.2c0.1,0.1,0.1,0.3,0.1,0.5v1.9h0.9V59.4z M12.6,61.5
	c0.2,0,0.3-0.1,0.5-0.2v-0.7c-0.2,0.1-0.4,0.2-0.5,0.2c-0.2,0-0.4,0.1-0.6,0.1c-0.2,0-0.5-0.1-0.6-0.2s-0.2-0.3-0.2-0.6h2.1v-0.4
	c0-0.5-0.1-0.8-0.4-1.1c-0.3-0.3-0.6-0.4-1.1-0.4c-0.5,0-0.9,0.2-1.1,0.4c-0.3,0.3-0.4,0.7-0.4,1.3c0,0.5,0.1,0.9,0.4,1.2
	s0.7,0.4,1.2,0.4C12.2,61.6,12.4,61.6,12.6,61.5 M12.3,59c0.1,0.1,0.2,0.3,0.2,0.5h-1.2c0-0.2,0.1-0.4,0.2-0.5
	c0.1-0.1,0.2-0.2,0.4-0.2S12.2,58.9,12.3,59 M8.8,61.5c0.2,0,0.3-0.1,0.5-0.2v-0.7c-0.2,0.1-0.4,0.2-0.5,0.2c-0.2,0-0.4,0.1-0.6,0.1
	c-0.2,0-0.5-0.1-0.6-0.2s-0.2-0.3-0.2-0.6h2.1v-0.4c0-0.5-0.1-0.8-0.4-1.1s-0.6-0.4-1.1-0.4c-0.5,0-0.9,0.2-1.1,0.4
	c-0.3,0.3-0.4,0.7-0.4,1.3c0,0.5,0.1,0.9,0.4,1.2s0.7,0.4,1.2,0.4C8.4,61.6,8.7,61.6,8.8,61.5 M8.5,59c0.1,0.1,0.2,0.3,0.2,0.5H7.4
	c0-0.2,0.1-0.4,0.2-0.5c0.1-0.1,0.2-0.2,0.4-0.2C8.2,58.8,8.4,58.9,8.5,59 M4.6,59.2l1.5-1.9h-1l-1.1,1.4l-0.4,0.5v-1.9H2.7v4.2h0.9
	V60L4,59.7l1.1,1.8h1L4.6,59.2z"/>
<path d="M28.6,53.9c-0.1-0.1-0.1-0.2-0.1-0.3v-1.6h0.9v-0.7h-0.9v-0.7h-0.6l-0.3,0.7l-0.5,0.3v0.4h0.4v1.6c0,0.4,0.1,0.6,0.2,0.8
	s0.4,0.3,0.8,0.3c0.3,0,0.6,0,0.8-0.2v-0.7C29.2,54,29,54,28.8,54C28.7,54,28.6,54,28.6,53.9 M25.5,53.4c0,0.2-0.1,0.3-0.2,0.5
	c-0.1,0.1-0.3,0.2-0.5,0.2c-0.3,0-0.4-0.1-0.4-0.4c0-0.2,0.1-0.3,0.2-0.4c0.1-0.1,0.3-0.1,0.6-0.1l0.3,0L25.5,53.4L25.5,53.4z
	 M26.4,54.7v-2.2c0-0.4-0.1-0.7-0.3-0.9s-0.6-0.3-1-0.3c-0.5,0-0.9,0.1-1.2,0.3l0.3,0.6c0.3-0.2,0.7-0.2,0.9-0.2
	c0.3,0,0.5,0.2,0.5,0.5v0.1l-0.6,0c-0.5,0-0.8,0.1-1.1,0.3s-0.4,0.4-0.4,0.8c0,0.3,0.1,0.6,0.3,0.8c0.2,0.2,0.4,0.3,0.7,0.3
	c0.2,0,0.5,0,0.6-0.1s0.3-0.2,0.5-0.4h0l0.2,0.4L26.4,54.7L26.4,54.7z M18.9,53.8c-0.1-0.2-0.2-0.4-0.2-0.7s0-0.6,0.2-0.7
	s0.3-0.2,0.5-0.2c0.2,0,0.4,0.1,0.5,0.2c0.1,0.2,0.2,0.4,0.2,0.8v0.1c0,0.3-0.1,0.5-0.2,0.7C19.7,54,19.6,54,19.3,54
	C19.1,54,19,53.9,18.9,53.8 M20,54.3L20,54.3l0.2,0.4h0.7v-4.5H20v1c0,0.2,0,0.4,0.1,0.7h0c-0.2-0.3-0.5-0.5-0.9-0.5
	c-0.4,0-0.7,0.2-0.9,0.5c-0.2,0.3-0.3,0.7-0.3,1.2c0,0.5,0.1,0.9,0.3,1.2c0.2,0.3,0.5,0.5,0.9,0.5C19.5,54.7,19.8,54.6,20,54.3
	 M16.8,50.2h-0.9v4.5h0.9V50.2z M14.8,52.2c-0.1-0.2-0.3-0.5-0.5-0.6c-0.2-0.1-0.5-0.2-0.8-0.2c-0.5,0-0.9,0.2-1.2,0.4
	c-0.3,0.3-0.4,0.7-0.4,1.2c0,0.3,0.1,0.6,0.2,0.9c0.1,0.3,0.3,0.5,0.5,0.6s0.5,0.2,0.8,0.2c0.5,0,0.9-0.2,1.2-0.5s0.4-0.7,0.4-1.2
	C15,52.7,14.9,52.4,14.8,52.2 M12.9,52.3c0.1-0.2,0.3-0.2,0.5-0.2c0.2,0,0.4,0.1,0.5,0.2s0.2,0.4,0.2,0.7s0,0.6-0.2,0.7
	c-0.1,0.2-0.3,0.2-0.5,0.2s-0.4-0.1-0.5-0.2c-0.1-0.2-0.2-0.4-0.2-0.7C12.7,52.7,12.8,52.5,12.9,52.3 M10.8,52.8
	c-0.1-0.2-0.4-0.4-0.8-0.6c-0.3-0.1-0.5-0.2-0.6-0.3c-0.1-0.1-0.1-0.1-0.2-0.2c0-0.1-0.1-0.1-0.1-0.2c0-0.1,0-0.2,0.1-0.3
	s0.2-0.1,0.4-0.1c0.1,0,0.3,0,0.4,0.1s0.3,0.1,0.6,0.2l0.3-0.7c-0.2-0.1-0.4-0.2-0.6-0.2c-0.2,0-0.4-0.1-0.6-0.1
	c-0.5,0-0.8,0.1-1.1,0.3c-0.2,0.2-0.4,0.5-0.4,0.9c0,0.2,0,0.4,0.1,0.5s0.2,0.3,0.3,0.4s0.3,0.2,0.6,0.3c0.3,0.1,0.5,0.2,0.5,0.3
	s0.2,0.1,0.2,0.2s0.1,0.1,0.1,0.2c0,0.2,0,0.3-0.2,0.3S9.7,54,9.5,54c-0.2,0-0.4,0-0.5-0.1c-0.2,0-0.4-0.1-0.7-0.3v0.8
	c0.4,0.2,0.8,0.3,1.2,0.3c0.5,0,0.9-0.1,1.1-0.3s0.4-0.5,0.4-0.9C11,53.2,11,53,10.8,52.8"/>
<path d="M21.3,44.6h0.3c-0.1-0.5-0.2-1-0.2-1.5c0-1.8,0.9-3.2,2.8-3.2c3.5,0,5.1,5.1,9.2,5.1c3,0,4-3,4-5.8c0-1.3-0.2-2.6-0.4-3.6
	h-0.2c0.1,0.5,0.1,0.9,0.1,1.2c0,2.1-1.3,2.7-3.2,2.7c-2.2,0-4.2-0.8-6.9-0.8c-2.8,0-4.4,0.9-5.1,2.5c0.2-0.6,0.6-1.1,1.1-1.7
	c4.6-5,14.1-3.8,14.1-9.7c0-3.7-3.7-5.5-8-5.5c-5.5,0-8.3,3-8.3,5.4c0,1.5,1,2.9,2.7,2.9c1.5,0,2.7-1.2,2.7-2.8c0-1.4-1-2.5-2.2-2.8
	c0.6-1.3,1.7-2.4,3.7-2.4c2.4,0,3.7,1.6,3.7,4.1c0,5.1-5.4,7.1-8.3,10.3C21.2,40.7,20.8,42.1,21.3,44.6 M0.8,44.6h0.3
	c-0.1-0.5-0.2-1-0.2-1.5c0-1.8,0.9-3.2,2.8-3.2c3.5,0,5.1,5.1,9.2,5.1c3,0,4-3,4-5.8c0-1.3-0.2-2.6-0.4-3.6h-0.2
	c0.1,0.5,0.1,0.9,0.1,1.2c0,2.1-1.3,2.7-3.3,2.7c-2.1,0-4.2-0.8-6.9-0.8c-2.8,0-4.4,0.9-5.1,2.5c0.2-0.6,0.6-1.1,1.1-1.7
	c4.6-4.9,14.1-3.8,14.1-9.7c0-3.7-3.7-5.5-8-5.5c-5.5,0-8.3,3-8.3,5.4c0,1.5,1,2.9,2.7,2.9c1.5,0,2.7-1.2,2.7-2.8
	c0-1.4-1-2.5-2.2-2.8c0.6-1.3,1.7-2.4,3.7-2.4c2.4,0,3.7,1.6,3.7,4.1c0,5.1-5.4,7.1-8.3,10.3C0.7,40.7,0.3,42.1,0.8,44.6"/>
<line class="st0" x1="48.4" y1="0.1" x2="48.4" y2="85.8"/>
<line class="st0" x1="47.8" y1="0.1" x2="49" y2="0.1"/>
<line class="st0" x1="47.8" y1="85.8" x2="49" y2="85.8"/>
<g>
	<path class="st1" d="M77.3,172.7c0-0.1,0.2-0.5,0.3-0.9c0,0.1,0,0.2,0,0.2c0,0.2-0.1,0.8-0.1,1.3C77.4,173.1,77.3,172.9,77.3,172.7
		 M58.5,167.4c0.1,0.2,0,0.3,0,0.4c0.1,0.1,0.2,0.2,0.3,0.2c0.1,0,0.1,0.1,0.2,0.1c0.1,0,0.6,0,0.7-0.1s0-0.2,0.1-0.3
		c0.1-0.1,0.5-0.3,0.6-0.3c0.1,0,0.5-0.3,0.5-0.3c0.1-0.1,0.1-0.1,0.1-0.1c0,0,0.6,0.1,0.8-0.2c0.1-0.1,0.4,0,0.6,0.2
		c0.2,0.2,1.9,3,2,3.8c0.1,0.9,0.6,1.5,0.9,1.8c0,0.3,0.1,0.6,0.2,1.1c0.2,0.7,0.4,1.7,0.4,2.3c0,0.6,0.1,0.8,0.1,1.1s0.1,1.5,0,1.8
		c-0.1,0.3-0.5,0.5-0.6,0.8c-0.1,0.1-0.4,0.3-0.4,0.3c0,0-0.1,0.1,0.1,0.1c0.2,0,0.7,0.1,0.8,0.1c0.1,0,0.3,0,0.4-0.2
		s-0.1-0.3-0.1-0.3c0-0.1,0.1-0.2,0.2-0.3c0-0.1,0.2-0.3,0.3-0.3c0.1,0,0.2-0.1,0.2-0.3c0-0.2-0.2-1.6-0.2-1.7c0-0.2,0-0.7,0-0.8
		c0-0.2,0-0.3,0.1-0.8c0-0.3,0-0.2,0.1-0.3c0.1,0.1,0.2,0.5,0.2,0.9c0,0.6,0.2,0.8,0.2,1.1c0,0.3,0.2,1.5,0,1.8
		c-0.1,0.3-0.5,0.6-0.6,0.8c-0.1,0.1-0.4,0.3-0.4,0.3s-0.1,0.1,0.1,0.1c0.2,0,0.7,0,0.8,0c0.1,0,0.3,0,0.4-0.2
		c0.1-0.2-0.1-0.3-0.1-0.3s0.1-0.2,0.2-0.3s0.2-0.3,0.3-0.3c0.1-0.1,0.2-0.1,0.2-0.3s-0.2-1.6-0.2-1.7s-0.1-0.7,0-0.8s0.1-0.3,0-0.8
		c-0.1-0.5-0.1-1.2-0.1-1.5c0-0.2,0-0.4,0-0.7c0.1,0,0.6,0,1.6,0.1c1.1,0.1,2.1-0.1,2.8-0.3c0.3-0.1,0.8-0.3,1.2-0.5
		c0.4-0.2,0.8,0,0.9,0.4c0.2,0.5,0.3,0.9,0.4,1.1c0.2,0.4,0.6,1.7,0.8,2.1c0.1,0.4,0.1,1.7,0.1,1.8c0,0.1,0,0.5,0,0.6
		c0,0.1,0,0.6-0.1,0.8c0,0.2-0.4,0.3-0.5,0.5c-0.2,0.2-0.3,0.5-0.2,0.6c0.1,0.1,0.6,0,0.9,0.1c0.3,0,0.5-0.1,0.5-0.2s-0.2-0.7,0-0.9
		s0.5-0.5,0.4-0.8c-0.2-0.5,0-1.5,0-1.8c0-0.3,0-1.1,0.1-1.6c0.2,0.4,0.4,0.9,0.5,1c0.2,0.3,0.3,1.6,0.3,1.8c0,0.1,0,0.5,0,0.6
		c0,0.1,0,0.6,0,0.8c0,0.2-0.3,0.3-0.5,0.6s-0.3,0.4-0.2,0.5s0.6,0.1,0.9,0.1c0.3,0,0.5-0.2,0.5-0.2c0-0.1-0.2-0.7-0.1-0.9
		c0.1-0.2,0.4-0.6,0.3-0.9c-0.2-0.4-0.1-0.9-0.2-1.4c0.1-0.1,0.2-0.2,0.3-0.4c0.3-0.8,0.3-1.8,0.3-2.3c0-0.5-0.4-2.9-0.6-4
		c-0.2-0.9-0.2-1.2-0.5-1.5c-0.1-0.2-0.3-0.4-0.5-0.5c-0.2-0.2-0.6-0.4-0.9-0.4c-0.4-0.1-1.4-0.4-1.8-0.4c-0.4,0-1,0.1-1.7,0.2
		c-0.7,0.1-2.3,0.3-3.3,0.1c-0.7-0.1-2.9-1.5-3.1-1.7s-1.6-0.9-1.8-1.1c-0.3-0.2-1.3-0.6-1.5-0.7c-0.2-0.1-1-0.4-1.3-0.4
		c0,0,0,0-0.1,0c-0.1-0.1-0.1-0.2-0.2-0.3c-0.1-0.2-0.2-0.3-0.3-0.4c-0.1-0.1-0.1-0.3-0.1-0.3s-0.1-0.1-0.1,0c0,0.1,0,0.3,0,0.4
		c0,0.1,0,0.2,0,0.3c-0.1-0.1-0.2-0.2-0.2-0.3c-0.1-0.1-0.1-0.3-0.1-0.3s-0.1-0.1-0.1,0c0,0.1,0,0.3,0,0.4c0,0.1,0,0.3,0.1,0.4
		c0,0.1,0,0.2,0,0.3c0,0,0,0.1,0,0.1c-0.1,0.1-0.2,0.1-0.4,0.2c-0.2,0.2-0.7,0.7-0.8,0.9s-0.8,0.9-0.9,1.1c-0.1,0.2-0.4,0.6-0.5,0.7
		C58.4,167.1,58.4,167.2,58.5,167.4"/>
	<path class="st1" d="M77.3,106.7c0-0.1,0.2-0.5,0.3-0.9c0,0.1,0,0.2,0,0.2c0,0.2-0.1,0.8-0.1,1.3C77.4,107.1,77.3,106.9,77.3,106.7
		 M58.5,101.4c0.1,0.2,0,0.3,0,0.4c0.1,0.1,0.2,0.2,0.3,0.2c0.1,0,0.1,0.1,0.2,0.1c0.1,0,0.6,0,0.7-0.1c0.1-0.1,0-0.2,0.1-0.3
		c0.1-0.1,0.5-0.3,0.6-0.3c0.1,0,0.5-0.3,0.5-0.3c0.1-0.1,0.1-0.1,0.1-0.1c0,0,0.6,0.1,0.8-0.2c0.1-0.1,0.4,0,0.6,0.2
		c0.2,0.2,1.9,3,2,3.8c0.1,0.9,0.6,1.5,0.9,1.8c0,0.3,0.1,0.6,0.2,1.1c0.2,0.7,0.4,1.7,0.4,2.3c0,0.6,0.1,0.8,0.1,1.1
		c0,0.3,0.1,1.5,0,1.8c-0.1,0.3-0.5,0.5-0.6,0.8c-0.1,0.1-0.4,0.3-0.4,0.3c0,0-0.1,0.1,0.1,0.1c0.2,0,0.7,0.1,0.8,0.1
		c0.1,0,0.3,0,0.4-0.2c0.1-0.2-0.1-0.3-0.1-0.3c0,0,0.1-0.2,0.2-0.3c0-0.1,0.2-0.3,0.3-0.3c0.1,0,0.2-0.1,0.2-0.3
		c0-0.2-0.2-1.6-0.2-1.7c0-0.2,0-0.7,0-0.8c0-0.2,0-0.3,0.1-0.8c0-0.3,0-0.2,0.1-0.3c0.1,0.1,0.2,0.5,0.2,0.8c0,0.6,0.2,0.8,0.2,1.1
		c0,0.3,0.2,1.5,0,1.8c-0.1,0.3-0.5,0.5-0.6,0.8c-0.1,0.1-0.4,0.3-0.4,0.3s-0.1,0.1,0.1,0.1c0.2,0,0.7,0,0.8,0c0.1,0,0.3,0,0.4-0.2
		c0.1-0.2-0.1-0.3-0.1-0.3c0,0,0.1-0.2,0.2-0.3c0,0,0.2-0.3,0.3-0.3c0.1-0.1,0.2-0.1,0.2-0.3c0-0.2-0.2-1.6-0.2-1.7
		c0-0.2-0.1-0.7,0-0.8s0.1-0.3,0-0.8c-0.1-0.5-0.1-1.2-0.1-1.5c0-0.2,0-0.5,0-0.7c0.1,0,0.6,0,1.6,0.1c1.1,0.1,2.1-0.1,2.8-0.3
		c0.3-0.1,0.8-0.3,1.2-0.5c0.4-0.2,0.8,0,0.9,0.4c0.2,0.5,0.3,0.9,0.4,1.1c0.2,0.3,0.6,1.7,0.8,2.1s0.1,1.7,0.1,1.8s0,0.5,0,0.7
		c0,0.1,0,0.6-0.1,0.8c0,0.2-0.4,0.3-0.5,0.5c-0.2,0.2-0.3,0.5-0.2,0.6c0.1,0.1,0.6,0,0.9,0.1c0.3,0,0.5-0.1,0.5-0.2
		c0-0.1-0.2-0.7,0-0.9s0.5-0.5,0.4-0.8c-0.2-0.5,0-1.5,0-1.8c0-0.3,0-1.1,0.1-1.6c0.2,0.4,0.4,0.9,0.5,1c0.2,0.3,0.3,1.6,0.3,1.8
		c0,0.2,0,0.5,0,0.7c0,0.1,0,0.6,0,0.8s-0.3,0.3-0.5,0.6s-0.3,0.4-0.2,0.5c0.1,0,0.6,0.1,0.9,0.1c0.3,0,0.5-0.2,0.5-0.2
		c0-0.1-0.2-0.7-0.1-0.9c0.1-0.2,0.4-0.6,0.3-0.9c-0.2-0.4-0.1-0.9-0.2-1.4c0.1-0.1,0.2-0.2,0.3-0.4c0.3-0.8,0.3-1.8,0.3-2.3
		c0-0.5-0.4-2.9-0.6-4c-0.2-0.9-0.2-1.2-0.5-1.5c-0.1-0.2-0.3-0.4-0.5-0.5c-0.2-0.2-0.6-0.4-0.9-0.4c-0.4-0.1-1.4-0.4-1.8-0.4
		c-0.4,0-1,0.1-1.7,0.2c-0.7,0.1-2.3,0.3-3.3,0.1c-0.7-0.1-2.9-1.5-3.1-1.7c-0.2-0.2-1.6-0.9-1.8-1.1c-0.3-0.2-1.3-0.6-1.5-0.7
		s-1-0.4-1.3-0.4c0,0,0,0-0.1,0c-0.1-0.1-0.1-0.2-0.2-0.3c-0.1-0.2-0.2-0.3-0.3-0.4c-0.1-0.1-0.1-0.3-0.1-0.3c0-0.1-0.1-0.1-0.1,0
		c0,0.1,0,0.3,0,0.4c0,0.1,0,0.2,0,0.3c-0.1-0.1-0.2-0.2-0.2-0.3C61,97,61,96.8,61,96.8c0-0.1-0.1-0.1-0.1,0c0,0.1,0,0.3,0,0.4
		c0,0.1,0,0.3,0.1,0.4c0,0.1,0,0.2,0,0.3c0,0,0,0.1,0,0.1c-0.1,0.1-0.2,0.1-0.4,0.2c-0.2,0.2-0.7,0.7-0.8,0.9
		c-0.1,0.2-0.8,0.9-0.9,1.1c-0.1,0.2-0.4,0.6-0.5,0.7C58.4,101.1,58.4,101.2,58.5,101.4"/>
	<path class="st1" d="M77.3,128.7c0-0.1,0.2-0.5,0.3-0.9c0,0.1,0,0.2,0,0.2c0,0.2-0.1,0.8-0.1,1.3C77.4,129.1,77.3,128.9,77.3,128.7
		 M58.5,123.4c0.1,0.2,0,0.3,0,0.4c0.1,0.1,0.2,0.2,0.3,0.2c0.1,0,0.1,0.1,0.2,0.1c0.1,0,0.6,0,0.7-0.1s0-0.2,0.1-0.3
		c0.1-0.1,0.5-0.3,0.6-0.3c0.1,0,0.5-0.3,0.5-0.3c0.1,0,0.1-0.1,0.1-0.1c0,0,0.6,0.1,0.8-0.2c0.1-0.1,0.4,0,0.6,0.2
		c0.2,0.2,1.9,3,2,3.8c0.1,0.9,0.6,1.5,0.9,1.8c0,0.3,0.1,0.6,0.2,1.1c0.2,0.7,0.4,1.7,0.4,2.3c0,0.6,0.1,0.8,0.1,1.1
		c0,0.3,0.1,1.5,0,1.8c-0.1,0.3-0.5,0.5-0.6,0.8c-0.1,0.1-0.4,0.3-0.4,0.3c0,0-0.1,0.1,0.1,0.1c0.2,0,0.7,0.1,0.8,0.1
		c0.1,0,0.3,0,0.4-0.2c0.1-0.2-0.1-0.3-0.1-0.3s0.1-0.2,0.2-0.3c0-0.1,0.2-0.3,0.3-0.3c0.1,0,0.2-0.1,0.2-0.3c0-0.2-0.2-1.6-0.2-1.7
		c0-0.2,0-0.7,0-0.8c0-0.2,0-0.3,0.1-0.8c0-0.3,0-0.2,0.1-0.3c0.1,0.1,0.2,0.5,0.2,0.8c0,0.6,0.2,0.8,0.2,1.1c0,0.3,0.2,1.5,0,1.8
		c-0.1,0.4-0.5,0.6-0.6,0.8c-0.1,0.1-0.4,0.3-0.4,0.4s-0.1,0.1,0.1,0.1c0.2,0,0.7,0,0.8,0s0.3,0,0.4-0.2c0.1-0.2-0.1-0.3-0.1-0.3
		s0.1-0.2,0.2-0.3s0.2-0.3,0.3-0.3s0.2-0.1,0.2-0.3c0-0.2-0.2-1.6-0.2-1.7c0-0.2-0.1-0.7,0-0.8s0.1-0.3,0-0.8
		c-0.1-0.5-0.1-1.2-0.1-1.5c0-0.2,0-0.4,0-0.7c0.1,0,0.6,0,1.6,0.1c1.1,0.1,2.1-0.1,2.8-0.3c0.3-0.1,0.8-0.3,1.2-0.5
		c0.4-0.2,0.8,0,0.9,0.4c0.2,0.5,0.3,0.9,0.4,1.1c0.2,0.3,0.6,1.7,0.8,2.1c0.1,0.3,0.1,1.7,0.1,1.8c0,0.2,0,0.5,0,0.7
		c0,0.1,0,0.6-0.1,0.8c0,0.2-0.4,0.3-0.5,0.5s-0.3,0.5-0.2,0.6c0.1,0.1,0.6,0,0.9,0.1s0.5-0.1,0.5-0.2c0-0.1-0.2-0.7,0-0.9
		s0.5-0.5,0.4-0.9c-0.2-0.5,0-1.5,0-1.8c0-0.3,0-1.1,0.1-1.6c0.2,0.4,0.4,0.9,0.5,1c0.2,0.3,0.3,1.6,0.3,1.8c0,0.2,0,0.5,0,0.7
		c0,0.1,0,0.6,0,0.8c0,0.2-0.3,0.3-0.5,0.6s-0.3,0.4-0.2,0.5c0.1,0,0.6,0.1,0.9,0.1c0.3,0,0.5-0.2,0.5-0.2c0-0.1-0.2-0.7-0.1-0.9
		c0.1-0.2,0.4-0.6,0.3-0.9c-0.2-0.4-0.1-0.9-0.2-1.4c0.1-0.1,0.2-0.2,0.3-0.4c0.3-0.8,0.3-1.8,0.3-2.3c0-0.5-0.4-2.9-0.6-4
		c-0.2-0.9-0.2-1.2-0.5-1.5c-0.1-0.2-0.3-0.4-0.5-0.5c-0.2-0.2-0.6-0.4-0.9-0.5c-0.4-0.1-1.4-0.4-1.8-0.4c-0.4,0-1,0.1-1.7,0.2
		c-0.7,0.1-2.3,0.3-3.3,0.1c-0.7-0.1-2.9-1.5-3.1-1.7c-0.2-0.2-1.6-0.9-1.8-1.1c-0.3-0.2-1.3-0.6-1.5-0.7c-0.2-0.1-1-0.4-1.3-0.5
		c0,0,0,0-0.1,0c-0.1-0.1-0.1-0.2-0.2-0.3c-0.1-0.2-0.2-0.3-0.3-0.4c-0.1-0.1-0.1-0.3-0.1-0.3s-0.1-0.1-0.1,0c0,0.1,0,0.3,0,0.4
		c0,0.1,0,0.2,0,0.3c-0.1-0.1-0.2-0.2-0.2-0.3c-0.1-0.1-0.1-0.3-0.1-0.3s-0.1-0.1-0.1,0c0,0.1,0,0.3,0,0.4c0,0.1,0,0.3,0.1,0.4
		c0,0.1,0,0.2,0,0.3c0,0,0,0.1,0,0.1c-0.1,0.1-0.2,0.1-0.4,0.2c-0.2,0.2-0.7,0.7-0.8,0.9c-0.1,0.2-0.8,0.9-0.9,1.1
		c-0.1,0.2-0.4,0.6-0.5,0.7C58.4,123.1,58.4,123.2,58.5,123.4"/>
	<path class="st1" d="M77.3,150.7c0-0.1,0.2-0.5,0.3-0.9c0,0.1,0,0.2,0,0.2c0,0.2-0.1,0.8-0.1,1.3C77.4,151.1,77.3,150.9,77.3,150.7
		 M58.5,145.4c0.1,0.2,0,0.3,0,0.4c0.1,0.1,0.2,0.2,0.3,0.2c0.1,0,0.1,0.1,0.2,0.1c0.1,0,0.6,0,0.7-0.1s0-0.2,0.1-0.3
		c0.1-0.1,0.5-0.3,0.6-0.3c0.1,0,0.5-0.3,0.5-0.3c0.1-0.1,0.1-0.1,0.1-0.1c0,0,0.6,0.1,0.8-0.2c0.1-0.1,0.4,0,0.6,0.2
		c0.2,0.2,1.9,3,2,3.8c0.1,0.9,0.6,1.5,0.9,1.8c0,0.3,0.1,0.6,0.2,1.1c0.2,0.7,0.4,1.7,0.4,2.3c0,0.6,0.1,0.8,0.1,1.1s0.1,1.5,0,1.8
		s-0.5,0.5-0.6,0.8c-0.1,0.1-0.4,0.3-0.4,0.3c0,0-0.1,0.1,0.1,0.1c0.2,0,0.7,0.1,0.8,0.1c0.1,0,0.3,0,0.4-0.2s-0.1-0.3-0.1-0.3
		s0.1-0.2,0.2-0.3c0-0.1,0.2-0.3,0.3-0.3c0.1,0,0.2-0.1,0.2-0.3c0-0.2-0.2-1.6-0.2-1.7c0-0.2,0-0.7,0-0.8c0-0.2,0-0.3,0.1-0.8
		c0-0.3,0-0.2,0.1-0.3c0.1,0.1,0.2,0.5,0.2,0.8c0,0.6,0.2,0.8,0.2,1.1c0,0.3,0.2,1.5,0,1.8c-0.1,0.4-0.5,0.6-0.6,0.8
		c-0.1,0.1-0.4,0.3-0.4,0.4s-0.1,0.1,0.1,0.1c0.2,0,0.7,0,0.8,0c0.1,0,0.3,0,0.4-0.2c0.1-0.2-0.1-0.3-0.1-0.3c0-0.1,0.1-0.2,0.2-0.3
		s0.2-0.3,0.3-0.3s0.2-0.1,0.2-0.3s-0.2-1.6-0.2-1.7s-0.1-0.7,0-0.8s0.1-0.3,0-0.8c-0.1-0.5-0.1-1.2-0.1-1.5c0-0.2,0-0.5,0-0.7
		c0.1,0,0.6,0,1.6,0.1c1.1,0.1,2.1-0.1,2.8-0.3c0.3-0.1,0.8-0.3,1.2-0.5c0.4-0.2,0.8,0,0.9,0.4c0.2,0.5,0.3,0.9,0.4,1.1
		c0.2,0.4,0.6,1.7,0.8,2.1c0.1,0.4,0.1,1.7,0.1,1.8c0,0.1,0,0.5,0,0.6c0,0.1,0,0.6-0.1,0.8c0,0.2-0.4,0.3-0.5,0.5
		c-0.2,0.2-0.3,0.5-0.2,0.6c0.1,0.1,0.6,0,0.9,0.1c0.3,0,0.5-0.1,0.5-0.2c0-0.1-0.2-0.7,0-0.9s0.5-0.5,0.4-0.8c-0.2-0.5,0-1.5,0-1.8
		c0-0.3,0-1.1,0.1-1.6c0.2,0.4,0.4,0.9,0.5,1c0.2,0.3,0.3,1.6,0.3,1.8c0,0.1,0,0.5,0,0.6c0,0.1,0,0.6,0,0.8c0,0.2-0.3,0.3-0.5,0.6
		s-0.3,0.4-0.2,0.5s0.6,0.1,0.9,0.1c0.3,0,0.5-0.2,0.5-0.2c0-0.1-0.2-0.7-0.1-0.9c0.1-0.2,0.4-0.6,0.3-0.9c-0.2-0.4-0.1-0.9-0.2-1.4
		c0.1-0.1,0.2-0.2,0.3-0.4c0.3-0.8,0.3-1.8,0.3-2.3c0-0.5-0.4-2.9-0.6-4c-0.2-0.9-0.2-1.2-0.5-1.5c-0.1-0.2-0.3-0.4-0.5-0.5
		c-0.2-0.2-0.6-0.4-0.9-0.4c-0.4-0.1-1.4-0.4-1.8-0.4c-0.4,0-1,0.1-1.7,0.2c-0.7,0.1-2.3,0.3-3.3,0.1c-0.7-0.1-2.9-1.5-3.1-1.7
		c-0.2-0.2-1.6-0.9-1.8-1.1c-0.3-0.2-1.3-0.6-1.5-0.7c-0.2-0.1-1-0.4-1.3-0.4c0,0,0,0-0.1,0c-0.1-0.1-0.1-0.2-0.2-0.3
		c-0.1-0.2-0.2-0.3-0.3-0.4s-0.1-0.3-0.1-0.3c0-0.1-0.1-0.1-0.1,0c0,0.1,0,0.3,0,0.4c0,0.1,0,0.2,0,0.3c-0.1-0.1-0.2-0.2-0.2-0.3
		c-0.1-0.1-0.1-0.3-0.1-0.3s-0.1-0.1-0.1,0c0,0.1,0,0.3,0,0.4c0,0.1,0,0.3,0.1,0.4c0,0.1,0,0.2,0,0.3c0,0,0,0.1,0,0.1
		c-0.1,0.1-0.2,0.1-0.4,0.2c-0.2,0.2-0.7,0.7-0.8,0.9c-0.1,0.2-0.8,0.9-0.9,1.1c-0.1,0.2-0.4,0.6-0.5,0.7S58.4,145.2,58.5,145.4"/>
	<path class="st1" d="M40.7,155.8c-0.1-0.1-0.1-0.2-0.3-0.3s-0.3-0.2-0.6-0.3c-0.3-0.1-0.5-0.2-0.5-0.3c-0.1-0.1-0.1-0.1-0.1-0.2
		c0-0.1,0.1-0.2,0.4-0.2c0.1,0,0.3,0,0.4,0.1c0.1,0,0.3,0.1,0.5,0.2l0.3-0.6c-0.4-0.2-0.8-0.3-1.1-0.3c-0.4,0-0.7,0.1-1,0.2
		s-0.3,0.4-0.3,0.7c0,0.2,0,0.3,0.1,0.4c0,0.1,0.1,0.2,0.3,0.3s0.3,0.2,0.5,0.3c0.2,0.1,0.3,0.1,0.4,0.2c0.1,0.1,0.2,0.1,0.2,0.1
		c0,0,0.1,0.1,0.1,0.2c0,0.2-0.2,0.3-0.5,0.3c-0.2,0-0.3,0-0.5-0.1s-0.4-0.1-0.6-0.2v0.7c0.1,0.1,0.3,0.1,0.5,0.1s0.4,0.1,0.6,0.1
		c0.5,0,0.8-0.1,1-0.3c0.2-0.2,0.4-0.4,0.4-0.8C40.8,156.1,40.8,155.9,40.7,155.8 M36.8,157.2c0.2,0,0.3-0.1,0.5-0.2v-0.7
		c-0.2,0.1-0.4,0.2-0.5,0.2c-0.2,0-0.4,0.1-0.6,0.1c-0.2,0-0.5-0.1-0.6-0.2c-0.1-0.1-0.2-0.3-0.2-0.6h2.1v-0.4
		c0-0.5-0.1-0.8-0.4-1.1c-0.3-0.3-0.6-0.4-1.1-0.4c-0.5,0-0.9,0.2-1.1,0.4c-0.3,0.3-0.4,0.7-0.4,1.3c0,0.5,0.1,0.9,0.4,1.2
		c0.3,0.3,0.7,0.4,1.2,0.4C36.5,157.3,36.7,157.2,36.8,157.2 M36.5,154.7c0.1,0.1,0.2,0.3,0.2,0.5h-1.2c0-0.2,0.1-0.4,0.2-0.5
		c0.1-0.1,0.2-0.2,0.4-0.2S36.4,154.6,36.5,154.7 M33.6,152.7h-0.9v4.5h0.9V152.7z M30.7,156c0,0.2-0.1,0.4-0.2,0.5
		c-0.1,0.1-0.3,0.2-0.5,0.2c-0.3,0-0.4-0.1-0.4-0.4c0-0.2,0.1-0.3,0.2-0.4s0.3-0.1,0.6-0.1l0.3,0L30.7,156L30.7,156z M31.6,157.2
		V155c0-0.4-0.1-0.7-0.4-0.9s-0.6-0.3-1-0.3c-0.5,0-0.9,0.1-1.2,0.3l0.3,0.6c0.4-0.2,0.7-0.2,0.9-0.2c0.3,0,0.5,0.2,0.5,0.5v0.1
		l-0.6,0c-0.5,0-0.9,0.1-1.1,0.3c-0.2,0.2-0.4,0.4-0.4,0.8c0,0.3,0.1,0.6,0.3,0.8c0.2,0.2,0.4,0.3,0.7,0.3c0.2,0,0.5,0,0.6-0.1
		c0.2-0.1,0.3-0.2,0.5-0.4h0l0.2,0.4L31.6,157.2L31.6,157.2z M27.7,155.3c-0.1-0.2-0.4-0.4-0.8-0.6c-0.3-0.1-0.5-0.2-0.6-0.3
		c-0.1-0.1-0.1-0.1-0.2-0.2c0-0.1-0.1-0.1-0.1-0.2c0-0.1,0-0.2,0.1-0.3c0.1-0.1,0.2-0.1,0.4-0.1c0.1,0,0.3,0,0.4,0.1
		c0.1,0,0.3,0.1,0.6,0.2l0.3-0.7c-0.2-0.1-0.4-0.2-0.6-0.2s-0.4-0.1-0.6-0.1c-0.5,0-0.8,0.1-1.1,0.3c-0.2,0.2-0.4,0.5-0.4,0.9
		c0,0.2,0,0.4,0.1,0.5s0.2,0.3,0.3,0.4s0.3,0.2,0.6,0.3c0.3,0.1,0.5,0.2,0.5,0.3s0.2,0.1,0.2,0.2c0,0.1,0.1,0.1,0.1,0.2
		c0,0.1,0,0.3-0.2,0.3c-0.1,0.1-0.3,0.1-0.5,0.1c-0.2,0-0.4,0-0.5-0.1c-0.2-0.1-0.4-0.1-0.7-0.3v0.8c0.4,0.2,0.8,0.3,1.2,0.3
		c0.5,0,0.9-0.1,1.1-0.3c0.3-0.2,0.4-0.5,0.4-0.9C27.9,155.8,27.8,155.5,27.7,155.3 M21.9,154.1c-0.2,0.1-0.3,0.3-0.4,0.4h0
		l-0.1-0.6h-0.7v3.2h0.9v-1.7c0-0.3,0.1-0.5,0.2-0.6c0.2-0.1,0.4-0.2,0.7-0.2c0.1,0,0.2,0,0.3,0l0.1-0.8c-0.1,0-0.2,0-0.3,0
		C22.3,153.9,22.1,154,21.9,154.1 M19,157.2c0.2,0,0.3-0.1,0.5-0.2v-0.7c-0.2,0.1-0.4,0.2-0.5,0.2c-0.2,0-0.4,0.1-0.6,0.1
		c-0.2,0-0.5-0.1-0.6-0.2c-0.1-0.1-0.2-0.3-0.2-0.6h2.1v-0.4c0-0.5-0.1-0.8-0.4-1.1c-0.3-0.3-0.6-0.4-1.1-0.4
		c-0.5,0-0.9,0.2-1.1,0.4c-0.3,0.3-0.4,0.7-0.4,1.3c0,0.5,0.1,0.9,0.4,1.2c0.3,0.3,0.7,0.4,1.2,0.4C18.6,157.3,18.9,157.2,19,157.2
		 M18.7,154.7c0.1,0.1,0.2,0.3,0.2,0.5h-1.2c0-0.2,0.1-0.4,0.2-0.5c0.1-0.1,0.2-0.2,0.4-0.2C18.5,154.5,18.6,154.6,18.7,154.7
		 M15.8,155.1c0-0.4-0.1-0.7-0.3-0.9c-0.2-0.2-0.5-0.3-0.9-0.3c-0.4,0-0.7,0.2-0.9,0.5h0l0-0.3c0-0.3,0-0.4,0-0.5v-0.9h-0.9v4.5h0.9
		v-1.5c0-0.4,0.1-0.6,0.2-0.8c0.1-0.2,0.3-0.2,0.5-0.2c0.4,0,0.5,0.2,0.5,0.7v1.9h0.9L15.8,155.1L15.8,155.1z M11.1,156.5
		c-0.1-0.1-0.1-0.1-0.1-0.3v-1.6h0.9V154h-0.9v-0.7h-0.6l-0.3,0.7l-0.5,0.3v0.4H10v1.6c0,0.4,0.1,0.6,0.2,0.8
		c0.2,0.2,0.4,0.3,0.8,0.3c0.3,0,0.6-0.1,0.8-0.1v-0.7c-0.2,0.1-0.4,0.1-0.6,0.1C11.2,156.6,11.1,156.5,11.1,156.5 M6,154
		c0.2-0.2,0.5-0.4,0.8-0.4c0.7,0,1.1,0.5,1.1,1.4c0,1-0.4,1.4-1.1,1.4c-0.4,0-0.6-0.1-0.8-0.4c-0.2-0.2-0.3-0.6-0.3-1.1
		C5.8,154.6,5.8,154.2,6,154 M8.3,153.5c-0.4-0.4-0.9-0.6-1.5-0.6s-1.1,0.2-1.5,0.6c-0.4,0.4-0.5,0.9-0.5,1.6c0,0.7,0.2,1.2,0.5,1.6
		c0.4,0.4,0.9,0.6,1.5,0.6s1.1-0.2,1.5-0.6c0.4-0.4,0.5-0.9,0.5-1.6C8.9,154.4,8.7,153.8,8.3,153.5"/>
	<path class="st1" d="M32.5,149.6c-0.1-0.1-0.1-0.2-0.1-0.3v-1.6h0.9v-0.7h-0.9v-0.7h-0.6l-0.3,0.7l-0.5,0.3v0.4h0.4v1.6
		c0,0.4,0.1,0.6,0.2,0.8c0.2,0.2,0.4,0.3,0.8,0.3c0.3,0,0.6-0.1,0.8-0.2v-0.7c-0.2,0.1-0.4,0.1-0.6,0.1
		C32.7,149.7,32.6,149.7,32.5,149.6 M29.4,149.1c0,0.2-0.1,0.3-0.2,0.5c-0.1,0.1-0.3,0.2-0.5,0.2c-0.3,0-0.4-0.1-0.4-0.4
		c0-0.2,0.1-0.3,0.2-0.4s0.3-0.1,0.6-0.1l0.3,0L29.4,149.1L29.4,149.1z M30.3,150.4v-2.2c0-0.4-0.1-0.7-0.4-0.9s-0.6-0.3-1-0.3
		c-0.5,0-0.9,0.1-1.2,0.3l0.3,0.6c0.4-0.2,0.7-0.2,0.9-0.2c0.3,0,0.5,0.2,0.5,0.5v0.1l-0.6,0c-0.5,0-0.9,0.1-1.1,0.3
		c-0.2,0.2-0.4,0.4-0.4,0.8c0,0.3,0.1,0.6,0.3,0.8s0.4,0.3,0.7,0.3c0.2,0,0.5,0,0.6-0.1c0.2-0.1,0.3-0.2,0.5-0.4h0l0.2,0.4
		L30.3,150.4L30.3,150.4z M22.8,149.5c-0.1-0.2-0.2-0.4-0.2-0.7c0-0.3,0-0.6,0.2-0.7c0.1-0.2,0.3-0.2,0.5-0.2c0.2,0,0.4,0.1,0.5,0.2
		c0.1,0.2,0.2,0.4,0.2,0.8v0.1c0,0.3-0.1,0.5-0.2,0.7c-0.1,0.1-0.3,0.2-0.5,0.2C23.1,149.7,22.9,149.6,22.8,149.5 M23.9,149.9
		L23.9,149.9l0.2,0.4h0.7v-4.5h-0.9v1c0,0.2,0,0.4,0.1,0.6h0c-0.2-0.3-0.5-0.5-0.9-0.5c-0.4,0-0.7,0.2-0.9,0.4
		c-0.2,0.3-0.3,0.7-0.3,1.2c0,0.5,0.1,0.9,0.3,1.2c0.2,0.3,0.5,0.4,0.9,0.4C23.4,150.4,23.7,150.3,23.9,149.9 M20.8,145.8h-0.9v4.5
		h0.9V145.8z M18.7,147.8c-0.1-0.2-0.3-0.5-0.5-0.6c-0.2-0.1-0.5-0.2-0.8-0.2c-0.5,0-0.9,0.2-1.2,0.4c-0.3,0.3-0.4,0.7-0.4,1.2
		c0,0.3,0.1,0.6,0.2,0.9c0.1,0.3,0.3,0.5,0.5,0.6s0.5,0.2,0.8,0.2c0.5,0,0.9-0.1,1.2-0.4s0.4-0.7,0.4-1.2
		C18.9,148.4,18.9,148.1,18.7,147.8 M16.8,148c0.1-0.2,0.3-0.2,0.5-0.2c0.2,0,0.4,0.1,0.5,0.2c0.1,0.2,0.2,0.4,0.2,0.7
		c0,0.3,0,0.6-0.2,0.7c-0.1,0.2-0.3,0.2-0.5,0.2c-0.2,0-0.4-0.1-0.5-0.2c-0.1-0.2-0.2-0.4-0.2-0.7C16.7,148.4,16.7,148.2,16.8,148
		 M14.8,148.5c-0.1-0.2-0.4-0.4-0.8-0.6c-0.3-0.1-0.5-0.2-0.6-0.3c-0.1-0.1-0.1-0.1-0.2-0.2c0-0.1-0.1-0.1-0.1-0.2
		c0-0.1,0-0.2,0.1-0.3c0.1-0.1,0.2-0.1,0.4-0.1c0.1,0,0.3,0,0.4,0.1c0.1,0,0.3,0.1,0.6,0.2l0.3-0.7c-0.2-0.1-0.4-0.2-0.6-0.2
		s-0.4-0.1-0.6-0.1c-0.5,0-0.8,0.1-1.1,0.3c-0.2,0.2-0.4,0.5-0.4,0.9c0,0.2,0,0.4,0.1,0.5c0.1,0.2,0.2,0.3,0.3,0.4s0.3,0.2,0.6,0.4
		c0.3,0.1,0.5,0.2,0.5,0.3c0.1,0.1,0.2,0.1,0.2,0.2c0,0.1,0.1,0.1,0.1,0.2c0,0.2,0,0.3-0.2,0.3c-0.1,0.1-0.3,0.1-0.5,0.1
		c-0.2,0-0.4,0-0.5-0.1c-0.2,0-0.4-0.1-0.7-0.3v0.8c0.4,0.2,0.8,0.3,1.2,0.3c0.5,0,0.9-0.1,1.1-0.3c0.3-0.2,0.4-0.5,0.4-0.9
		C15,148.9,14.9,148.7,14.8,148.5"/>
	<path class="st1" d="M19.9,140.3h12.2v-0.2c-2,0-3.2-0.3-3.2-3.3v-1.7c2,0,2.4,0.3,2.7,0.3c0.3,0,0.6-0.2,0.6-0.5
		c0-0.3-0.2-0.5-0.6-0.5c-0.4,0-0.6,0.4-2.7,0.4v-7.6h-0.2l-5.2,4.8v2.8h-9.8l2.7-2.1c3.6-2.9,9.4-4.8,9.4-8.3
		c0-3.3-5.1-4.5-9.1-4.3c1.4,1.1,2.7,2.8,2.7,5.4c0,2.8-1.5,5.5-3.5,7.2l-2.8,2.4l0.1,0.1h10.3v1.4c0,3-1.3,3.6-3.6,3.6V140.3z"/>
	<line class="st2" x1="48.5" y1="95.8" x2="48.5" y2="181.5"/>
	<line class="st2" x1="47.9" y1="95.8" x2="49.1" y2="95.8"/>
	<line class="st2" x1="47.9" y1="181.5" x2="49.1" y2="181.5"/>
</g>
</svg>
