<svg enable-background="new 0 0 209.6 181.6" viewBox="0 0 209.6 181.6" xmlns="http://www.w3.org/2000/svg"><path d="m77.5 77c.1-.1.2-.5.3-.9v.2c0 .2-.1.8-.1 1.3-.1-.2-.1-.4-.2-.6m-18.8-5.3c.1.2 0 .3 0 .4.1.1.2.2.3.2s.1.1.2.1.6 0 .7-.1.1-.2.1-.3c.1-.1.5-.3.6-.3s.5-.3.6-.3.1-.1.1-.1c.1 0 .6.1.8-.2.1-.1.4 0 .6.2s1.9 3 2 3.8c.1.9.6 1.5.8 1.8 0 .3.1.6.2 1.1.2.7.4 1.7.4 2.3s.2.8.2 1.1.1 1.5 0 1.8-.6.5-.6.8c-.2.1-.4.3-.4.3s-.1.1.1.1.7.1.8.1.3 0 .4-.2-.1-.3-.1-.3c0-.1.1-.2.2-.3 0-.1.2-.3.3-.3s.2-.1.2-.3-.2-1.6-.2-1.7c0-.2 0-.7 0-.8s0-.3.1-.8c0-.3 0-.2.1-.3.1.1.2.5.2.8.1.6.2.8.2 1.1s.2 1.5.1 1.8-.5.6-.6.8c-.2.1-.3.3-.4.3 0 0-.1.1.1.1h.8s.3 0 .4-.2 0-.1 0-.1c0-.1.1-.2.2-.3s.2-.3.3-.3c.1-.1.2-.1.2-.3s-.2-1.6-.2-1.7-.1-.7 0-.8.1-.3 0-.8-.1-1.2-.1-1.5c0-.2 0-.4 0-.7.1 0 .6 0 1.6.1 1.1.1 2.2-.1 2.8-.3.3-.1.8-.3 1.2-.5s.8 0 .9.4c.2.5.3.9.4 1.1.2.3.7 1.7.8 2.1s.1 1.7.1 1.8 0 .5 0 .7c0 .1 0 .6-.1.8s-.4.3-.6.5-.3.5-.2.6.6 0 .9.1c.3 0 .5-.1.5-.2s-.2-.7 0-.9.5-.5.4-.8c-.2-.5 0-1.5-.1-1.8 0-.3 0-1.1.1-1.6.2.4.4.9.5 1 .2.3.3 1.6.3 1.8v.7.8s-.3.3-.5.6-.3.4-.2.5.6.1.9.1.5-.2.5-.2c-.1-.1-.2-.7-.1-.9s.4-.6.3-.9c-.2-.4-.2-.9-.2-1.4.1-.1.2-.2.3-.4.3-.8.3-1.8.3-2.3s-.4-2.9-.6-4c-.2-.9-.2-1.2-.5-1.5-.1-.2-.3-.4-.5-.5-.2-.2-.6-.4-.8-.4-.4-.1-1.4-.4-1.8-.4-.3 0-1 .1-1.7.2s-2.3.3-3.3.1c-.7-.1-2.9-1.5-3.1-1.7s-1.6-.9-1.8-1.1c-.3-.2-1.3-.6-1.5-.7s-1.1-.4-1.3-.4h-.1c-.1-.1-.1-.2-.2-.3-.1-.2-.2-.3-.3-.4s-.1-.3-.1-.3-.1-.1-.1 0v.4.3c-.1-.1-.2-.2-.2-.3-.1-.1-.1-.3-.1-.3 0-.1-.1-.1-.1 0v.4c0 .1 0 .3.1.4v.3.1c-.1.1-.2.1-.3.2-.2.2-.7.7-.8.9s-.8.9-.9 1.1-.4.6-.5.7c-.1-.6-.1-.5 0-.3"/><path d="m103.6 77c.1-.1.2-.5.3-.9v.2c0 .2-.1.8-.1 1.3-.1-.2-.2-.4-.2-.6m-18.8-5.3c.1.2 0 .3 0 .4.1.1.2.2.3.2s.1.1.2.1.6 0 .7-.1.1-.2.1-.3c.1-.1.5-.3.6-.3s.5-.3.6-.3.1-.1.1-.1c.1 0 .6.1.8-.2.1-.1.4 0 .6.2s1.9 3 2 3.8c.1.9.6 1.5.8 1.8 0 .3.1.6.2 1.1.2.7.4 1.7.4 2.3s.2.8.2 1.1.1 1.5 0 1.8-.6.5-.6.8c-.2.1-.4.3-.4.3s-.1.1.1.1.7.1.8.1.3 0 .4-.2-.1-.3-.1-.3c0-.1.1-.2.2-.3 0-.1.2-.3.3-.3s.2-.1.2-.3-.2-1.6-.2-1.7c0-.2 0-.7 0-.8s0-.3.1-.8c0-.3 0-.2.1-.3.1.1.2.5.2.8.1.6.2.8.2 1.1s.2 1.5.1 1.8-.5.6-.6.8c-.2.1-.3.3-.4.3 0 0-.1.1.1.1h.8s.3 0 .4-.2-.1-.3-.2-.3c0-.1.1-.2.2-.3s.2-.3.3-.3c.1-.1.2-.1.2-.3s-.2-1.6-.2-1.7-.1-.7 0-.8.1-.3 0-.8-.1-1.2-.1-1.5c0-.2 0-.4 0-.7.1 0 .6 0 1.6.1 1.1.1 2.2-.1 2.8-.3.3-.1.8-.3 1.2-.5s.8 0 .9.4c.2.5.3.9.4 1.1.2.3.7 1.7.8 2.1s.1 1.7.1 1.8 0 .5 0 .7c0 .1 0 .6-.1.8s-.4.3-.6.5-.3.5-.2.6.6 0 .9.1c.3 0 .5-.1.5-.2s-.2-.7 0-.9.5-.5.4-.8c-.2-.5 0-1.5-.1-1.8 0-.3 0-1.1.1-1.6.2.4.4.9.5 1 .2.3.3 1.6.3 1.8v.7.8s-.3.3-.5.6-.3.4-.2.5.6.1.9.1.5-.2.5-.2c-.1-.1-.2-.7-.1-.9s.4-.6.3-.9c-.2-.4-.2-.9-.2-1.4.1-.1.2-.2.3-.4.3-.8.3-1.8.3-2.3s-.4-2.9-.6-4c-.2-.9-.2-1.2-.5-1.5-.1-.2-.3-.4-.5-.5-.2-.2-.6-.4-.8-.4-.4-.1-1.4-.4-1.8-.4-.3 0-1 .1-1.7.2s-2.3.3-3.3.1c-.7-.1-2.9-1.5-3.1-1.7s-1.6-.9-1.8-1.1c-.3-.2-1.3-.6-1.5-.7s-1.1-.4-1.3-.4h-.1c-.1-.1-.1-.2-.2-.3-.1-.2-.2-.3-.3-.4s-.1-.3-.1-.3c0-.1-.1-.1-.1 0v.4.3c-.1-.1-.2-.2-.2-.3-.1-.1-.1-.3-.1-.3 0-.1-.1-.1-.1 0v.4s0 .3.1.4v.3.1c-.1.1-.2.1-.3.2-.2.2-.7.7-.8.9s-.8.9-.9 1.1-.4.6-.5.7c.1-.4.1-.3.2-.1"/><path d="m129.7 77c.1-.1.2-.5.3-.9v.2c0 .2-.1.8-.1 1.3-.1-.2-.2-.4-.2-.6m-18.9-5.3c.1.2 0 .3 0 .4.1.1.2.2.3.2s.1.1.2.1.6 0 .7-.1.1-.2.1-.3c.1-.1.5-.3.6-.3s.5-.3.6-.3.1-.1.1-.1c.1 0 .6.1.8-.2.1-.1.4 0 .6.2s1.9 3 2 3.8c.1.9.6 1.5.9 1.8 0 .3.1.6.2 1.1.2.7.4 1.7.4 2.3s.1.8.1 1.1.1 1.5 0 1.8-.6.5-.6.8c-.1.1-.4.3-.4.3s-.1.1.1.1.7.1.8.1.3 0 .4-.2-.1-.3-.1-.3c0-.1.1-.2.2-.3 0-.1.2-.3.3-.3s.2-.1.2-.3-.2-1.6-.2-1.7c0-.2 0-.7 0-.8.1-.2 0-.3.1-.8 0-.3 0-.2.1-.3.1.1.2.5.2.8.1.6.2.8.2 1.1s.2 1.5.1 1.8-.5.6-.6.8c-.1.1-.4.3-.4.3s-.1.1.1.1h.8s.3 0 .4-.2-.1-.3-.1-.3c0-.1.1-.2.2-.3s.2-.3.3-.3c.1-.1.2-.1.2-.3s-.2-1.6-.2-1.7-.1-.7 0-.8c0-.2.1-.3 0-.8s-.1-1.2-.1-1.5c0-.2 0-.4 0-.7.1 0 .6 0 1.6.1 1.1.1 2.1-.1 2.8-.3.3-.1.8-.3 1.2-.5s.8 0 .9.4c.2.5.3.9.4 1.1.2.3.6 1.7.8 2.1s.1 1.7.1 1.8 0 .5 0 .7c0 .1 0 .6-.1.8s-.4.3-.5.5c-.2.2-.3.5-.2.6s.6 0 .9.1c.3 0 .5-.1.5-.2s-.2-.7 0-.9.5-.5.4-.8c-.2-.5 0-1.5-.1-1.8 0-.3 0-1.1.1-1.6.2.4.4.9.5 1 .2.3.3 1.6.3 1.8v.7.8s-.3.3-.5.6c-.2.2-.3.4-.2.5s.6.1.9.1.5-.2.5-.2c-.1-.1-.2-.7-.1-.9s.4-.6.3-.9c-.2-.4-.1-.9-.2-1.4.1-.1.2-.2.3-.4.3-.8.3-1.8.3-2.3s-.4-2.9-.6-4c-.2-.9-.2-1.2-.5-1.5-.1-.2-.3-.4-.5-.5-.2-.2-.6-.4-.9-.4-.4-.1-1.4-.4-1.7-.4-.4 0-1 .1-1.7.2s-2.3.3-3.3.1c-.7-.1-2.9-1.5-3.1-1.7s-1.6-.9-1.8-1.1c-.3-.2-1.3-.6-1.5-.7s-1.1-.4-1.3-.4h-.1c-.1-.1-.1-.2-.2-.3-.1-.2-.2-.3-.3-.4s-.1-.3-.1-.3c0-.1-.1-.1-.1 0v.4.3c-.1-.1-.2-.2-.2-.3-.1-.1-.1-.3-.1-.3 0-.1-.1-.1-.1 0v.4s0 .3.1.4v.3.1c-.1.1-.2.1-.3.2-.2.2-.7.7-.8.9s-.8.9-.9 1.1-.4.6-.5.7c-.1-.4-.1-.3 0-.1"/><path d="m155.8 77c.1-.1.2-.5.3-.9v.2c0 .2-.1.8-.1 1.3-.2-.2-.2-.4-.2-.6m-18.9-5.3c.1.2 0 .3 0 .4.1.1.2.2.3.2s.1.1.2.1.6 0 .7-.1.1-.2.1-.3c.1-.1.5-.3.6-.3s.5-.3.6-.3.1-.1.1-.1.6.1.8-.2c.1-.1.4 0 .6.2s1.9 3 2 3.8c.1.9.6 1.5.9 1.8 0 .3.1.6.2 1.1.2.7.4 1.7.4 2.3s.1.8.1 1.1.1 1.5 0 1.8-.6.5-.6.8c-.1.1-.4.3-.4.3s-.1.1.1.1.7.1.8.1.3 0 .4-.2-.1-.3-.1-.3c0-.1.1-.2.2-.3 0-.1.2-.3.3-.3s.2-.1.2-.3-.2-1.6-.2-1.7c0-.2 0-.7 0-.8.1-.2 0-.3.1-.8 0-.3 0-.2.1-.3.1.1.2.5.2.8.1.6.2.8.2 1.1s.2 1.5.1 1.8-.5.6-.6.8c-.1.1-.4.3-.4.3s-.1.1.1.1h.8s.3 0 .4-.2-.1-.3-.1-.3c0-.1.1-.2.2-.3s.2-.3.3-.3c.1-.1.2-.1.2-.3s-.2-1.6-.2-1.7-.1-.7 0-.8c0-.2.1-.3 0-.8s-.1-1.2-.1-1.5c0-.2 0-.4 0-.7.1 0 .6 0 1.6.1 1.1.1 2.1-.1 2.8-.3.3-.1.8-.3 1.2-.5s.8 0 .9.4c.2.5.3.9.4 1.1.2.3.6 1.7.8 2.1s.1 1.7.1 1.8 0 .5 0 .7c0 .1 0 .6-.1.8s-.4.3-.6.5-.3.5-.2.6.6 0 .9.1c.3 0 .5-.1.5-.2s-.2-.7 0-.9.5-.5.4-.8c-.2-.5 0-1.5-.1-1.8 0-.3 0-1.1.1-1.6.2.4.4.9.5 1 .2.3.3 1.6.3 1.8v.7.8s-.3.3-.5.6c-.2.2-.3.4-.2.5s.6.1.9.1.5-.2.5-.2c-.1-.1-.2-.7-.1-.9s.4-.6.3-.9c-.2-.4-.1-.9-.2-1.4.1-.1.2-.2.3-.4.3-.8.3-1.8.3-2.3s-.4-2.9-.6-4c-.2-.9-.2-1.2-.5-1.5-.1-.2-.3-.4-.5-.5-.2-.2-.6-.4-.9-.4-.4-.1-1.4-.4-1.8-.4s-1 .1-1.7.2-2.3.3-3.3.1c-.7-.1-2.9-1.5-3.1-1.7s-1.6-.9-1.8-1.1c-.3-.2-1.3-.6-1.5-.7s-1.1-.4-1.3-.4h-.1c-.1-.1-.1-.2-.2-.3-.1-.2-.2-.3-.3-.4s-.1-.3-.1-.3-.1-.1-.1 0v.4.3c-.1-.1-.2-.2-.2-.3-.1-.1-.1-.3-.1-.3s-.1-.1-.1 0v.4s0 .3.1.4v.3.1c-.1.1-.2.1-.4.2-.2.2-.7.7-.8.9s-.8.9-.9 1.1-.4.6-.5.7c.2-.4.2-.3.3-.1"/><path d="m77.5 11.1c.1-.1.2-.5.3-.9v.2c0 .2-.1.8-.1 1.3-.1-.3-.1-.5-.2-.6m-18.8-5.4c.1.2 0 .3 0 .4.1.1.2.2.3.2s.1.1.2.1.6 0 .7-.1.1-.2.2-.2c.1-.1.5-.3.6-.4s.5-.3.6-.3c.1-.1.1-.1.1-.1.1 0 .6.1.8-.2.1-.1.4 0 .6.2s1.9 3 2 3.8c.1.9.6 1.5.8 1.8 0 .3.1.6.2 1.1.2.7.4 1.7.4 2.3s.2.8.2 1.1.1 1.5 0 1.8-.6.5-.6.8c-.2.1-.4.3-.4.3s-.1.1.1.1.7.1.8.1.3 0 .4-.2-.1-.3-.1-.3.1-.2.2-.3c0 0 .2-.3.3-.3s.2-.1.2-.3-.2-1.6-.2-1.7 0-.7 0-.8 0-.3.1-.8c0-.3 0-.2.1-.3.1.1.2.5.2.9.1.6.2.8.2 1.1s.2 1.5.1 1.8-.5.5-.6.8c-.2.1-.3.3-.4.4 0 0-.1.1.1.1h.8s.3 0 .4-.2-.1-.2-.1-.3.1-.2.2-.3c0 0 .2-.3.3-.3s.2-.1.2-.3-.2-1.6-.2-1.7-.1-.7 0-.8.1-.3 0-.8-.1-1.2-.1-1.5c0-.2 0-.5 0-.7.1 0 .6 0 1.6.1 1.1.1 2.2-.1 2.8-.3.3-.1.8-.3 1.2-.5s.8 0 .9.4c.2.5.3.9.4 1.1.2.4.7 1.7.8 2.1s.1 1.7.1 1.8 0 .5 0 .6 0 .6-.1.8-.4.3-.6.5-.3.5-.2.6.6 0 .9 0 .5-.1.5-.2-.2-.7 0-.9.5-.5.4-.9c-.2-.5 0-1.5-.1-1.8 0-.3 0-1.1.1-1.6.2.4.4.9.5 1 .2.3.3 1.6.3 1.8v.6.8c0 .2-.3.3-.5.6s-.3.4-.2.5.6.1.9.1.5-.1.5-.2c-.1-.1-.2-.6-.1-.9s.4-.6.3-.9c-.2-.5-.2-.9-.2-1.4.1-.1.2-.2.3-.4.3-.8.3-1.8.3-2.3s-.4-2.9-.6-4c-.2-.9-.2-1.2-.5-1.5-.1-.3-.3-.4-.5-.6s-.6-.4-.8-.4c-.4-.1-1.4-.4-1.8-.4-.3 0-1 .1-1.7.2-.6.1-2.3.2-3.3 0-.7-.1-2.9-1.5-3.1-1.7s-1.6-.9-1.8-1.1c-.3-.2-1.3-.6-1.5-.7s-1.1-.4-1.3-.4h-.1c-.1-.2-.1-.3-.2-.4-.1-.2-.2-.3-.3-.4s-.1-.3-.1-.3c0-.1-.1-.1-.1 0v.4.3c-.1-.1-.2-.2-.2-.3-.1-.1-.1-.2-.1-.3s-.1-.1-.1 0v.4c0 .1 0 .3.1.4v.3.1c-.1.1-.2.1-.3.2-.2.2-.7.7-.8.9s-.8.9-.9 1.1-.4.6-.5.7-.1.3 0 .4"/><path d="m103.6 11.1c.1-.1.2-.5.3-.9v.2c0 .2-.1.8-.1 1.3-.1-.3-.2-.5-.2-.6m-18.8-5.4c.1.2 0 .3 0 .4.1.1.2.2.3.2s.1.1.2.1.6 0 .7-.1.1-.2.1-.3c.1-.1.5-.3.6-.4s.5-.3.6-.3c.1-.1.1-.1.1-.1.1 0 .6.1.8-.2.1-.1.4 0 .6.2s1.9 3 2 3.8c.1.9.6 1.5.8 1.8 0 .3.1.6.2 1.1.2.7.4 1.7.4 2.3s.2.8.2 1.1.1 1.5 0 1.8-.6.5-.6.8c-.2.1-.4.3-.4.3s-.1.1.1.1.7.1.8.1.3 0 .4-.2-.1-.3-.1-.3.1-.2.2-.3c0 0 .2-.3.3-.3s.2-.1.2-.3-.2-1.6-.2-1.7c0-.2 0-.7 0-.8s0-.3.1-.8c0-.3 0-.2.1-.3.1.1.2.5.2.9.1.6.2.8.2 1.1s.2 1.5.1 1.8-.5.5-.6.8c-.2.1-.3.3-.4.4 0 0-.1.1.1.1h.8s.3 0 .4-.2-.1-.3-.2-.3.1-.2.2-.3c0 0 .2-.3.3-.3s.2-.1.2-.3-.2-1.6-.2-1.7-.1-.7 0-.8.1-.3 0-.8-.1-1.2-.1-1.5c0-.2 0-.5 0-.7.1 0 .6 0 1.6.1 1.1.1 2.2-.1 2.8-.3.3-.1.8-.3 1.2-.5s.8 0 .9.4c.2.5.3.9.4 1.1.2.4.7 1.7.8 2.1s.1 1.7.1 1.8 0 .5 0 .6 0 .6-.1.8-.4.3-.6.5-.3.5-.2.6.6 0 .9 0 .5-.1.5-.2-.2-.7 0-.9.5-.5.4-.9c-.2-.5 0-1.5-.1-1.8 0-.3 0-1.1.1-1.6.2.4.4.9.5 1 .2.3.3 1.6.3 1.8v.6.8c0 .2-.3.3-.5.6s-.3.4-.2.5.6.1.9.1.5-.1.5-.2c-.1-.1-.2-.6-.1-.9s.4-.6.3-.9c-.2-.5-.2-.9-.2-1.4.1-.1.2-.2.3-.4.3-.8.3-1.8.3-2.3s-.4-2.9-.6-4c-.2-.9-.2-1.2-.5-1.5-.1-.2-.3-.4-.5-.5-.2-.2-.6-.4-.8-.4-.4-.1-1.4-.4-1.8-.4-.3 0-1 .1-1.7.2s-2.3.3-3.3.1c-.7-.1-2.9-1.5-3.1-1.7s-1.6-.9-1.8-1.1c-.3-.2-1.3-.6-1.5-.7s-1.1-.4-1.3-.4h-.1c-.1-.1-.1-.2-.2-.3-.1-.2-.2-.3-.3-.4s-.1-.3-.1-.3c0-.1-.1-.1-.1 0v.4.3c-.1-.1-.2-.2-.2-.3-.1-.1-.1-.3-.1-.3 0-.1-.1-.1-.1 0v.4c0 .1 0 .3.1.4v.3.1c-.1.1-.2.1-.3.2-.2.2-.7.7-.8.9s-.8.9-.9 1.1-.4.6-.5.7c.1-.1.1.1.2.2"/><path d="m129.7 11.1c.1-.1.2-.5.3-.9v.2c0 .2-.1.8-.1 1.3-.1-.3-.2-.5-.2-.6m-18.9-5.4c.1.2 0 .3 0 .4.1.1.2.2.3.2s.1.1.2.1.6 0 .7-.1.1-.2.1-.3c.1-.1.5-.3.6-.4s.5-.3.6-.3c.1-.1.1-.1.1-.1.1 0 .6.1.8-.2.1-.1.4 0 .6.2s1.9 3 2 3.8c.1.9.6 1.5.9 1.8 0 .3.1.6.2 1.1.2.7.4 1.7.4 2.3s.1.8.1 1.1.1 1.5 0 1.8-.6.5-.6.8c-.1.1-.4.3-.4.3s-.1.1.1.1.7.1.8.1.3 0 .4-.2-.1-.3-.1-.3.1-.2.2-.3c0 0 .2-.3.3-.3s.2-.1.2-.3-.2-1.6-.2-1.7c0-.2 0-.7 0-.8.1-.2 0-.3.1-.8 0-.3 0-.2.1-.3.1.1.2.5.2.9.1.6.2.8.2 1.1s.2 1.5.1 1.8-.5.5-.6.8c-.1.1-.4.3-.4.4 0 0-.1.1.1.1h.8s.3 0 .4-.2-.1-.3-.1-.3.1-.2.2-.3c0 0 .2-.3.3-.3s.2-.1.2-.3-.2-1.6-.2-1.7-.1-.7 0-.8c0-.2.1-.3 0-.8s-.1-1.2-.1-1.5c0-.2 0-.5 0-.7.1 0 .6 0 1.6.1 1.1.1 2.1-.1 2.8-.3.3-.1.8-.3 1.2-.5s.8 0 .9.4c.2.5.3.9.4 1.1.2.4.6 1.7.8 2.1s.1 1.7.1 1.8 0 .5 0 .6 0 .6-.1.8-.4.3-.5.5-.3.5-.2.6.6 0 .9 0 .5-.1.5-.2-.2-.7 0-.9.5-.5.4-.9c-.2-.5 0-1.5-.1-1.8 0-.3 0-1.1.1-1.6.2.4.4.9.5 1 .2.3.3 1.6.3 1.8v.6.8c0 .2-.3.3-.5.6s-.3.4-.2.5c.1 0 .6.1.9.1s.5-.1.5-.2c-.1-.1-.2-.6-.1-.9s.4-.6.3-.9c-.2-.5-.1-.9-.2-1.4.1-.1.2-.2.3-.4.3-.8.3-1.8.3-2.3s-.4-2.9-.6-4c-.2-.9-.2-1.2-.5-1.5-.1-.2-.3-.4-.5-.5-.2-.2-.6-.4-.9-.4-.4-.1-1.4-.4-1.7-.4-.4 0-1 .1-1.7.2s-2.3.3-3.3.1c-.7-.1-2.9-1.5-3.1-1.7s-1.6-.9-1.8-1.1c-.3-.2-1.3-.6-1.5-.7s-1.1-.4-1.3-.4h-.1c-.1-.1-.1-.2-.2-.3-.1-.2-.2-.3-.3-.4s-.1-.3-.1-.3c0-.1-.1-.1-.1 0v.4.3c-.1-.1-.2-.2-.2-.3-.1-.1-.1-.3-.1-.3 0-.1-.1-.1-.1 0v.4c0 .1 0 .3.1.4v.3.1c-.1.1-.2.1-.3.2-.2.2-.7.7-.8.9s-.8.9-.9 1.1-.4.6-.5.7c-.1-.1-.1.1 0 .2"/><path d="m155.8 11.1c.1-.1.2-.5.3-.9v.2c0 .2-.1.8-.1 1.3-.2-.3-.2-.5-.2-.6m-18.9-5.4c.1.2 0 .3 0 .4.1.1.2.2.3.2s.1.1.2.1.6 0 .7-.1.1-.2.1-.3c.1-.1.5-.3.6-.4s.5-.3.6-.3c.1-.1.1-.1.1-.1s.6.1.8-.2c.1-.1.4 0 .6.2s1.9 3 2 3.8c.1.9.6 1.5.9 1.8 0 .3.1.6.2 1.1.2.7.4 1.7.4 2.3s.1.8.1 1.1.1 1.5 0 1.8-.6.5-.6.8c-.1.1-.4.3-.4.3s-.1.1.1.1.7.1.8.1.3 0 .4-.2-.1-.3-.1-.3.1-.2.2-.3c0 0 .2-.3.3-.3s.2-.1.2-.3-.2-1.6-.2-1.7c0-.2 0-.7 0-.8.1-.2 0-.3.1-.8 0-.3 0-.2.1-.3.1.1.2.5.2.9.1.6.2.8.2 1.1s.2 1.5.1 1.8-.5.5-.6.8c-.1.1-.4.3-.4.4 0 0-.1.1.1.1h.8s.3 0 .4-.2-.1-.3-.1-.3.1-.2.2-.3c0 0 .2-.3.3-.3s.2-.1.2-.3-.2-1.6-.2-1.7-.1-.7 0-.8c0-.2.1-.3 0-.8s-.1-1.2-.1-1.5c0-.2 0-.5 0-.7.1 0 .6 0 1.6.1 1.1.1 2.1-.1 2.8-.3.3-.1.8-.3 1.2-.5s.8 0 .9.4c.2.5.3.9.4 1.1.2.4.6 1.7.8 2.1s.1 1.7.1 1.8 0 .5 0 .6 0 .6-.1.8-.4.3-.6.5-.3.5-.2.6.6 0 .9 0 .5-.1.5-.2-.2-.7 0-.9.5-.5.4-.9c-.2-.5 0-1.5-.1-1.8 0-.3 0-1.1.1-1.6.2.4.4.9.5 1 .2.3.3 1.6.3 1.8v.6.8c0 .2-.3.3-.5.6s-.3.4-.2.5c.1 0 .6.1.9.1s.5-.1.5-.2c-.1-.1-.2-.6-.1-.9s.4-.6.3-.9c-.2-.5-.1-.9-.2-1.4.1-.1.2-.2.3-.4.3-.8.3-1.8.3-2.3s-.4-2.9-.6-4c-.2-.9-.2-1.2-.5-1.5-.1-.2-.3-.4-.5-.5-.2-.2-.6-.4-.9-.4-.4-.1-1.4-.4-1.8-.4s-1 .1-1.7.2-2.3.3-3.3.1c-.7-.1-2.9-1.5-3.1-1.7s-1.6-.9-1.8-1.1c-.3-.2-1.3-.6-1.5-.7s-1.1-.4-1.3-.4h-.1c-.1-.1-.1-.2-.2-.3-.1-.2-.2-.3-.3-.4s-.1-.3-.1-.3-.1-.1-.1 0v.4.3c-.1-.1-.2-.2-.2-.3-.1-.1-.1-.3-.1-.3s-.1-.1-.1 0v.4c0 .1 0 .3.1.4v.3.1c-.1.1-.2.1-.4.2-.2.2-.7.7-.8.9s-.8.9-.9 1.1-.4.6-.5.7c.2-.1.2.1.3.2"/><path d="m181.8 11.1c.1-.1.2-.5.3-.9v.2c0 .2-.1.8-.1 1.3-.1-.3-.2-.5-.2-.6m-18.8-5.4c.1.2 0 .3 0 .4.1.1.2.2.3.2s.1.1.2.1.6 0 .7-.1.1-.2.1-.3c.1-.1.5-.3.6-.4s.5-.3.6-.3c.1-.1.1-.1.1-.1s.6.1.8-.2c.1-.1.4 0 .6.2s1.9 3 2 3.8c.1.9.6 1.5.9 1.8 0 .3.1.6.2 1.1.2.7.4 1.7.4 2.3s.1.8.1 1.1.1 1.5 0 1.8-.6.5-.6.8c-.1.1-.4.3-.4.3s-.1.1.1.1.7.1.8.1.3 0 .4-.2-.1-.3-.1-.3.1-.2.2-.3c0 0 .2-.3.3-.3s.2-.1.2-.3-.2-1.6-.2-1.7c0-.2 0-.7 0-.8.1-.2 0-.3.1-.8 0-.3 0-.2.1-.3.1.1.2.5.2.9.1.6.2.8.2 1.1s.2 1.5.1 1.8-.5.5-.6.8c-.1.1-.4.3-.4.4 0 0-.1.1.1.1h.8s.3 0 .4-.2-.1-.3-.1-.3.1-.2.2-.3c0 0 .2-.3.3-.3s.2-.1.2-.3-.2-1.6-.2-1.7-.1-.7 0-.8c0-.2.1-.3 0-.8s-.1-1.2-.1-1.5c0-.2 0-.5 0-.7.1 0 .6 0 1.6.1 1.1.1 2.1-.1 2.8-.3.3-.1.8-.3 1.2-.5s.8 0 .9.4c.2.5.3.9.4 1.1.2.4.6 1.7.8 2.1s.1 1.7.1 1.8 0 .5 0 .6 0 .6-.1.8-.4.3-.6.5-.3.5-.2.6.6 0 .9 0 .5-.1.5-.2-.2-.7 0-.9.5-.5.4-.9c-.2-.5 0-1.5-.1-1.8 0-.3 0-1.1.1-1.6.2.4.4.9.5 1 .2.3.3 1.6.3 1.8v.6.8s-.3.3-.5.6c-.2.2-.3.4-.2.5s.6.1.9.1.5-.1.5-.2c-.1-.1-.2-.6-.1-.9s.4-.6.3-.9c-.2-.5-.1-.9-.2-1.4.1-.1.2-.2.3-.4.3-.8.3-1.8.3-2.3s-.4-2.9-.6-4c-.2-.9-.2-1.2-.5-1.5-.1-.2-.3-.4-.5-.5-.2-.2-.6-.4-.9-.4-.4-.1-1.4-.4-1.8-.4s-1 .1-1.7.2-2.3.3-3.3.1c-.7-.1-2.9-1.5-3.1-1.7s-1.6-.9-1.8-1.1c-.3-.2-1.3-.6-1.5-.7s-1.1-.4-1.3-.4h-.1c-.1-.1-.1-.2-.2-.3-.1-.2-.2-.3-.3-.4s-.1-.3-.1-.3-.1-.1-.1 0v.4.3c-.1-.1-.2-.2-.2-.3-.1-.1-.1-.3-.1-.3s-.1-.1-.1 0v.4c0 .1 0 .3.1.4v.3.1c-.1.1-.2.1-.4.2-.2.2-.7.7-.8.9s-.8.9-.9 1.1-.4.6-.5.7c.2-.1.2.1.3.2"/><path d="m207.9 11.1c.1-.1.2-.5.3-.9v.2c0 .2-.1.8-.1 1.3-.1-.3-.2-.5-.2-.6m-18.8-5.4c.1.2 0 .3 0 .4s.2.2.3.2.1.1.2.1.6 0 .7-.1.1-.2.1-.3c.1-.1.5-.3.6-.4s.5-.3.6-.3c.1-.1.1-.1.1-.1s.6.1.8-.2c.1-.1.4 0 .6.2s1.9 3 2 3.8c.1.9.6 1.5.9 1.8 0 .3.1.6.2 1.1.2.7.4 1.7.4 2.3s.1.8.1 1.1.1 1.5 0 1.8-.6.5-.6.8c-.1.1-.4.3-.4.3s-.1.1.1.1.7.1.8.1.3 0 .4-.2-.1-.3-.1-.3.1-.2.2-.3c0 0 .2-.3.3-.3s.2-.1.2-.3-.2-1.6-.2-1.7c0-.2 0-.7 0-.8.1-.2 0-.3.1-.8 0-.3 0-.2.1-.3.1.1.2.5.2.9.1.6.2.8.2 1.1s.2 1.5.1 1.8-.5.5-.6.8c-.1.1-.4.3-.4.4 0 0-.1.1.1.1h.8s.3 0 .4-.2-.1-.3-.1-.3.1-.2.2-.3c0 0 .2-.3.3-.3s.2-.1.2-.3-.2-1.6-.2-1.7-.1-.7 0-.8c0-.2.1-.3 0-.8s-.1-1.2-.1-1.5c0-.2 0-.5 0-.7.1 0 .6 0 1.6.1 1.1.1 2.1-.1 2.8-.3.3-.1.8-.3 1.2-.5s.8 0 .9.4c.2.5.3.9.4 1.1.2.4.6 1.7.8 2.1s.1 1.7.1 1.8 0 .5 0 .6 0 .6-.1.8-.4.3-.6.5-.3.5-.2.6.6 0 .9 0 .5-.1.5-.2-.2-.7 0-.9.5-.5.4-.9c-.2-.5 0-1.5-.1-1.8 0-.3 0-1.1.1-1.6.2.4.4.9.5 1 .2.3.3 1.6.3 1.8v.6.8c0 .2-.3.3-.5.6-.2.2-.3.4-.2.5.1 0 .6.1.9.1s.5-.1.5-.2c-.1-.1-.2-.6-.1-.9s.4-.6.3-.9c-.2-.5-.1-.9-.2-1.4.1-.1.2-.2.3-.4.3-.8.3-1.8.3-2.3s-.4-2.9-.6-4c-.2-.9-.2-1.2-.5-1.5-.1-.2-.3-.4-.5-.5-.2-.2-.6-.4-.9-.4-.4-.1-1.4-.4-1.8-.4s-1 .1-1.7.2-2.3.3-3.3.1c-.7-.1-2.9-1.5-3.1-1.7s-1.6-.9-1.8-1.1c-.3-.2-1.3-.6-1.5-.7s-1.1-.4-1.3-.4h-.1c-.1-.1-.1-.2-.2-.3-.1-.2-.2-.3-.3-.4.1-.3.1-.5.1-.5s-.1-.1-.1 0v.4.3c-.1-.1-.2-.2-.2-.3-.1-.1-.1-.3-.1-.3s-.1-.1-.1 0v.4c0 .1 0 .3.1.4v.3.1c-.1.1-.2.1-.4.2-.2.2-.7.7-.8.9s-.8.9-.9 1.1-.4.6-.5.7 0 .3.1.4"/><path d="m77.5 33c.1-.1.2-.5.3-.9v.2c0 .2-.1.8-.1 1.3-.1-.2-.1-.4-.2-.6m-18.8-5.3c.1.2 0 .3 0 .4.1.1.2.2.3.2s.1.1.2.1.6 0 .7-.1.1-.2.1-.3c.1-.1.5-.3.6-.3s.5-.3.6-.3.1-.1.1-.1c.1 0 .6.1.8-.2.1-.1.4 0 .6.2s1.9 3 2 3.8c.1.9.6 1.5.8 1.8 0 .3.1.6.2 1.1.2.7.4 1.7.4 2.3s.2.8.2 1.1.1 1.5 0 1.8-.6.5-.6.8c-.2.1-.4.3-.4.3s-.1.1.1.1.7.1.8.1.3 0 .4-.2-.1-.3-.1-.3.1-.2.2-.3.2-.3.3-.3.2-.1.2-.3-.2-1.6-.2-1.7c0-.2 0-.7 0-.8.1-.2 0-.3.1-.8 0-.3 0-.2.1-.3.1.1.2.5.2.8.1.6.2.8.2 1.1s.2 1.5.1 1.8-.5.5-.6.8c-.2.1-.3.3-.4.3 0 0-.1.1.1.1h.8c.1 0 .3 0 .4-.2s-.1-.3-.2-.3c0 0 .1-.2.2-.3s.2-.3.3-.3.2-.1.2-.3-.2-1.6-.2-1.7-.1-.7 0-.8c0-.2.1-.3 0-.8s-.1-1.2-.1-1.5c0-.2 0-.5 0-.7.1 0 .6 0 1.6.1 1.1.1 2.2-.1 2.8-.3.3-.1.8-.3 1.2-.5s.8 0 .9.4c.2.5.3.9.4 1.1.2.3.7 1.7.8 2.1s.1 1.7.1 1.8 0 .5 0 .7c0 .1 0 .6-.1.8s-.4.3-.6.5-.3.5-.2.6.6 0 .9 0 .5-.1.5-.2-.2-.7 0-.9.5-.5.4-.8c-.2-.5 0-1.5-.1-1.8 0-.3 0-1.1.1-1.6.2.4.4.9.5 1 .2.3.3 1.6.3 1.8v.7.8s-.3.3-.5.6-.3.4-.2.5.6.1.9.1.5-.2.5-.2c-.1-.1-.2-.7-.1-.9s.4-.6.3-.9c-.2-.5-.2-.9-.2-1.4.1-.1.2-.2.3-.4.3-.8.3-1.8.3-2.3s-.4-2.9-.6-4c-.2-.9-.2-1.2-.5-1.5-.1-.2-.3-.4-.5-.5-.2-.2-.6-.4-.8-.5-.4-.1-1.4-.4-1.8-.4-.3 0-1 .1-1.7.2s-2.3.3-3.3.1c-.7-.1-2.9-1.5-3.1-1.7s-1.6-.9-1.8-1.1c-.3-.2-1.3-.6-1.5-.7s-1.1-.4-1.3-.5h-.1c-.1-.1-.1-.2-.2-.3-.1-.2-.2-.3-.3-.4s-.1-.3-.1-.3c0-.1-.1-.1-.1 0v.4.3c-.1-.1-.2-.2-.2-.3-.1-.1-.1-.3-.1-.3 0-.1-.1-.1-.1 0v.4c0 .1 0 .3.1.4v.3.1c-.1.1-.2.1-.3.2-.2.2-.7.7-.8.9s-.8.9-.9 1.1-.4.6-.5.7c.1-.1.1 0 .2.2"/><path d="m103.6 33c.1-.1.2-.5.3-.9v.2c0 .2-.1.8-.1 1.3-.1-.2-.2-.4-.2-.6m-18.8-5.3c.1.2 0 .3 0 .4.1.1.2.2.3.2s.1.1.2.1.6 0 .7-.1.1-.2.1-.3c.1-.1.5-.3.6-.3s.5-.3.6-.3.1-.1.1-.1c.1 0 .6.1.8-.2.1-.1.4 0 .6.2s1.9 3 2 3.8c.1.9.6 1.5.8 1.8 0 .3.1.6.2 1.1.2.7.4 1.7.4 2.3s.2.8.2 1.1.1 1.5 0 1.8-.6.5-.6.8c-.2.1-.4.3-.4.3s-.1.1.1.1.7.1.8.1.3 0 .4-.2-.1-.3-.1-.3.1-.2.2-.3.2-.3.3-.3.2-.1.2-.3-.2-1.6-.2-1.7c0-.2 0-.7 0-.8.1-.2 0-.3.1-.8 0-.3 0-.2.1-.3.1.1.2.5.2.8.1.6.2.8.2 1.1s.2 1.5.1 1.8-.5.5-.6.8c-.2.1-.3.3-.4.3 0 0-.1.1.1.1h.8c.1 0 .3 0 .4-.2s-.1-.3-.2-.3c0 0 .1-.2.2-.3s.2-.3.3-.3.2-.1.2-.3-.2-1.6-.2-1.7-.1-.7 0-.8c0-.2.1-.3 0-.8s-.1-1.2-.1-1.5c0-.2 0-.5 0-.7.1 0 .6 0 1.6.1 1.1.1 2.2-.1 2.8-.3.3-.1.8-.3 1.2-.5s.8 0 .9.4c.2.5.3.9.4 1.1.2.3.7 1.7.8 2.1s.1 1.7.1 1.8 0 .5 0 .7c0 .1 0 .6-.1.8s-.4.3-.6.5-.3.5-.2.6.6 0 .9 0 .5-.1.5-.2-.2-.7 0-.9.5-.5.4-.8c-.2-.5 0-1.5-.1-1.8 0-.3 0-1.1.1-1.6.2.4.4.9.5 1 .2.3.3 1.6.3 1.8v.7.8s-.3.3-.5.6-.3.4-.2.5.6.1.9.1.5-.2.5-.2c-.1-.1-.2-.7-.1-.9s.4-.6.3-.9c-.2-.5-.2-.9-.2-1.4.1-.1.2-.2.3-.4.3-.8.3-1.8.3-2.3s-.4-2.9-.6-4c-.2-.9-.2-1.2-.5-1.5-.1-.2-.3-.4-.5-.5-.2-.2-.6-.4-.8-.5-.4-.1-1.4-.4-1.8-.4-.3 0-1 .1-1.7.2s-2.3.3-3.3.1c-.7-.1-2.9-1.5-3.1-1.7s-1.6-.9-1.8-1.1c-.3-.2-1.3-.6-1.5-.7s-1.1-.4-1.3-.5h-.1c-.1-.1-.1-.2-.2-.3-.1-.2-.2-.3-.3-.4s-.1-.3-.1-.3c0-.1-.1-.1-.1 0v.4.3c-.1-.1-.2-.2-.2-.3-.1-.1-.1-.3-.1-.3 0-.1-.1-.1-.1 0v.4c0 .1 0 .3.1.4v.3.1c-.1.1-.2.1-.3.2-.2.2-.7.7-.8.9s-.8.9-.9 1.1-.4.6-.5.7c.1-.1.1 0 .2.2"/><path d="m129.7 33c.1-.1.2-.5.3-.9v.2c0 .2-.1.8-.1 1.3-.1-.2-.2-.4-.2-.6m-18.9-5.3c.1.2 0 .3 0 .4.1.1.2.2.3.2s.1.1.2.1.6 0 .7-.1.1-.2.1-.3c.1-.1.5-.3.6-.3s.5-.3.6-.3.1-.1.1-.1c.1 0 .6.1.8-.2.1-.1.4 0 .6.2s1.9 3 2 3.8c.1.9.6 1.5.9 1.8 0 .3.1.6.2 1.1.2.7.4 1.7.4 2.3s.1.8.1 1.1.1 1.5 0 1.8-.6.5-.6.8c-.1.1-.4.3-.4.3s-.1.1.1.1.7.1.8.1.3 0 .4-.2-.1-.3-.1-.3.1-.2.2-.3.2-.3.3-.3.2-.1.2-.3-.2-1.6-.2-1.7c0-.2 0-.7 0-.8.1-.2 0-.3.1-.8 0-.3 0-.2.1-.3.1.1.2.5.2.8.1.6.2.8.2 1.1s.2 1.5.1 1.8-.5.5-.6.8c-.1.1-.4.3-.4.3s-.1.1.1.1h.8c.1 0 .3 0 .4-.2s-.1-.3-.1-.3.1-.2.2-.3.2-.3.3-.3.2-.1.2-.3-.2-1.6-.2-1.7-.1-.7 0-.8c0-.2.1-.3 0-.8s-.1-1.2-.1-1.5c0-.2 0-.5 0-.7.1 0 .6 0 1.6.1 1.1.1 2.1-.1 2.8-.3.3-.1.8-.3 1.2-.5s.8 0 .9.4c.2.5.3.9.4 1.1.2.3.6 1.7.8 2.1s.1 1.7.1 1.8 0 .5 0 .7c0 .1 0 .6-.1.8s-.4.3-.5.5-.3.5-.2.6.6 0 .9 0 .5-.1.5-.2-.2-.7 0-.9.5-.5.4-.8c-.2-.5 0-1.5-.1-1.8 0-.3 0-1.1.1-1.6.2.4.4.9.5 1 .2.3.3 1.6.3 1.8v.7.8s-.3.3-.5.6-.3.4-.2.5c.1 0 .6.1.9.1s.5-.2.5-.2c-.1-.1-.2-.7-.1-.9s.4-.6.3-.9c-.2-.5-.1-.9-.2-1.4.1-.1.2-.2.3-.4.3-.8.3-1.8.3-2.3s-.4-2.9-.6-4c-.2-.9-.2-1.2-.5-1.5-.1-.2-.3-.4-.5-.5-.2-.2-.6-.4-.9-.5-.4-.1-1.4-.4-1.7-.4-.4 0-1 .1-1.7.2s-2.3.3-3.3.1c-.7-.1-2.9-1.5-3.1-1.7s-1.6-.9-1.8-1.1c-.3-.2-1.3-.6-1.5-.7s-1.1-.4-1.3-.5h-.1c-.1-.1-.1-.2-.2-.3-.1-.2-.2-.3-.3-.4s-.1-.3-.1-.3c0-.1-.1-.1-.1 0v.4.3c-.1-.1-.2-.2-.2-.3-.1-.1-.1-.3-.1-.3 0-.1-.1-.1-.1 0v.4c0 .1 0 .3.1.4v.3.1c-.1.1-.2.1-.3.2-.2.2-.7.7-.8.9s-.8.9-.9 1.1-.4.6-.5.7c-.1-.1-.1 0 0 .2"/><path d="m155.8 33c.1-.1.2-.5.3-.9v.2c0 .2-.1.8-.1 1.3-.2-.2-.2-.4-.2-.6m-18.9-5.3c.1.2 0 .3 0 .4.1.1.2.2.3.2s.1.1.2.1.6 0 .7-.1.1-.2.1-.3c.1-.1.5-.3.6-.3s.5-.3.6-.3.1-.1.1-.1.6.1.8-.2c.1-.1.4 0 .6.2s1.9 3 2 3.8c.1.9.6 1.5.9 1.8 0 .3.1.6.2 1.1.2.7.4 1.7.4 2.3s.1.8.1 1.1.1 1.5 0 1.8-.6.5-.6.8c-.1.1-.4.3-.4.3s-.1.1.1.1.7.1.8.1.3 0 .4-.2-.1-.3-.1-.3.1-.2.2-.3.2-.3.3-.3.2-.1.2-.3-.2-1.6-.2-1.7c0-.2 0-.7 0-.8.1-.2 0-.3.1-.8 0-.3 0-.2.1-.3.1.1.2.5.2.8.1.6.2.8.2 1.1s.2 1.5.1 1.8-.5.5-.6.8c-.1.1-.4.3-.4.3s-.1.1.1.1h.8c.1 0 .3 0 .4-.2s-.1-.3-.1-.3.1-.2.2-.3.2-.3.3-.3.2-.1.2-.3-.2-1.6-.2-1.7-.1-.7 0-.8c0-.2.1-.3 0-.8s-.1-1.2-.1-1.5c0-.2 0-.5 0-.7.1 0 .6 0 1.6.1 1.1.1 2.1-.1 2.8-.3.3-.1.8-.3 1.2-.5s.8 0 .9.4c.2.5.3.9.4 1.1.2.3.6 1.7.8 2.1s.1 1.7.1 1.8 0 .5 0 .7c0 .1 0 .6-.1.8s-.4.3-.6.5-.3.5-.2.6.6 0 .9 0 .5-.1.5-.2-.2-.7 0-.9.5-.5.4-.8c-.2-.5 0-1.5-.1-1.8 0-.3 0-1.1.1-1.6.2.4.4.9.5 1 .2.3.3 1.6.3 1.8v.7.8s-.3.3-.5.6-.3.4-.2.5c.1 0 .6.1.9.1s.5-.2.5-.2c-.1-.1-.2-.7-.1-.9s.4-.6.3-.9c-.2-.5-.1-.9-.2-1.4.1-.1.2-.2.3-.4.3-.8.3-1.8.3-2.3s-.4-2.9-.6-4c-.2-.9-.2-1.2-.5-1.5-.1-.2-.3-.4-.5-.5-.2-.2-.6-.4-.9-.5-.4-.1-1.4-.4-1.8-.4s-1 .1-1.7.2-2.3.3-3.3.1c-.7-.1-2.9-1.5-3.1-1.7s-1.6-.9-1.8-1.1c-.3-.2-1.3-.6-1.5-.7s-1.1-.4-1.3-.5h-.1c-.1-.1-.1-.2-.2-.3-.1-.2-.2-.3-.3-.4s-.1-.3-.1-.3-.1-.1-.1 0v.4.3c-.1-.1-.2-.2-.2-.3-.1-.1-.1-.3-.1-.3s-.1-.1-.1 0v.4c0 .1 0 .3.1.4v.3.1c-.1.1-.2.1-.4.2-.2.2-.7.7-.8.9s-.8.9-.9 1.1-.4.6-.5.7c.2-.1.2 0 .3.2"/><path d="m181.8 33c.1-.1.2-.5.3-.9v.2c0 .2-.1.8-.1 1.3-.1-.2-.2-.4-.2-.6m-18.8-5.3c.1.2 0 .3 0 .4.1.1.2.2.3.2s.1.1.2.1.6 0 .7-.1.1-.2.1-.3c.1-.1.5-.3.6-.3s.5-.3.6-.3.1-.1.1-.1.6.1.8-.2c.1-.1.4 0 .6.2s1.9 3 2 3.8c.1.9.6 1.5.9 1.8 0 .3.1.6.2 1.1.2.7.4 1.7.4 2.3s.1.8.1 1.1.1 1.5 0 1.8-.6.5-.6.8c-.1.1-.4.3-.4.3s-.1.1.1.1.7.1.8.1.3 0 .4-.2-.1-.3-.1-.3.1-.2.2-.3.2-.3.3-.3.2-.1.2-.3-.2-1.6-.2-1.7c0-.2 0-.7 0-.8.1-.2 0-.3.1-.8 0-.3 0-.2.1-.3.1.1.2.5.2.8.1.6.2.8.2 1.1s.2 1.5.1 1.8-.5.5-.6.8c-.1.1-.4.3-.4.3s-.1.1.1.1h.8c.1 0 .3 0 .4-.2s-.1-.3-.1-.3.1-.2.2-.3.2-.3.3-.3.2-.1.2-.3-.2-1.6-.2-1.7-.1-.7 0-.8c0-.2.1-.3 0-.8s-.1-1.2-.1-1.5c0-.2 0-.5 0-.7.1 0 .6 0 1.6.1 1.1.1 2.1-.1 2.8-.3.3-.1.8-.3 1.2-.5s.8 0 .9.4c.2.5.3.9.4 1.1.2.3.6 1.7.8 2.1s.1 1.7.1 1.8 0 .5 0 .7c0 .1 0 .6-.1.8s-.4.3-.6.5-.3.5-.2.6.6 0 .9 0 .5-.1.5-.2-.2-.7 0-.9.5-.5.4-.8c-.2-.5 0-1.5-.1-1.8 0-.3 0-1.1.1-1.6.2.4.4.9.5 1 .2.3.3 1.6.3 1.8v.7.8s-.3.3-.5.6c-.2.2-.3.4-.2.5.1 0 .6.1.9.1s.5-.2.5-.2c-.1-.1-.2-.7-.1-.9s.4-.6.3-.9c-.2-.5-.1-.9-.2-1.4.1-.1.2-.2.3-.4.3-.8.3-1.8.3-2.3s-.4-2.9-.6-4c-.2-.9-.2-1.2-.5-1.5-.1-.2-.3-.4-.5-.5-.2-.2-.6-.4-.9-.5-.4-.1-1.4-.4-1.8-.4s-1 .1-1.7.2-2.3.3-3.3.1c-.7-.1-2.9-1.5-3.1-1.7s-1.6-.9-1.8-1.1c-.3-.2-1.3-.6-1.5-.7s-1.1-.4-1.3-.5h-.1c-.1-.1-.1-.2-.2-.3-.1-.2-.2-.3-.3-.4s-.1-.3-.1-.3-.1-.1-.1 0v.4.3c-.1-.1-.2-.2-.2-.3-.1-.1-.1-.3-.1-.3s-.1-.1-.1 0v.4c0 .1 0 .3.1.4v.3.1c-.1.1-.2.1-.4.2-.2.2-.7.7-.8.9s-.8.9-.9 1.1-.4.6-.5.7c.2-.1.2 0 .3.2"/><path d="m207.9 33c.1-.1.2-.5.3-.9v.2c0 .2-.1.8-.1 1.3-.1-.2-.2-.4-.2-.6m-18.8-5.3c.1.2 0 .3 0 .4.1.1.2.2.3.2s.1.1.2.1.6 0 .7-.1.1-.2.1-.3c.1-.1.5-.3.6-.3s.5-.3.6-.3.1-.1.1-.1.6.1.8-.2c.1-.1.4 0 .6.2s1.9 3 2 3.8c.1.9.6 1.5.9 1.8 0 .3.1.6.2 1.1.2.7.4 1.7.4 2.3s.1.8.1 1.1.1 1.5 0 1.8-.6.5-.6.8c-.1.1-.4.3-.4.3s-.1.1.1.1.7.1.8.1.3 0 .4-.2-.1-.3-.1-.3.1-.2.2-.3.2-.3.3-.3.2-.1.2-.3-.2-1.6-.2-1.7c0-.2 0-.7 0-.8.1-.2 0-.3.1-.8 0-.3 0-.2.1-.3.1.1.2.5.2.8.1.6.2.8.2 1.1s.2 1.5.1 1.8-.5.5-.6.8c-.1.1-.4.3-.4.3s-.1.1.1.1h.8c.1 0 .3 0 .4-.2s-.1-.3-.1-.3.1-.2.2-.3.2-.3.3-.3.2-.1.2-.3-.2-1.6-.2-1.7-.1-.7 0-.8c0-.2.1-.3 0-.8s-.1-1.2-.1-1.5c0-.2 0-.5 0-.7.1 0 .6 0 1.6.1 1.1.1 2.1-.1 2.8-.3.3-.1.8-.3 1.2-.5s.8 0 .9.4c.2.5.3.9.4 1.1.2.3.6 1.7.8 2.1s.1 1.7.1 1.8 0 .5 0 .7c0 .1 0 .6-.1.8s-.4.3-.6.5-.3.5-.2.6.6 0 .9 0 .5-.1.5-.2-.2-.7 0-.9.5-.5.4-.8c-.2-.5 0-1.5-.1-1.8 0-.3 0-1.1.1-1.6.2.4.4.9.5 1 .2.3.3 1.6.3 1.8v.7.8s-.3.3-.5.6c-.2.2-.3.4-.2.5.1 0 .6.1.9.1s.5-.2.5-.2c-.1-.1-.2-.7-.1-.9s.4-.6.3-.9c-.2-.5-.1-.9-.2-1.4.1-.1.2-.2.3-.4.3-.8.3-1.8.3-2.3s-.4-2.9-.6-4c-.2-.9-.2-1.2-.5-1.5-.1-.2-.3-.4-.5-.5-.2-.2-.6-.4-.9-.5-.4-.1-1.4-.4-1.8-.4s-1 .1-1.7.2-2.3.3-3.3.1c-.7-.1-2.9-1.5-3.1-1.7s-1.6-.9-1.8-1.1c-.3-.2-1.3-.6-1.5-.7s-1.1-.4-1.3-.5h-.1c-.1-.1-.1-.2-.2-.3-.1-.2-.2-.3-.3-.4s-.1-.3-.1-.3-.1-.1-.1 0v.4.3c-.1-.1-.2-.2-.2-.3-.1-.1-.1-.3-.1-.3s-.1-.1-.1 0v.4c0 .1 0 .3.1.4v.3.1c-.1.1-.2.1-.4.2-.2.2-.7.7-.8.9s-.8.9-.9 1.1-.4.6-.5.7c.1-.1.2 0 .3.2"/><path d="m77.5 55c.1-.1.2-.5.3-.9v.2c0 .2-.1.8-.1 1.3-.1-.2-.1-.4-.2-.6m-18.8-5.3c.1.2 0 .3 0 .4.1.1.2.2.3.2s.1.1.2.1.6 0 .7-.1.1-.2.1-.3c.1-.1.5-.3.6-.3s.5-.3.6-.3.1-.1.1-.1c.1 0 .6.1.8-.2.1-.1.4 0 .6.2s1.9 3 2 3.8c.1.9.6 1.5.8 1.8 0 .3.1.6.2 1.1.2.7.4 1.7.4 2.3s.2.8.2 1.1.1 1.5 0 1.8-.6.5-.6.8c-.2.1-.4.3-.4.3s-.1.1.1.1.7.1.8.1.3 0 .4-.2-.1-.3-.1-.3c0-.1.1-.2.2-.3 0-.1.2-.3.3-.3s.2-.1.2-.3-.2-1.6-.2-1.7c0-.2 0-.7 0-.8s0-.3.1-.8c0-.3 0-.2.1-.3.1.1.2.5.2.8.1.6.2.8.2 1.1s.2 1.5.1 1.8-.5.6-.6.8c-.2.1-.3.3-.4.3 0 0-.1.1.1.1h.8s.3 0 .4-.2 0-.1 0-.1c0-.1.1-.2.2-.3s.2-.3.3-.3c.1-.1.2-.1.2-.3s-.2-1.6-.2-1.7-.1-.7 0-.8.1-.3 0-.8-.1-1.2-.1-1.5c0-.2 0-.5 0-.7.1 0 .6 0 1.6.1 1.1.1 2.2-.1 2.8-.3.3-.1.8-.3 1.2-.5s.8 0 .9.4c.2.5.3.9.4 1.1.2.3.7 1.7.8 2.1s.1 1.7.1 1.8 0 .5 0 .7c0 .1 0 .6-.1.8s-.4.3-.6.5-.3.5-.2.6.6 0 .9.1c.3 0 .5-.1.5-.2s-.2-.7 0-.9.5-.5.4-.8c-.2-.5 0-1.5-.1-1.8 0-.3 0-1.1.1-1.6.2.4.4.9.5 1 .2.3.3 1.6.3 1.8v.7.8s-.3.3-.5.6-.3.4-.2.5.6.1.9.1.5-.2.5-.2c-.1-.1-.2-.7-.1-.9s.4-.6.3-.9c-.2-.4-.2-.9-.2-1.4.1-.1.2-.2.3-.4.3-.8.3-1.8.3-2.3s-.4-2.9-.6-4c-.2-.9-.2-1.2-.5-1.5-.1-.2-.3-.4-.5-.5-.2-.2-.6-.4-.8-.5-.4-.1-1.4-.4-1.8-.4-.3 0-1 .1-1.7.2s-2.3.3-3.3.1c-.7-.1-2.9-1.5-3.1-1.7s-1.6-.9-1.8-1.1c-.3-.2-1.3-.6-1.5-.7s-1.1-.4-1.3-.5h-.1c-.1-.1-.1-.2-.2-.3-.1-.2-.2-.3-.3-.4s-.1-.3-.1-.3-.1-.1-.1 0v.4.3c-.1-.1-.2-.2-.2-.3-.1-.1-.1-.3-.1-.3 0-.1-.1-.1-.1 0v.4c0 .1 0 .3.1.4v.3.1c-.1.1-.2.1-.3.2-.2.2-.7.7-.8.9s-.8.9-.9 1.1-.4.6-.5.7c-.1-.4-.1-.3 0-.1"/><path d="m103.6 55c.1-.1.2-.5.3-.9v.2c0 .2-.1.8-.1 1.3-.1-.2-.2-.4-.2-.6m-18.8-5.3c.1.2 0 .3 0 .4.1.1.2.2.3.2s.1.1.2.1.6 0 .7-.1.1-.2.1-.3c.1-.1.5-.3.6-.3s.5-.3.6-.3.1-.1.1-.1c.1 0 .6.1.8-.2.1-.1.4 0 .6.2s1.9 3 2 3.8c.1.9.6 1.5.8 1.8 0 .3.1.6.2 1.1.2.7.4 1.7.4 2.3s.2.8.2 1.1.1 1.5 0 1.8-.6.5-.6.8c-.2.1-.4.3-.4.3s-.1.1.1.1.7.1.8.1.3 0 .4-.2-.1-.3-.1-.3c0-.1.1-.2.2-.3 0-.1.2-.3.3-.3s.2-.1.2-.3-.2-1.6-.2-1.7c0-.2 0-.7 0-.8s0-.3.1-.8c0-.3 0-.2.1-.3.1.1.2.5.2.8.1.6.2.8.2 1.1s.2 1.5.1 1.8-.5.6-.6.8c-.2.1-.3.3-.4.3 0 0-.1.1.1.1h.8s.3 0 .4-.2-.1-.3-.2-.3c0-.1.1-.2.2-.3s.2-.3.3-.3c.1-.1.2-.1.2-.3s-.2-1.6-.2-1.7-.1-.7 0-.8.1-.3 0-.8-.1-1.2-.1-1.5c0-.2 0-.5 0-.7.1 0 .6 0 1.6.1 1.1.1 2.2-.1 2.8-.3.3-.1.8-.3 1.2-.5s.8 0 .9.4c.2.5.3.9.4 1.1.2.3.7 1.7.8 2.1s.1 1.7.1 1.8 0 .5 0 .7c0 .1 0 .6-.1.8s-.4.3-.6.5-.3.5-.2.6.6 0 .9.1c.3 0 .5-.1.5-.2s-.2-.7 0-.9.5-.5.4-.8c-.2-.5 0-1.5-.1-1.8 0-.3 0-1.1.1-1.6.2.4.4.9.5 1 .2.3.3 1.6.3 1.8v.7.8s-.3.3-.5.6-.3.4-.2.5.6.1.9.1.5-.2.5-.2c-.1-.1-.2-.7-.1-.9s.4-.6.3-.9c-.2-.4-.2-.9-.2-1.4.1-.1.2-.2.3-.4.3-.8.3-1.8.3-2.3s-.4-2.9-.6-4c-.2-.9-.2-1.2-.5-1.5-.1-.2-.3-.4-.5-.5-.2-.2-.6-.4-.8-.5-.4-.1-1.4-.4-1.8-.4-.3 0-1 .1-1.7.2s-2.3.3-3.3.1c-.7-.1-2.9-1.5-3.1-1.7s-1.6-.9-1.8-1.1c-.3-.2-1.3-.6-1.5-.7s-1.1-.4-1.3-.5h-.1c-.1-.1-.1-.2-.2-.3-.1-.2-.2-.3-.3-.4s-.1-.3-.1-.3c0-.1-.1-.1-.1 0v.4.3c-.1-.1-.2-.2-.2-.3-.1-.1-.1-.3-.1-.3 0-.1-.1-.1-.1 0v.4s0 .3.1.4v.3.1c-.1.1-.2.1-.3.2-.2.2-.7.7-.8.9s-.8.9-.9 1.1-.4.6-.5.7c.1-.2.1-.1.2.1"/><path d="m129.7 55c.1-.1.2-.5.3-.9v.2c0 .2-.1.8-.1 1.3-.1-.2-.2-.4-.2-.6m-18.9-5.3c.1.2 0 .3 0 .4.1.1.2.2.3.2s.1.1.2.1.6 0 .7-.1.1-.2.1-.3c.1-.1.5-.3.6-.3s.5-.3.6-.3.1-.1.1-.1c.1 0 .6.1.8-.2.1-.1.4 0 .6.2s1.9 3 2 3.8c.1.9.6 1.5.9 1.8 0 .3.1.6.2 1.1.2.7.4 1.7.4 2.3s.1.8.1 1.1.1 1.5 0 1.8-.6.5-.6.8c-.1.1-.4.3-.4.3s-.1.1.1.1.7.1.8.1.3 0 .4-.2-.1-.3-.1-.3c0-.1.1-.2.2-.3 0-.1.2-.3.3-.3s.2-.1.2-.3-.2-1.6-.2-1.7c0-.2 0-.7 0-.8.1-.2 0-.3.1-.8 0-.3 0-.2.1-.3.1.1.2.5.2.8.1.6.2.8.2 1.1s.2 1.5.1 1.8-.5.6-.6.8c-.1.1-.4.3-.4.3s-.1.1.1.1h.8s.3 0 .4-.2-.1-.3-.1-.3c0-.1.1-.2.2-.3s.2-.3.3-.3c.1-.1.2-.1.2-.3s-.2-1.6-.2-1.7-.1-.7 0-.8c0-.2.1-.3 0-.8s-.1-1.2-.1-1.5c0-.2 0-.5 0-.7.1 0 .6 0 1.6.1 1.1.1 2.1-.1 2.8-.3.3-.1.8-.3 1.2-.5s.8 0 .9.4c.2.5.3.9.4 1.1.2.3.6 1.7.8 2.1s.1 1.7.1 1.8 0 .5 0 .7c0 .1 0 .6-.1.8s-.4.3-.5.5c-.2.2-.3.5-.2.6s.6 0 .9.1c.3 0 .5-.1.5-.2s-.2-.7 0-.9.5-.5.4-.8c-.2-.5 0-1.5-.1-1.8 0-.3 0-1.1.1-1.6.2.4.4.9.5 1 .2.3.3 1.6.3 1.8v.7.8s-.3.3-.5.6-.3.4-.2.5.6.1.9.1.5-.2.5-.2c-.1-.1-.2-.7-.1-.9s.4-.6.3-.9c-.2-.4-.1-.9-.2-1.4.1-.1.2-.2.3-.4.3-.8.3-1.8.3-2.3s-.4-2.9-.6-4c-.2-.9-.2-1.2-.5-1.5-.1-.2-.3-.4-.5-.5-.2-.2-.6-.4-.9-.5-.4-.1-1.4-.4-1.7-.4-.4 0-1 .1-1.7.2s-2.3.3-3.3.1c-.7-.1-2.9-1.5-3.1-1.7s-1.6-.9-1.8-1.1c-.3-.2-1.3-.6-1.5-.7s-1.1-.4-1.3-.5h-.1c-.1-.1-.1-.2-.2-.3-.1-.2-.2-.3-.3-.4s-.1-.3-.1-.3c0-.1-.1-.1-.1 0v.4.3c-.1-.1-.2-.2-.2-.3-.1-.1-.1-.3-.1-.3 0-.1-.1-.1-.1 0v.4s0 .3.1.4v.3.1c-.1.1-.2.1-.3.2-.2.2-.7.7-.8.9s-.8.9-.9 1.1-.4.6-.5.7c-.1-.2-.1-.1 0 .1"/><path d="m155.8 55c.1-.1.2-.5.3-.9v.2c0 .2-.1.8-.1 1.3-.2-.2-.2-.4-.2-.6m-18.9-5.3c.1.2 0 .3 0 .4.1.1.2.2.3.2s.1.1.2.1.6 0 .7-.1.1-.2.1-.3c.1-.1.5-.3.6-.3s.5-.3.6-.3.1-.1.1-.1.6.1.8-.2c.1-.1.4 0 .6.2s1.9 3 2 3.8c.1.9.6 1.5.9 1.8 0 .3.1.6.2 1.1.2.7.4 1.7.4 2.3s.1.8.1 1.1.1 1.5 0 1.8-.6.5-.6.8c-.1.1-.4.3-.4.3s-.1.1.1.1.7.1.8.1.3 0 .4-.2-.1-.3-.1-.3c0-.1.1-.2.2-.3 0-.1.2-.3.3-.3s.2-.1.2-.3-.2-1.6-.2-1.7c0-.2 0-.7 0-.8.1-.2 0-.3.1-.8 0-.3 0-.2.1-.3.1.1.2.5.2.8.1.6.2.8.2 1.1s.2 1.5.1 1.8-.5.6-.6.8c-.1.1-.4.3-.4.3s-.1.1.1.1h.8s.3 0 .4-.2-.1-.3-.1-.3c0-.1.1-.2.2-.3s.2-.3.3-.3c.1-.1.2-.1.2-.3s-.2-1.6-.2-1.7-.1-.7 0-.8c0-.2.1-.3 0-.8s-.1-1.2-.1-1.5c0-.2 0-.5 0-.7.1 0 .6 0 1.6.1 1.1.1 2.1-.1 2.8-.3.3-.1.8-.3 1.2-.5s.8 0 .9.4c.2.5.3.9.4 1.1.2.3.6 1.7.8 2.1s.1 1.7.1 1.8 0 .5 0 .7c0 .1 0 .6-.1.8s-.4.3-.6.5-.3.5-.2.6.6 0 .9.1c.3 0 .5-.1.5-.2s-.2-.7 0-.9.5-.5.4-.8c-.2-.5 0-1.5-.1-1.8 0-.3 0-1.1.1-1.6.2.4.4.9.5 1 .2.3.3 1.6.3 1.8v.7.8s-.3.3-.5.6-.3.4-.2.5.6.1.9.1.5-.2.5-.2c-.1-.1-.2-.7-.1-.9s.4-.6.3-.9c-.2-.4-.1-.9-.2-1.4.1-.1.2-.2.3-.4.3-.8.3-1.8.3-2.3s-.4-2.9-.6-4c-.2-.9-.2-1.2-.5-1.5-.1-.2-.3-.4-.5-.5-.2-.2-.6-.4-.9-.5-.4-.1-1.4-.4-1.8-.4s-1 .1-1.7.2-2.3.3-3.3.1c-.7-.1-2.9-1.5-3.1-1.7s-1.6-.9-1.8-1.1c-.3-.2-1.3-.6-1.5-.7s-1.1-.4-1.3-.5h-.1c-.1-.1-.1-.2-.2-.3-.1-.2-.2-.3-.3-.4s-.1-.3-.1-.3-.1-.1-.1 0v.4.3c-.1-.1-.2-.2-.2-.3-.1-.1-.1-.3-.1-.3s-.1-.1-.1 0v.4s0 .3.1.4v.3.1c-.1.1-.2.1-.4.2-.2.2-.7.7-.8.9s-.8.9-.9 1.1-.4.6-.5.7c.2-.2.2-.1.3.1"/><path d="m181.8 55c.1-.1.2-.5.3-.9v.2c0 .2-.1.8-.1 1.3-.1-.2-.2-.4-.2-.6m-18.8-5.3c.1.2 0 .3 0 .4.1.1.2.2.3.2s.1.1.2.1.6 0 .7-.1.1-.2.1-.3c.1-.1.5-.3.6-.3s.5-.3.6-.3.1-.1.1-.1.6.1.8-.2c.1-.1.4 0 .6.2s1.9 3 2 3.8c.1.9.6 1.5.9 1.8 0 .3.1.6.2 1.1.2.7.4 1.7.4 2.3s.1.8.1 1.1.1 1.5 0 1.8-.6.5-.6.8c-.1.1-.4.3-.4.3s-.1.1.1.1.7.1.8.1.3 0 .4-.2-.1-.3-.1-.3c0-.1.1-.2.2-.3 0-.1.2-.3.3-.3s.2-.1.2-.3-.2-1.6-.2-1.7c0-.2 0-.7 0-.8.1-.2 0-.3.1-.8 0-.3 0-.2.1-.3.1.1.2.5.2.8.1.6.2.8.2 1.1s.2 1.5.1 1.8-.5.6-.6.8c-.1.1-.4.3-.4.3s-.1.1.1.1h.8s.3 0 .4-.2-.1-.3-.1-.3c0-.1.1-.2.2-.3s.2-.3.3-.3c.1-.1.2-.1.2-.3s-.2-1.6-.2-1.7-.1-.7 0-.8c0-.2.1-.3 0-.8s-.1-1.2-.1-1.5c0-.2 0-.5 0-.7.1 0 .6 0 1.6.1 1.1.1 2.1-.1 2.8-.3.3-.1.8-.3 1.2-.5s.8 0 .9.4c.2.5.3.9.4 1.1.2.3.6 1.7.8 2.1s.1 1.7.1 1.8 0 .5 0 .7c0 .1 0 .6-.1.8s-.4.3-.6.5-.3.5-.2.6.6 0 .9.1c.3 0 .5-.1.5-.2s-.2-.7 0-.9.5-.5.4-.8c-.2-.5 0-1.5-.1-1.8 0-.3 0-1.1.1-1.6.2.4.4.9.5 1 .2.3.3 1.6.3 1.8v.7.8s-.3.3-.5.6c-.2.2-.3.4-.2.5s.6.1.9.1.5-.2.5-.2c-.1-.1-.2-.7-.1-.9s.4-.6.3-.9c-.2-.4-.1-.9-.2-1.4.1-.1.2-.2.3-.4.3-.8.3-1.8.3-2.3s-.4-2.9-.6-4c-.2-.9-.2-1.2-.5-1.5-.1-.2-.3-.4-.5-.5-.2-.2-.6-.4-.9-.5-.4-.1-1.4-.4-1.8-.4s-1 .1-1.7.2-2.3.3-3.3.1c-.7-.1-2.9-1.5-3.1-1.7s-1.6-.9-1.8-1.1c-.3-.2-1.3-.6-1.5-.7s-1.1-.4-1.3-.5h-.1c-.1-.1-.1-.2-.2-.3-.1-.2-.2-.3-.3-.4s-.1-.3-.1-.3-.1-.1-.1 0v.4.3c-.1-.1-.2-.2-.2-.3-.1-.1-.1-.3-.1-.3s-.1-.1-.1 0v.4c0 .1 0 .3.1.4v.3.1c-.1.1-.2.1-.4.2-.2.2-.7.7-.8.9s-.8.9-.9 1.1-.4.6-.5.7c.2-.2.2-.1.3.1"/><path d="m207.9 55c.1-.1.2-.5.3-.9v.2c0 .2-.1.8-.1 1.3-.1-.2-.2-.4-.2-.6m-18.8-5.3c.1.2 0 .3 0 .4s.2.2.3.2.1.1.2.1.6 0 .7-.1.1-.2.1-.3c.1-.1.5-.3.6-.3s.5-.3.6-.3.1-.1.1-.1.6.1.8-.2c.1-.1.4 0 .6.2s1.9 3 2 3.8c.1.9.6 1.5.9 1.8 0 .3.1.6.2 1.1.2.7.4 1.7.4 2.3s.1.8.1 1.1.1 1.5 0 1.8-.6.5-.6.8c-.1.1-.4.3-.4.3s-.1.1.1.1.7.1.8.1.3 0 .4-.2-.1-.3-.1-.3c0-.1.1-.2.2-.3 0-.1.2-.3.3-.3s.2-.1.2-.3-.2-1.6-.2-1.7c0-.2 0-.7 0-.8.1-.2 0-.3.1-.8 0-.3 0-.2.1-.3.1.1.2.5.2.8.1.6.2.8.2 1.1s.2 1.5.1 1.8-.5.6-.6.8c-.1.1-.4.3-.4.3s-.1.1.1.1h.8s.3 0 .4-.2-.1-.3-.1-.3c0-.1.1-.2.2-.3s.2-.3.3-.3c.1-.1.2-.1.2-.3s-.2-1.6-.2-1.7-.1-.7 0-.8c0-.2.1-.3 0-.8s-.1-1.2-.1-1.5c0-.2 0-.5 0-.7.1 0 .6 0 1.6.1 1.1.1 2.1-.1 2.8-.3.3-.1.8-.3 1.2-.5s.8 0 .9.4c.2.5.3.9.4 1.1.2.3.6 1.7.8 2.1s.1 1.7.1 1.8 0 .5 0 .7c0 .1 0 .6-.1.8s-.4.3-.6.5-.3.5-.2.6.6 0 .9.1c.3 0 .5-.1.5-.2s-.2-.7 0-.9.5-.5.4-.8c-.2-.5 0-1.5-.1-1.8 0-.3 0-1.1.1-1.6.2.4.4.9.5 1 .2.3.3 1.6.3 1.8v.7.8s-.3.3-.5.6c-.2.2-.3.4-.2.5s.6.1.9.1.5-.2.5-.2c-.1-.1-.2-.7-.1-.9s.4-.6.3-.9c-.2-.4-.1-.9-.2-1.4.1-.1.2-.2.3-.4.3-.8.3-1.8.3-2.3s-.4-2.9-.6-4c-.2-.9-.2-1.2-.5-1.5-.1-.2-.3-.4-.5-.5-.2-.2-.6-.4-.9-.5-.4-.1-1.4-.4-1.8-.4s-1 .1-1.7.2-2.3.3-3.3.1c-.7-.1-2.9-1.5-3.1-1.7s-1.6-.9-1.8-1.1c-.3-.2-1.3-.6-1.5-.7s-1.1-.4-1.3-.5h-.1c-.1-.1-.1-.2-.2-.3-.1-.2-.2-.3-.3-.4s-.1-.3-.1-.3-.1-.1-.1 0v.4.3c-.1-.1-.2-.2-.2-.3-.1-.1-.1-.3-.1-.3s-.1-.1-.1 0v.4c0 .1 0 .3.1.4v.3.1c-.1.1-.2.1-.4.2-.2.2-.7.7-.8.9s-.8.9-.9 1.1-.4.6-.5.7c.1-.2.2-.1.3.1"/><path d="m33 60.6c-.1-.2-.2-.4-.2-.7s.1-.6.2-.7c.1-.2.3-.2.5-.2s.4.1.5.2c.1.2.2.4.2.8 0 .3-.1.5-.2.7-.1.1-.3.2-.5.2s-.4-.1-.5-.3m1.1.5.2.4h.7v-4.5h-.9v1c0 .2 0 .4.1.7-.2-.3-.5-.5-.9-.5s-.7.2-.9.4c-.3.4-.4.8-.4 1.3s.1.9.3 1.2.5.4.9.4c.4.1.7-.1.9-.4m-3.1-1.7c0-.4-.1-.7-.3-.9s-.5-.3-.9-.3c-.2 0-.4 0-.6.1s-.3.2-.4.4l-.1-.4h-.7v3.2h.9v-1.5c0-.4.1-.7.2-.8.1-.2.3-.2.5-.2s.3.1.4.2.1.3.1.5v1.9h.9zm-5 .9c0 .2-.1.3-.2.5s-.3.2-.5.2c-.3 0-.4-.1-.4-.4 0-.2.1-.3.2-.4s.3-.1.6-.1h.3zm.9 1.2v-2.2c0-.4-.1-.7-.3-.9s-.6-.3-1-.3c-.5 0-.9.1-1.2.3l.3.6c.3-.2.7-.2.9-.2.3 0 .5.2.5.5v.1h-.6c-.5 0-.8.1-1.1.3-.2.2-.4.4-.4.8 0 .3.1.6.3.8s.4.3.7.3c.2 0 .5 0 .6-.1s.3-.2.5-.4l.2.5h.6zm-3.9-4.5h-.9v4.5h.9zm-2.5 4.5c.2 0 .3-.1.5-.2v-.7c-.2.1-.4.2-.5.2-.2 0-.4.1-.6.1s-.5-.1-.6-.2-.2-.3-.2-.6h2.1v-.4c0-.5-.1-.8-.4-1.1s-.6-.4-1.1-.4-.9.2-1.1.4c-.3.3-.4.7-.4 1.3 0 .5.2.9.4 1.2.3.3.7.4 1.2.4.3.1.5.1.7 0m-.3-2.5c.1.1.2.3.2.5h-1.2c0-.2.1-.4.2-.5s.2-.2.4-.2c.1 0 .3.1.4.2m-2.9.4c0-.4-.1-.7-.3-.9s-.5-.3-.9-.3c-.2 0-.4 0-.6.1s-.3.2-.4.4l-.1-.4h-.7v3.2h.9v-1.5c0-.4.1-.7.2-.8.1-.2.3-.2.5-.2s.3.1.4.2.1.3.1.5v1.9h.9zm-4.7 2.1c.2 0 .3-.1.5-.2v-.7c-.2.1-.4.2-.5.2-.2 0-.4.1-.6.1s-.5-.1-.6-.2-.2-.3-.2-.6h2.1v-.4c0-.5-.1-.8-.4-1.1s-.6-.4-1.1-.4-.9.2-1.1.4c-.3.3-.4.7-.4 1.3 0 .5.1.9.4 1.2s.7.4 1.2.4c.3.1.5.1.7 0m-.3-2.5c.1.1.2.3.2.5h-1.2c0-.2.1-.4.2-.5s.2-.2.4-.2.3.1.4.2m-3.5 2.5c.2 0 .3-.1.5-.2v-.7c-.2.1-.4.2-.5.2-.2 0-.4.1-.6.1s-.5-.1-.6-.2-.2-.3-.2-.6h2.1v-.4c0-.5-.1-.8-.4-1.1s-.6-.4-1.1-.4-.9.2-1.1.4c-.3.3-.4.7-.4 1.3 0 .5.1.9.4 1.2s.7.4 1.2.4c.3.1.6.1.7 0m-.3-2.5c.1.1.2.3.2.5h-1.3c0-.2.1-.4.2-.5s.2-.2.4-.2.4.1.5.2m-3.9.2 1.5-1.9h-1l-1.1 1.4-.4.5v-1.9h-.9v4.2h.9v-1.5l.4-.3 1.1 1.8h1z"/><path d="m28.6 53.9c-.1-.1-.1-.2-.1-.3v-1.6h.9v-.7h-.9v-.7h-.6l-.3.7-.5.3v.4h.4v1.6c0 .4.1.6.2.8s.4.3.8.3c.3 0 .6 0 .8-.2v-.7c-.1.2-.3.2-.5.2-.1 0-.2 0-.2-.1m-3.1-.5c0 .2-.1.3-.2.5-.1.1-.3.2-.5.2-.3 0-.4-.1-.4-.4 0-.2.1-.3.2-.4s.3-.1.6-.1h.3zm.9 1.3v-2.2c0-.4-.1-.7-.3-.9s-.6-.3-1-.3c-.5 0-.9.1-1.2.3l.3.6c.3-.2.7-.2.9-.2.3 0 .5.2.5.5v.1h-.6c-.5 0-.8.1-1.1.3s-.4.4-.4.8c0 .3.1.6.3.8s.4.3.7.3c.2 0 .5 0 .6-.1s.3-.2.5-.4l.2.4zm-7.5-.9c-.1-.2-.2-.4-.2-.7s0-.6.2-.7.3-.2.5-.2.4.1.5.2c.1.2.2.4.2.8v.1c0 .3-.1.5-.2.7-.2 0-.3 0-.6 0-.2 0-.3-.1-.4-.2m1.1.5.2.4h.7v-4.5h-.9v1c0 .2 0 .4.1.7-.2-.3-.5-.5-.9-.5s-.7.2-.9.5-.3.7-.3 1.2.1.9.3 1.2.5.5.9.5c.3-.1.6-.2.8-.5m-3.2-4.1h-.9v4.5h.9zm-2 2c-.1-.2-.3-.5-.5-.6s-.5-.2-.8-.2c-.5 0-.9.2-1.2.4-.3.3-.4.7-.4 1.2 0 .3.1.6.2.9s.3.5.5.6.5.2.8.2c.5 0 .9-.2 1.2-.5s.4-.7.4-1.2c0-.3-.1-.6-.2-.8m-1.9.1c.1-.2.3-.2.5-.2s.4.1.5.2.2.4.2.7 0 .6-.2.7c-.1.2-.3.2-.5.2s-.4-.1-.5-.2c-.1-.2-.2-.4-.2-.7s.1-.5.2-.7m-2.1.5c-.1-.2-.4-.4-.8-.6-.3-.1-.5-.2-.6-.3s-.1-.1-.2-.2c0-.1-.1-.1-.1-.2s0-.2.1-.3.2-.1.4-.1c.1 0 .3 0 .4.1s.3.1.6.2l.3-.7c-.2-.1-.4-.2-.6-.2s-.4-.1-.6-.1c-.5 0-.8.1-1.1.3-.2.2-.4.5-.4.9 0 .2 0 .4.1.5s.2.3.3.4.3.2.6.3.5.2.5.3.2.1.2.2.1.1.1.2c0 .2 0 .3-.2.3s-.1.2-.3.2-.4 0-.5-.1c-.2 0-.4-.1-.7-.3v.8c.4.2.8.3 1.2.3.5 0 .9-.1 1.1-.3s.4-.5.4-.9c0-.3 0-.5-.2-.7"/><path d="m21.3 44.6h.3c-.1-.5-.2-1-.2-1.5 0-1.8.9-3.2 2.8-3.2 3.5 0 5.1 5.1 9.2 5.1 3 0 4-3 4-5.8 0-1.3-.2-2.6-.4-3.6h-.2c.1.5.1.9.1 1.2 0 2.1-1.3 2.7-3.2 2.7-2.2 0-4.2-.8-6.9-.8-2.8 0-4.4.9-5.1 2.5.2-.6.6-1.1 1.1-1.7 4.6-5 14.1-3.8 14.1-9.7 0-3.7-3.7-5.5-8-5.5-5.5 0-8.3 3-8.3 5.4 0 1.5 1 2.9 2.7 2.9 1.5 0 2.7-1.2 2.7-2.8 0-1.4-1-2.5-2.2-2.8.6-1.3 1.7-2.4 3.7-2.4 2.4 0 3.7 1.6 3.7 4.1 0 5.1-5.4 7.1-8.3 10.3-1.7 1.7-2.1 3.1-1.6 5.6m-20.5 0h.3c-.1-.5-.2-1-.2-1.5 0-1.8.9-3.2 2.8-3.2 3.5 0 5.1 5.1 9.2 5.1 3 0 4-3 4-5.8 0-1.3-.2-2.6-.4-3.6h-.2c.1.5.1.9.1 1.2 0 2.1-1.3 2.7-3.3 2.7-2.1 0-4.2-.8-6.9-.8-2.8 0-4.4.9-5.1 2.5.2-.6.6-1.1 1.1-1.7 4.6-4.9 14.1-3.8 14.1-9.7 0-3.7-3.7-5.5-8-5.5-5.5 0-8.3 3-8.3 5.4 0 1.5 1 2.9 2.7 2.9 1.5 0 2.7-1.2 2.7-2.8 0-1.4-1-2.5-2.2-2.8.6-1.3 1.7-2.4 3.7-2.4 2.4 0 3.7 1.6 3.7 4.1 0 5.1-5.4 7.1-8.3 10.3-1.6 1.7-2 3.1-1.5 5.6"/><path d="m48.4.1v85.7" fill="none" stroke="#000" stroke-width=".2666"/><path d="m47.8.1h1.2" fill="none" stroke="#000" stroke-width=".2666"/><path d="m47.8 85.8h1.2" fill="none" stroke="#000" stroke-width=".2666"/><g fill="#808285"><path d="m77.3 172.7c0-.1.2-.5.3-.9v.2c0 .2-.1.8-.1 1.3-.1-.2-.2-.4-.2-.6m-18.8-5.3c.1.2 0 .3 0 .4.1.1.2.2.3.2s.1.1.2.1.6 0 .7-.1 0-.2.1-.3.5-.3.6-.3.5-.3.5-.3c.1-.1.1-.1.1-.1s.6.1.8-.2c.1-.1.4 0 .6.2s1.9 3 2 3.8c.1.9.6 1.5.9 1.8 0 .3.1.6.2 1.1.2.7.4 1.7.4 2.3s.1.8.1 1.1.1 1.5 0 1.8-.5.5-.6.8c-.1.1-.4.3-.4.3s-.1.1.1.1.7.1.8.1.3 0 .4-.2-.1-.3-.1-.3c0-.1.1-.2.2-.3 0-.1.2-.3.3-.3s.2-.1.2-.3-.2-1.6-.2-1.7c0-.2 0-.7 0-.8 0-.2 0-.3.1-.8 0-.3 0-.2.1-.3.1.1.2.5.2.9 0 .6.2.8.2 1.1s.2 1.5 0 1.8c-.1.3-.5.6-.6.8-.1.1-.4.3-.4.3s-.1.1.1.1h.8c.1 0 .3 0 .4-.2s-.1-.3-.1-.3.1-.2.2-.3.2-.3.3-.3c.1-.1.2-.1.2-.3s-.2-1.6-.2-1.7-.1-.7 0-.8.1-.3 0-.8-.1-1.2-.1-1.5c0-.2 0-.4 0-.7.1 0 .6 0 1.6.1 1.1.1 2.1-.1 2.8-.3.3-.1.8-.3 1.2-.5s.8 0 .9.4c.2.5.3.9.4 1.1.2.4.6 1.7.8 2.1.1.4.1 1.7.1 1.8v.6c0 .1 0 .6-.1.8 0 .2-.4.3-.5.5-.2.2-.3.5-.2.6s.6 0 .9.1c.3 0 .5-.1.5-.2s-.2-.7 0-.9.5-.5.4-.8c-.2-.5 0-1.5 0-1.8s0-1.1.1-1.6c.2.4.4.9.5 1 .2.3.3 1.6.3 1.8v.6.8c0 .2-.3.3-.5.6s-.3.4-.2.5.6.1.9.1.5-.2.5-.2c0-.1-.2-.7-.1-.9s.4-.6.3-.9c-.2-.4-.1-.9-.2-1.4.1-.1.2-.2.3-.4.3-.8.3-1.8.3-2.3s-.4-2.9-.6-4c-.2-.9-.2-1.2-.5-1.5-.1-.2-.3-.4-.5-.5-.2-.2-.6-.4-.9-.4-.4-.1-1.4-.4-1.8-.4s-1 .1-1.7.2-2.3.3-3.3.1c-.7-.1-2.9-1.5-3.1-1.7s-1.6-.9-1.8-1.1c-.3-.2-1.3-.6-1.5-.7s-1-.4-1.3-.4c0 0 0 0-.1 0-.1-.1-.1-.2-.2-.3-.1-.2-.2-.3-.3-.4s-.1-.3-.1-.3-.1-.1-.1 0v.4.3c-.1-.1-.2-.2-.2-.3-.1-.1-.1-.3-.1-.3s-.1-.1-.1 0v.4c0 .1 0 .3.1.4v.3.1c-.1.1-.2.1-.4.2-.2.2-.7.7-.8.9s-.8.9-.9 1.1-.4.6-.5.7c.2-.3.2-.2.3 0"/><path d="m77.3 106.7c0-.1.2-.5.3-.9v.2c0 .2-.1.8-.1 1.3-.1-.2-.2-.4-.2-.6m-18.8-5.3c.1.2 0 .3 0 .4.1.1.2.2.3.2s.1.1.2.1.6 0 .7-.1 0-.2.1-.3.5-.3.6-.3.5-.3.5-.3c.1-.1.1-.1.1-.1s.6.1.8-.2c.1-.1.4 0 .6.2s1.9 3 2 3.8c.1.9.6 1.5.9 1.8 0 .3.1.6.2 1.1.2.7.4 1.7.4 2.3s.1.8.1 1.1.1 1.5 0 1.8-.5.5-.6.8c-.1.1-.4.3-.4.3s-.1.1.1.1.7.1.8.1.3 0 .4-.2-.1-.3-.1-.3.1-.2.2-.3c0-.1.2-.3.3-.3s.2-.1.2-.3-.2-1.6-.2-1.7c0-.2 0-.7 0-.8 0-.2 0-.3.1-.8 0-.3 0-.2.1-.3.1.1.2.5.2.8 0 .6.2.8.2 1.1s.2 1.5 0 1.8c-.1.3-.5.5-.6.8-.1.1-.4.3-.4.3s-.1.1.1.1h.8c.1 0 .3 0 .4-.2s-.1-.3-.1-.3.1-.2.2-.3c0 0 .2-.3.3-.3.1-.1.2-.1.2-.3s-.2-1.6-.2-1.7c0-.2-.1-.7 0-.8s.1-.3 0-.8-.1-1.2-.1-1.5c0-.2 0-.5 0-.7.1 0 .6 0 1.6.1 1.1.1 2.1-.1 2.8-.3.3-.1.8-.3 1.2-.5s.8 0 .9.4c.2.5.3.9.4 1.1.2.3.6 1.7.8 2.1s.1 1.7.1 1.8 0 .5 0 .7c0 .1 0 .6-.1.8 0 .2-.4.3-.5.5-.2.2-.3.5-.2.6s.6 0 .9.1c.3 0 .5-.1.5-.2s-.2-.7 0-.9.5-.5.4-.8c-.2-.5 0-1.5 0-1.8s0-1.1.1-1.6c.2.4.4.9.5 1 .2.3.3 1.6.3 1.8v.7.8s-.3.3-.5.6-.3.4-.2.5c.1 0 .6.1.9.1s.5-.2.5-.2c0-.1-.2-.7-.1-.9s.4-.6.3-.9c-.2-.4-.1-.9-.2-1.4.1-.1.2-.2.3-.4.3-.8.3-1.8.3-2.3s-.4-2.9-.6-4c-.2-.9-.2-1.2-.5-1.5-.1-.2-.3-.4-.5-.5-.2-.2-.6-.4-.9-.4-.4-.1-1.4-.4-1.8-.4s-1 .1-1.7.2-2.3.3-3.3.1c-.7-.1-2.9-1.5-3.1-1.7s-1.6-.9-1.8-1.1c-.3-.2-1.3-.6-1.5-.7s-1-.4-1.3-.4c0 0 0 0-.1 0-.1-.1-.1-.2-.2-.3-.1-.2-.2-.3-.3-.4s-.1-.3-.1-.3c0-.1-.1-.1-.1 0v.4.3c-.1-.1-.2-.2-.2-.3.1-.7.1-.9.1-.9 0-.1-.1-.1-.1 0v.4c0 .1 0 .3.1.4v.3.1c-.1.1-.2.1-.4.2-.2.2-.7.7-.8.9s-.8.9-.9 1.1-.4.6-.5.7c0 .2 0 .3.1.5"/><path d="m77.3 128.7c0-.1.2-.5.3-.9v.2c0 .2-.1.8-.1 1.3-.1-.2-.2-.4-.2-.6m-18.8-5.3c.1.2 0 .3 0 .4.1.1.2.2.3.2s.1.1.2.1.6 0 .7-.1 0-.2.1-.3.5-.3.6-.3.5-.3.5-.3c.1 0 .1-.1.1-.1s.6.1.8-.2c.1-.1.4 0 .6.2s1.9 3 2 3.8c.1.9.6 1.5.9 1.8 0 .3.1.6.2 1.1.2.7.4 1.7.4 2.3s.1.8.1 1.1.1 1.5 0 1.8-.5.5-.6.8c-.1.1-.4.3-.4.3s-.1.1.1.1.7.1.8.1.3 0 .4-.2-.1-.3-.1-.3.1-.2.2-.3c0-.1.2-.3.3-.3s.2-.1.2-.3-.2-1.6-.2-1.7c0-.2 0-.7 0-.8 0-.2 0-.3.1-.8 0-.3 0-.2.1-.3.1.1.2.5.2.8 0 .6.2.8.2 1.1s.2 1.5 0 1.8c-.1.4-.5.6-.6.8-.1.1-.4.3-.4.4s-.1.1.1.1h.8s.3 0 .4-.2-.1-.3-.1-.3.1-.2.2-.3.2-.3.3-.3.2-.1.2-.3-.2-1.6-.2-1.7c0-.2-.1-.7 0-.8s.1-.3 0-.8-.1-1.2-.1-1.5c0-.2 0-.4 0-.7.1 0 .6 0 1.6.1 1.1.1 2.1-.1 2.8-.3.3-.1.8-.3 1.2-.5s.8 0 .9.4c.2.5.3.9.4 1.1.2.3.6 1.7.8 2.1.1.3.1 1.7.1 1.8v.7c0 .1 0 .6-.1.8 0 .2-.4.3-.5.5s-.3.5-.2.6.6 0 .9.1.5-.1.5-.2-.2-.7 0-.9.5-.5.4-.9c-.2-.5 0-1.5 0-1.8s0-1.1.1-1.6c.2.4.4.9.5 1 .2.3.3 1.6.3 1.8v.7.8c0 .2-.3.3-.5.6s-.3.4-.2.5c.1 0 .6.1.9.1s.5-.2.5-.2c0-.1-.2-.7-.1-.9s.4-.6.3-.9c-.2-.4-.1-.9-.2-1.4.1-.1.2-.2.3-.4.3-.8.3-1.8.3-2.3s-.4-2.9-.6-4c-.2-.9-.2-1.2-.5-1.5-.1-.2-.3-.4-.5-.5-.2-.2-.6-.4-.9-.5-.4-.1-1.4-.4-1.8-.4s-1 .1-1.7.2-2.3.3-3.3.1c-.7-.1-2.9-1.5-3.1-1.7s-1.6-.9-1.8-1.1c-.3-.2-1.3-.6-1.5-.7s-1-.4-1.3-.5c0 0 0 0-.1 0-.1-.1-.1-.2-.2-.3-.1-.2-.2-.3-.3-.4s-.1-.3-.1-.3-.1-.1-.1 0v.4.3c-.1-.1-.2-.2-.2-.3-.1-.1-.1-.3-.1-.3s-.1-.1-.1 0v.4c0 .1 0 .3.1.4v.3.1c-.1.1-.2.1-.4.2-.2.2-.7.7-.8.9s-.8.9-.9 1.1-.4.6-.5.7c.2-.2.2-.1.3.1"/><path d="m77.3 150.7c0-.1.2-.5.3-.9v.2c0 .2-.1.8-.1 1.3-.1-.2-.2-.4-.2-.6m-18.8-5.3c.1.2 0 .3 0 .4.1.1.2.2.3.2s.1.1.2.1.6 0 .7-.1 0-.2.1-.3.5-.3.6-.3.5-.3.5-.3c.1-.1.1-.1.1-.1s.6.1.8-.2c.1-.1.4 0 .6.2s1.9 3 2 3.8c.1.9.6 1.5.9 1.8 0 .3.1.6.2 1.1.2.7.4 1.7.4 2.3s.1.8.1 1.1.1 1.5 0 1.8-.5.5-.6.8c-.1.1-.4.3-.4.3s-.1.1.1.1.7.1.8.1.3 0 .4-.2-.1-.3-.1-.3.1-.2.2-.3c0-.1.2-.3.3-.3s.2-.1.2-.3-.2-1.6-.2-1.7c0-.2 0-.7 0-.8 0-.2 0-.3.1-.8 0-.3 0-.2.1-.3.1.1.2.5.2.8 0 .6.2.8.2 1.1s.2 1.5 0 1.8c-.1.4-.5.6-.6.8-.1.1-.4.3-.4.4s-.1.1.1.1h.8c.1 0 .3 0 .4-.2s-.1-.3-.1-.3c0-.1.1-.2.2-.3s.2-.3.3-.3.2-.1.2-.3-.2-1.6-.2-1.7-.1-.7 0-.8.1-.3 0-.8-.1-1.2-.1-1.5c0-.2 0-.5 0-.7.1 0 .6 0 1.6.1 1.1.1 2.1-.1 2.8-.3.3-.1.8-.3 1.2-.5s.8 0 .9.4c.2.5.3.9.4 1.1.2.4.6 1.7.8 2.1.1.4.1 1.7.1 1.8v.6c0 .1 0 .6-.1.8 0 .2-.4.3-.5.5-.2.2-.3.5-.2.6s.6 0 .9.1c.3 0 .5-.1.5-.2s-.2-.7 0-.9.5-.5.4-.8c-.2-.5 0-1.5 0-1.8s0-1.1.1-1.6c.2.4.4.9.5 1 .2.3.3 1.6.3 1.8v.6.8c0 .2-.3.3-.5.6s-.3.4-.2.5.6.1.9.1.5-.2.5-.2c0-.1-.2-.7-.1-.9s.4-.6.3-.9c-.2-.4-.1-.9-.2-1.4.1-.1.2-.2.3-.4.3-.8.3-1.8.3-2.3s-.4-2.9-.6-4c-.2-.9-.2-1.2-.5-1.5-.1-.2-.3-.4-.5-.5-.2-.2-.6-.4-.9-.4-.4-.1-1.4-.4-1.8-.4s-1 .1-1.7.2-2.3.3-3.3.1c-.7-.1-2.9-1.5-3.1-1.7s-1.6-.9-1.8-1.1c-.3-.2-1.3-.6-1.5-.7s-1-.4-1.3-.4c0 0 0 0-.1 0-.1-.1-.1-.2-.2-.3-.1-.2-.2-.3-.3-.4s-.1-.3-.1-.3c0-.1-.1-.1-.1 0v.4.3c-.1-.1-.2-.2-.2-.3-.1-.1-.1-.3-.1-.3s-.1-.1-.1 0v.4c0 .1 0 .3.1.4v.3.1c-.1.1-.2.1-.4.2-.2.2-.7.7-.8.9s-.8.9-.9 1.1-.4.6-.5.7.2-.2.3 0"/><path d="m40.7 155.8c-.1-.1-.1-.2-.3-.3s-.3-.2-.6-.3-.5-.2-.5-.3c-.1-.1-.1-.1-.1-.2s.1-.2.4-.2c.1 0 .3 0 .4.1.1 0 .3.1.5.2l.3-.6c-.4-.2-.8-.3-1.1-.3-.4 0-.7.1-1 .2s-.3.4-.3.7c0 .2 0 .3.1.4 0 .1.1.2.3.3s.3.2.5.3.3.1.4.2.2.1.2.1.1.1.1.2c0 .2-.2.3-.5.3-.2 0-.3 0-.5-.1s-.4-.1-.6-.2v.7c.1.1.3.1.5.1s.4.1.6.1c.5 0 .8-.1 1-.3s.4-.4.4-.8c-.1 0-.1-.2-.2-.3m-3.9 1.4c.2 0 .3-.1.5-.2v-.7c-.2.1-.4.2-.5.2-.2 0-.4.1-.6.1s-.5-.1-.6-.2-.2-.3-.2-.6h2.1v-.4c0-.5-.1-.8-.4-1.1s-.6-.4-1.1-.4-.9.2-1.1.4c-.3.3-.4.7-.4 1.3 0 .5.1.9.4 1.2s.7.4 1.2.4c.4.1.6 0 .7 0m-.3-2.5c.1.1.2.3.2.5h-1.2c0-.2.1-.4.2-.5s.2-.2.4-.2.3.1.4.2m-2.9-2h-.9v4.5h.9zm-2.9 3.3c0 .2-.1.4-.2.5s-.3.2-.5.2c-.3 0-.4-.1-.4-.4 0-.2.1-.3.2-.4s.3-.1.6-.1h.3zm.9 1.2v-2.2c0-.4-.1-.7-.4-.9s-.6-.3-1-.3c-.5 0-.9.1-1.2.3l.3.6c.4-.2.7-.2.9-.2.3 0 .5.2.5.5v.1h-.6c-.5 0-.9.1-1.1.3s-.4.4-.4.8c0 .3.1.6.3.8s.4.3.7.3c.2 0 .5 0 .6-.1.2-.1.3-.2.5-.4l.2.4zm-3.9-1.9c-.1-.2-.4-.4-.8-.6-.3-.1-.5-.2-.6-.3s-.1-.1-.2-.2c0-.1-.1-.1-.1-.2s0-.2.1-.3.2-.1.4-.1c.1 0 .3 0 .4.1.1 0 .3.1.6.2l.3-.7c-.2-.1-.4-.2-.6-.2s-.4-.1-.6-.1c-.5 0-.8.1-1.1.3-.2.2-.4.5-.4.9 0 .2 0 .4.1.5s.2.3.3.4.3.2.6.3.5.2.5.3.2.1.2.2.1.1.1.2 0 .3-.2.3c-.1.1-.3.1-.5.1s-.4 0-.5-.1c-.2-.1-.4-.1-.7-.3v.8c.4.2.8.3 1.2.3.5 0 .9-.1 1.1-.3.3-.2.4-.5.4-.9.2-.1.1-.4 0-.6m-5.8-1.2c-.2.1-.3.3-.4.4l-.1-.6h-.7v3.2h.9v-1.7c0-.3.1-.5.2-.6.2-.1.4-.2.7-.2h.3l.1-.8c-.1 0-.2 0-.3 0-.3.1-.5.2-.7.3m-2.9 3.1c.2 0 .3-.1.5-.2v-.7c-.2.1-.4.2-.5.2-.2 0-.4.1-.6.1s-.5-.1-.6-.2-.2-.3-.2-.6h2.1v-.4c0-.5-.1-.8-.4-1.1s-.6-.4-1.1-.4-.9.2-1.1.4c-.3.3-.4.7-.4 1.3 0 .5.1.9.4 1.2s.7.4 1.2.4c.3.1.6 0 .7 0m-.3-2.5c.1.1.2.3.2.5h-1.2c0-.2.1-.4.2-.5s.2-.2.4-.2.3.1.4.2m-2.9.4c0-.4-.1-.7-.3-.9s-.5-.3-.9-.3-.7.2-.9.5v-.3c0-.3 0-.4 0-.5v-.9h-.9v4.5h.9v-1.5c0-.4.1-.6.2-.8s.3-.2.5-.2c.4 0 .5.2.5.7v1.9h.9zm-4.7 1.4c-.1-.1-.1-.1-.1-.3v-1.6h.9v-.6h-.9v-.7h-.6l-.3.7-.5.3v.4h.4v1.6c0 .4.1.6.2.8.2.2.4.3.8.3.3 0 .6-.1.8-.1v-.7c-.2.1-.4.1-.6.1 0-.1-.1-.2-.1-.2m-5.1-2.5c.2-.2.5-.4.8-.4.7 0 1.1.5 1.1 1.4 0 1-.4 1.4-1.1 1.4-.4 0-.6-.1-.8-.4-.2-.2-.3-.6-.3-1.1.1-.3.1-.7.3-.9m2.3-.5c-.4-.4-.9-.6-1.5-.6s-1.1.2-1.5.6-.5.9-.5 1.6.2 1.2.5 1.6c.4.4.9.6 1.5.6s1.1-.2 1.5-.6.5-.9.5-1.6c.1-.7-.1-1.3-.5-1.6"/><path d="m32.5 149.6c-.1-.1-.1-.2-.1-.3v-1.6h.9v-.7h-.9v-.7h-.6l-.3.7-.5.3v.4h.4v1.6c0 .4.1.6.2.8.2.2.4.3.8.3.3 0 .6-.1.8-.2v-.7c-.2.1-.4.1-.6.1.1.1 0 .1-.1 0m-3.1-.5c0 .2-.1.3-.2.5-.1.1-.3.2-.5.2-.3 0-.4-.1-.4-.4 0-.2.1-.3.2-.4s.3-.1.6-.1h.3zm.9 1.3v-2.2c0-.4-.1-.7-.4-.9s-.6-.3-1-.3c-.5 0-.9.1-1.2.3l.3.6c.4-.2.7-.2.9-.2.3 0 .5.2.5.5v.1h-.6c-.5 0-.9.1-1.1.3s-.4.4-.4.8c0 .3.1.6.3.8s.4.3.7.3c.2 0 .5 0 .6-.1.2-.1.3-.2.5-.4l.2.4zm-7.5-.9c-.1-.2-.2-.4-.2-.7s0-.6.2-.7c.1-.2.3-.2.5-.2s.4.1.5.2c.1.2.2.4.2.8v.1c0 .3-.1.5-.2.7-.1.1-.3.2-.5.2-.2-.2-.4-.3-.5-.4m1.1.4.2.4h.7v-4.5h-.9v1c0 .2 0 .4.1.6-.2-.3-.5-.5-.9-.5s-.7.2-.9.4c-.2.3-.3.7-.3 1.2s.1.9.3 1.2.5.4.9.4c.3.3.6.2.8-.2m-3.1-4.1h-.9v4.5h.9zm-2.1 2c-.1-.2-.3-.5-.5-.6s-.5-.2-.8-.2c-.5 0-.9.2-1.2.4-.3.3-.4.7-.4 1.2 0 .3.1.6.2.9s.3.5.5.6.5.2.8.2c.5 0 .9-.1 1.2-.4s.4-.7.4-1.2c0-.3 0-.6-.2-.9m-1.9.2c.1-.2.3-.2.5-.2s.4.1.5.2c.1.2.2.4.2.7s0 .6-.2.7c-.1.2-.3.2-.5.2s-.4-.1-.5-.2c-.1-.2-.2-.4-.2-.7.1-.3.1-.5.2-.7m-2 .5c-.1-.2-.4-.4-.8-.6-.3-.1-.5-.2-.6-.3s-.1-.1-.2-.2c0-.1-.1-.1-.1-.2s0-.2.1-.3.2-.1.4-.1c.1 0 .3 0 .4.1.1 0 .3.1.6.2l.3-.7c-.2-.1-.4-.2-.6-.2s-.4-.1-.6-.1c-.5 0-.8.1-1.1.3-.2.2-.4.5-.4.9 0 .2 0 .4.1.5.1.2.2.3.3.4s.3.2.6.4c.3.1.5.2.5.3.1.1.2.1.2.2s.1.1.1.2c0 .2 0 .3-.2.3-.1.1-.3.1-.5.1s-.4 0-.5-.1c-.2 0-.4-.1-.7-.3v.8c.4.2.8.3 1.2.3.5 0 .9-.1 1.1-.3.3-.2.4-.5.4-.9.2-.3.1-.5 0-.7"/><path d="m19.9 140.3h12.2v-.2c-2 0-3.2-.3-3.2-3.3v-1.7c2 0 2.4.3 2.7.3s.6-.2.6-.5-.2-.5-.6-.5-.6.4-2.7.4v-7.6h-.2l-5.2 4.8v2.8h-9.8l2.7-2.1c3.6-2.9 9.4-4.8 9.4-8.3 0-3.3-5.1-4.5-9.1-4.3 1.4 1.1 2.7 2.8 2.7 5.4 0 2.8-1.5 5.5-3.5 7.2l-2.8 2.4.1.1h10.3v1.4c0 3-1.3 3.6-3.6 3.6z"/></g><path d="m48.5 95.8v85.7" fill="none" stroke="#808285" stroke-width=".2666"/><path d="m47.9 95.8h1.2" fill="none" stroke="#808285" stroke-width=".2666"/><path d="m47.9 181.5h1.2" fill="none" stroke="#808285" stroke-width=".2666"/></svg>